<?xml version="1.0" encoding="UTF-8"?> <svg xmlns="http://www.w3.org/2000/svg" width="1572" height="944" fill="none"> <path d="M398.998 48a1 1 0 000 2v-2zm230 466.001l.195.981-.195-.981zM1249 451l.03 1-.03-1zM570 837.5l-.021-1 .021 1zm-236.002 46.501l10.865-3.91-8.818-7.454-2.047 11.364zm1.02.341a1 1 0 10-1.47-1.357l1.47 1.357zm5.545-5.807a1 1 0 10.866 1.802l-.866-1.802zm1.793 1.365a1 1 0 00-.841-1.815l.841 1.815zm6.574-4.914a1 1 0 00.716 1.868l-.716-1.868zm1.655 1.51a1 1 0 10-.706-1.871l.706 1.871zm6.803-4.55a1 1 0 00.642 1.895l-.642-1.895zm1.603 1.571a1.001 1.001 0 00-.635-1.897l.635 1.897zm6.979-4.347a1 1 0 10.592 1.911l-.592-1.911zm1.527 1.622a1 1 0 10-.587-1.912l.587 1.912zm7.074-4.19a1 1 0 00.553 1.922l-.553-1.922zm1.519 1.645a1 1 0 10-.55-1.923l.55 1.923zm7.164-4.068a1 1 0 10.523 1.93l-.523-1.93zm1.504 1.665a.999.999 0 10-.519-1.931l.519 1.931zm7.198-3.954a1 1 0 00.495 1.938l-.495-1.938zm1.445 1.696a1 1 0 10-.493-1.938l.493 1.938zm7.259-3.862a1 1 0 00.471 1.944l-.471-1.944zm1.431 1.712a.999.999 0 10-.469-1.944l.469 1.944zm7.308-3.776a1 1 0 00.449 1.949l-.449-1.949zm1.415 1.728a1 1 0 00-.447-1.95l.447 1.95zm7.35-3.695a1 1 0 00.428 1.954l-.428-1.954zm1.398 1.743a1 1 0 00-.425-1.955l.425 1.955zm7.389-3.617a1 1 0 00.407 1.959l-.407-1.959zm1.381 1.757a1 1 0 00-.405-1.959l.405 1.959zm7.426-3.541a1 1 0 00.387 1.963l-.387-1.963zm1.362 1.771a1 1 0 00-.385-1.963l.385 1.963zm7.462-3.467a1 1 0 10.368 1.966l-.368-1.966zm1.344 1.784a1 1 0 00-.365-1.966l.365 1.966zm7.497-3.393a1 1 0 00.348 1.97l-.348-1.97zm1.326 1.797a1 1 0 10-.346-1.97l.346 1.97zm7.531-3.319a1 1 0 10.329 1.973l-.329-1.973zm1.308 1.81a1 1 0 10-.327-1.973l.327 1.973zm7.563-3.245a1.001 1.001 0 00.31 1.976l-.31-1.976zm1.29 1.823a1 1 0 10-.307-1.976l.307 1.976zm7.596-3.169a1 1 0 00.29 1.979l-.29-1.979zm1.271 1.836a1 1 0 00-.287-1.98l.287 1.98zm7.624-3.092a1 1 0 00.269 1.982l-.269-1.982zm1.256 1.849a1 1 0 10-.267-1.982l.267 1.982zm7.649-3.011a.999.999 0 10.248 1.984l-.248-1.984zm1.239 1.861a1 1 0 00-.246-1.985l.246 1.985zm7.68-2.929a1 1 0 10.227 1.987l-.227-1.987zm1.217 1.875a1 1 0 10-.224-1.988l.224 1.988zm7.715-2.844a1 1 0 10.205 1.99l-.205-1.99zm1.196 1.888a1 1 0 10-.202-1.989l.202 1.989zm7.749-2.754a1 1 0 10.181 1.991l-.181-1.991zm1.173 1.902a1 1 0 00-.179-1.992l.179 1.992zm7.782-2.661a1 1 0 10.156 1.994l-.156-1.994zm1.149 1.916a1 1 0 00-.154-1.994l.154 1.994zm7.815-2.562a1 1 0 10.13 1.996l-.13-1.996zm1.124 1.932a1 1 0 00-.127-1.996l.127 1.996zm7.846-2.458a1.001 1.001 0 00.104 1.997l-.104-1.997zm1.099 1.947a1 1 0 00-.1-1.998l.1 1.998zm7.877-2.347a1 1 0 00.074 1.999l-.074-1.999zm1.072 1.963a1 1 0 10-.071-1.999l.071 1.999zm7.912-2.227a1 1 0 00.043 1.999l-.043-1.999zm1.038 1.979a1 1 0 00-.041-2l.041 2zm7.961-2.123a1 1 0 00.021 2l-.021-2zm1.019 1.99a1 1 0 10-.019-2l.019 2zm7.983-2.038a1 1 0 10.001 2l-.001-2zm.999 2.001a1.001 1.001 0 00.002-2l-.002 2zm8.003-1.956a1.001 1.001 0 00-.02 2l.02-2zm.978 2.011a1 1 0 10.022-2l-.022 2zm8.023-1.874a1 1 0 10-.04 1.999l.04-1.999zm.957 2.02a1 1 0 00.043-2l-.043 2zm8.041-1.796a1 1 0 10-.06 1.999l.06-1.999zm.938 2.03a1 1 0 00.061-1.999l-.061 1.999zm8.057-1.719a1 1 0 00-.078 1.999l.078-1.999zm.919 2.038a1 1 0 10.081-1.998l-.081 1.998zm8.074-1.643a1.001 1.001 0 00-.096 1.998l.096-1.998zm.901 2.047a1 1 0 00.099-1.998l-.099 1.998zm8.088-1.57a1.001 1.001 0 00-.115 1.997l.115-1.997zm.881 2.055a1 1 0 00.117-1.997l-.117 1.997zm8.101-1.498a1 1 0 10-.132 1.995l.132-1.995zm.864 2.062a1 1 0 00.134-1.996l-.134 1.996zm8.114-1.429a1.001 1.001 0 00-.149 1.995l.149-1.995zm.847 2.07a1 1 0 00.151-1.995l-.151 1.995zm8.126-1.361a1 1 0 10-.165 1.993l.165-1.993zm.83 2.076a1 1 0 10.167-1.993l-.167 1.993zm8.136-1.295a1 1 0 10-.181 1.992l.181-1.992zm.813 2.083a1 1 0 00.183-1.992l-.183 1.992zm8.146-1.232a1 1 0 00-.197 1.991l.197-1.991zm.797 2.089a1 1 0 10.198-1.99l-.198 1.99zm8.156-1.169a1 1 0 00-.212 1.989l.212-1.989zm.78 2.095a1 1 0 00.214-1.989l-.214 1.989zm8.165-1.109a.999.999 0 10-.227 1.987l.227-1.987zm.765 2.1a1 1 0 10.228-1.987l-.228 1.987zm8.173-1.051a1.001 1.001 0 00-.24 1.986l.24-1.986zm.751 2.106a1 1 0 00.242-1.985l-.242 1.985zm8.18-.995a1 1 0 10-.254 1.984l.254-1.984zm.737 2.111a1.001 1.001 0 00.255-1.984l-.255 1.984zm8.184-.941a1 1 0 00-.266 1.982l.266-1.982zm.723 2.116a1 1 0 00.268-1.982l-.268 1.982zm8.19-.889a1 1 0 00-.279 1.981l.279-1.981zm.71 2.12a.999.999 0 10.28-1.98l-.28 1.98zm8.2-.837a1 1 0 00-.291 1.979l.291-1.979zm.697 2.124a1 1 0 10.292-1.978l-.292 1.978zm8.202-.789a1.001 1.001 0 00-1.14.838.998.998 0 00.837 1.139l.303-1.977zm.684 2.129a1 1 0 10.304-1.977l-.304 1.977zm8.204-.743a1 1 0 10-.314 1.975l.314-1.975zm.672 2.132a1 1 0 10.314-1.975l-.314 1.975zm8.208-.698a1 1 0 00-.324 1.974l.324-1.974zm.662 2.136a1 1 0 00.326-1.973l-.326 1.973zm8.219-.653a.999.999 0 10-.335 1.971l.335-1.971zm.65 2.139a1.001 1.001 0 00.336-1.972l-.336 1.972zm8.217-.614a1 1 0 10-.344 1.971l.344-1.971zm.639 2.143a1 1 0 10.345-1.97l-.345 1.97zm8.214-.576a1 1 0 10-.353 1.969l.353-1.969zm.629 2.145a1 1 0 10.354-1.968l-.354 1.968zm8.225-.536a1 1 0 00-.362 1.967l.362-1.967zm.621 2.148a.999.999 0 10.363-1.966l-.363 1.966zm8.23-.5a1 1 0 10-.37 1.966l.37-1.966zm.611 2.151a1.001 1.001 0 00.372-1.965l-.372 1.965zm8.225-.468a1 1 0 00-.378 1.964l.378-1.964zm.602 2.153a1 1 0 10.379-1.964l-.379 1.964zm8.218-.437a.999.999 0 10-.386 1.962l.386-1.962zm.592 2.154a.999.999 0 10.386-1.962l-.386 1.962zm8.241-.403a1 1 0 00-.393 1.961l.393-1.961zm.588 2.158a1 1 0 10.393-1.961l-.393 1.961zm8.236-.377a1 1 0 00-.399 1.96l.399-1.96zm.58 2.159a1 1 0 10.4-1.959l-.4 1.959zm8.227-.352a1 1 0 10-.405 1.959l.405-1.959zm.572 2.161a1 1 0 00.405-1.958l-.405 1.958zm8.217-.33a1.001 1.001 0 00-.41 1.957l.41-1.957zm.57 2.163a.999.999 0 10.411-1.957l-.411 1.957zm8.251-.3a1 1 0 10-.415 1.956l.415-1.956zm.563 2.164a1 1 0 00.416-1.956l-.416 1.956zm8.238-.283a1 1 0 00-.42 1.956l.42-1.956zm.556 2.166a1 1 0 00.421-1.956l-.421 1.956zm8.224-.268a1 1 0 00-.424 1.955l.424-1.955zm.549 2.167a1 1 0 00.426-1.955l-.426 1.955zm8.231-.25a1 1 0 00-.428 1.954l.428-1.954zm.55 2.169a1.001 1.001 0 00.429-1.954l-.429 1.954zm8.253-.229a.999.999 0 10-.431 1.952l.431-1.952zm.545 2.168a1 1 0 10.432-1.952l-.432 1.952zm8.236-.22a1 1 0 00-.435 1.952l.435-1.952zm.539 2.169a1 1 0 10.435-1.952l-.435 1.952zm8.218-.213a1 1 0 00-.437 1.952l.437-1.952zm.534 2.169a1 1 0 10.437-1.951l-.437 1.951zm8.25-.197a1 1 0 00-.439 1.952l.439-1.952zm.539 2.172a1 1 0 00.439-1.952l-.439 1.952zm8.251-.19a1 1 0 10-.441 1.951l.441-1.951zm.534 2.171a1 1 0 00.441-1.951l-.441 1.951zm8.229-.19a1 1 0 00-.441 1.951l.441-1.951zm.531 2.171a1 1 0 00.442-1.951l-.442 1.951zm8.207-.192a1 1 0 00-.442 1.95l.442-1.95zm.535 2.172a1 1 0 00.442-1.951l-.442 1.951zm8.27-.177a1 1 0 00-.442 1.951l.442-1.951zm.535 2.172a1 1 0 00.442-1.95l-.442 1.95zm8.245-.184a1 1 0 10-.442 1.951l.442-1.951zm.532 2.171a1 1 0 10.441-1.95l-.441 1.95zm8.218-.193a1 1 0 10-.44 1.951l.44-1.951zm.53 2.17a1.001 1.001 0 00.44-1.951l-.44 1.951zm8.235-.196a1.005 1.005 0 00-1.2.756c-.12.539.22 1.074.76 1.195l.44-1.951zm.54 2.172a.994.994 0 001.19-.757.996.996 0 00-.75-1.195l-.44 1.952zm8.26-.197a.995.995 0 00-1.19.757c-.12.539.22 1.074.75 1.195l.44-1.952zm.54 2.17a1.01 1.01 0 001.2-.758 1.001 1.001 0 00-.76-1.194l-.44 1.952zm8.23-.214a1 1 0 00-.43 1.952l.43-1.952zm.54 2.169c.54.119 1.08-.221 1.2-.76a1 1 0 00-.76-1.193l-.44 1.953zm8.2-.234a.998.998 0 00-1.19.761.998.998 0 00.76 1.192l.43-1.953zm.54 2.167a.993.993 0 001.19-.762.997.997 0 00-.76-1.191l-.43 1.953zm8.27-.233a1.005 1.005 0 00-1.19.763c-.11.54.23 1.073.77 1.191l.42-1.954zm.56 2.168c.54.117 1.07-.225 1.19-.764.12-.54-.23-1.073-.77-1.19l-.42 1.954zm8.25-.256a1 1 0 10-.42 1.955l.42-1.955zm.55 2.166a.999.999 0 10.42-1.955l-.42 1.955zm8.22-.284a1 1 0 10-.42 1.956l.42-1.956zm.55 2.163c.54.115 1.07-.229 1.19-.769a1.004 1.004 0 00-.77-1.187l-.42 1.956zm8.22-.305a1.009 1.009 0 00-1.19.773c-.11.54.24 1.071.78 1.184l.41-1.957zm.57 2.164a1.01 1.01 0 001.19-.773 1.007 1.007 0 00-.78-1.184l-.41 1.957zm8.27-.32a.998.998 0 00-1.18.776c-.11.541.24 1.07.78 1.182l.4-1.958zm.58 2.161a.999.999 0 10.4-1.959l-.4 1.959zm8.22-.358a1 1 0 10-.39 1.96l.39-1.96zm.58 2.158c.54.11 1.07-.24 1.18-.782a.999.999 0 00-.78-1.178l-.4 1.96zm8.19-.398a1.002 1.002 0 00-1.18.786.995.995 0 00.79 1.176l.39-1.962zm.58 2.155a.992.992 0 001.17-.786.996.996 0 00-.78-1.176l-.39 1.962zm8.28-.413a1.006 1.006 0 00-1.18.791c-.1.542.25 1.067.8 1.172l.38-1.963zm.6 2.154a.996.996 0 001.17-.791.997.997 0 00-.79-1.172l-.38 1.963zm8.24-.458a1.006 1.006 0 00-1.17.796c-.1.543.26 1.066.8 1.169l.37-1.965zm.61 2.15c.54.103 1.07-.254 1.17-.797.1-.543-.26-1.066-.8-1.168l-.37 1.965zm8.19-.508a1 1 0 00-.36 1.967l.36-1.967zm.62 2.146a1 1 0 00.36-1.967l-.36 1.967zm8.22-.547a1 1 0 10-.35 1.969l.35-1.969zm.64 2.146a1 1 0 10.35-1.97l-.35 1.97zm8.25-.59a.995.995 0 00-1.15.816.995.995 0 00.81 1.155l.34-1.971zm.65 2.14c.55.093 1.06-.273 1.16-.817a1.007 1.007 0 00-.82-1.154l-.34 1.971zm8.2-.651a1 1 0 00-.33 1.973l.33-1.973zm.65 2.135a1 1 0 00.33-1.974l-.33 1.974zm8.17-.711a1.006 1.006 0 00-1.15.832c-.08.545.29 1.057.84 1.143l.31-1.975zm.68 2.132c.55.086 1.06-.287 1.15-.832a1.006 1.006 0 00-.84-1.143l-.31 1.975zm8.26-.755a1 1 0 10-.3 1.977l.3-1.977zm.7 2.126a.997.997 0 001.13-.842.997.997 0 00-.84-1.136l-.29 1.978zm8.19-.829a.999.999 0 10-.28 1.98l.28-1.98zm.71 2.119a.99.99 0 001.12-.851.994.994 0 00-.85-1.129l-.27 1.98zm8.12-.906a1 1 0 00-.26 1.983l.26-1.983zm.72 2.113a.995.995 0 001.12-.861.992.992 0 00-.86-1.122l-.26 1.983zm8.25-.963a.99.99 0 00-1.11.87.996.996 0 00.87 1.115l.24-1.985zm.75 2.108c.55.067 1.05-.323 1.12-.871a.996.996 0 00-.87-1.114l-.25 1.985zm8.19-1.049a1 1 0 10-.23 1.987l.23-1.987zm.76 2.099c.55.062 1.05-.333 1.11-.882a1.005 1.005 0 00-.89-1.105l-.22 1.987zm8.11-1.139a1.005 1.005 0 00-1.1.893c-.05.549.35 1.04.89 1.097l.21-1.99zm.78 2.09c.55.056 1.04-.344 1.1-.893.05-.55-.35-1.041-.9-1.096l-.2 1.989zm8.19-1.218c-.55-.05-1.03.355-1.09.905-.05.55.36 1.037.91 1.087l.18-1.992zm.82 2.083c.55.05 1.04-.356 1.09-.906.05-.55-.36-1.036-.91-1.086l-.18 1.992zm8.15-1.316a.994.994 0 00-1.07.918.991.991 0 00.92 1.076l.15-1.994zm.84 2.073a1.01 1.01 0 001.08-.92c.04-.55-.37-1.031-.92-1.074l-.16 1.994zm8.07-1.421c-.55-.037-1.03.38-1.07.931-.03.551.38 1.027.94 1.064l.13-1.995zm.85 2.06c.56.036 1.03-.381 1.07-.932a1.003 1.003 0 00-.94-1.063l-.13 1.995zm8.13-1.522a1 1 0 10-.1 1.998l.1-1.998zm.9 2.05a1 1 0 10.1-1.997l-.1 1.997zm8.1-1.636a1.003 1.003 0 00-1.04.961c-.02.552.41 1.016.96 1.038l.08-1.999zm.92 2.036c.55.021 1.02-.41 1.04-.962a1 1 0 00-.97-1.036l-.07 1.998zm8-1.757a1 1 0 10-.04 1.999l.04-1.999zm.95 2.022a.999.999 0 001.02-.978c.01-.553-.43-1.01-.98-1.022l-.04 2zm8.05-1.882a.995.995 0 00-1.01.992.997.997 0 00.99 1.008l.02-2zm.99 2.006c.55.003 1-.442 1-.994a.993.993 0 00-.99-1.006l-.01 2zm8.01-2.016a.998.998 0 00-.99 1.01c0 .552.46.995 1.01.99l-.02-2zm1.02 1.989a.992.992 0 00.98-1.012.99.99 0 00-1.01-.988l.03 2zm7.9-2.155a.996.996 0 00-.97 1.027c.01.552.47.987 1.02.972l-.05-1.999zm1.04 1.97a.992.992 0 00.97-1.029.99.99 0 00-1.02-.97l.05 1.999zm7.95-2.305a1 1 0 10.1 1.997l-.1-1.997zm1.1 1.949a1 1 0 10-.1-1.997l.1 1.997zm7.88-2.461a.998.998 0 00-.93 1.065c.03.551.51.968 1.06.931l-.13-1.996zm1.13 1.927c.55-.038.96-.516.93-1.067a1.004 1.004 0 00-1.07-.928l.14 1.995zm7.75-2.619a.994.994 0 00-.9 1.085c.04.55.53.956 1.08.908l-.18-1.993zm1.17 1.904c.55-.05.95-.536.9-1.086a.995.995 0 00-1.08-.906l.18 1.992zm7.8-2.799a.991.991 0 00-.88 1.105c.06.548.55.944 1.1.883l-.22-1.988zm1.22 1.875a1 1 0 10-.23-1.987l.23 1.987zm7.68-2.973a.996.996 0 00-.85 1.125c.07.547.58.931 1.12.857l-.27-1.982zm1.26 1.847c.55-.076.93-.581.86-1.128a1.004 1.004 0 00-1.13-.854l.27 1.982zm7.56-3.151a.996.996 0 00-.83 1.146c.09.546.6.917 1.15.829l-.32-1.975zm1.31 1.813a1 1 0 10-.32-1.974l.32 1.974zm7.57-3.359c-.54.102-.9.625-.8 1.168.1.543.63.9 1.17.798l-.37-1.966zm1.36 1.78c.54-.104.89-.628.79-1.17a1 1 0 00-1.17-.795l.38 1.965zm7.42-3.55c-.54.117-.88.649-.77 1.189.12.539.65.882 1.19.766l-.42-1.955zm1.4 1.743a1 1 0 00-.43-1.954l.43 1.954zm7.31-3.753a.996.996 0 00-.73 1.209c.13.537.67.865 1.21.733l-.48-1.942zm1.45 1.7a.994.994 0 00.73-1.213.994.994 0 00-1.21-.728l.48 1.941zm7.24-3.975a.996.996 0 00-.69 1.231c.14.533.69.844 1.23.697l-.54-1.928zm1.5 1.658a1 1 0 00-.54-1.926l.54 1.926zm7.08-4.181c-.53.164-.82.724-.66 1.251.17.528.73.822 1.26.658l-.6-1.909zm1.55 1.611a.992.992 0 00.65-1.254.991.991 0 00-1.25-.653l.6 1.907zm6.96-4.406a.998.998 0 10.65 1.89l-.65-1.89zm1.6 1.56c.52-.182.8-.753.62-1.274a1.01 1.01 0 00-1.28-.613l.66 1.887zm6.82-4.629a1 1 0 00-.57 1.292c.19.515.77.773 1.29.575l-.72-1.867zm1.65 1.507c.52-.2.77-.779.57-1.294a.998.998 0 00-1.29-.571l.72 1.865zm6.65-4.849a1 1 0 00.78 1.842l-.78-1.842zm1.7 1.451a.998.998 0 10-.78-1.84l.78 1.84zm6.48-5.073a1 1 0 00-.48 1.328 1 1 0 001.33.487l-.85-1.815zm1.75 1.392c.5-.234.72-.83.49-1.33-.24-.5-.83-.716-1.33-.482l.84 1.812zm6.32-5.299c-.5.25-.69.852-.44 1.344.24.493.85.69 1.34.441l-.9-1.785zm1.79 1.329c.5-.251.69-.854.44-1.346a1.003 1.003 0 00-1.35-.435l.91 1.781zm6.12-5.517c-.48.267-.65.875-.39 1.359.27.483.88.659 1.36.392l-.97-1.751zm1.84 1.267a.993.993 0 00.39-1.36 1 1 0 00-1.36-.387l.97 1.747zm5.9-5.719c-.47.284-.62.898-.34 1.372.28.474.9.628 1.37.344l-1.03-1.716zm1.89 1.199c.47-.286.62-.9.34-1.373a.997.997 0 00-1.37-.338l1.03 1.711zm5.73-5.949c-.46.301-.6.92-.3 1.384.31.463.92.595 1.39.294l-1.09-1.678zm1.93 1.127c.46-.302.59-.922.29-1.384a.994.994 0 00-1.38-.289l1.09 1.673zm5.48-6.125c-.45.317-.56.94-.25 1.393.32.452.94.562 1.4.245l-1.15-1.638zm1.96 1.064a.999.999 0 00-1.15-1.633l1.15 1.633zm5.26-6.317c-.44.333-.53.96-.2 1.401a1 1 0 001.4.195l-1.2-1.596zm2 .989a.994.994 0 00.19-1.401.997.997 0 00-1.4-.19l1.21 1.591zm5.1-6.546a.997.997 0 00-.15 1.406c.35.429.98.495 1.41.146l-1.26-1.552zm2.04.911c.43-.35.49-.98.14-1.407a.991.991 0 00-1.4-.141l1.26 1.548zm4.76-6.635a.999.999 0 00-.09 1.411c.36.416.99.46 1.41.097l-1.32-1.508zm2.07.853c.41-.364.45-.996.09-1.411a.999.999 0 00-1.41-.092l1.32 1.503zm4.58-6.838a.992.992 0 00-.05 1.414.996.996 0 001.41.05l-1.36-1.464zm2.1.775a1 1 0 00.04-1.413.996.996 0 00-1.41-.045l1.37 1.458zm4.42-7.062a1 1 0 001.41 1.417l-1.41-1.417zm2.13.696a1 1 0 000-1.414.995.995 0 00-1.41.002l1.41 1.412zm4.17-7.161c-.38.401-.36 1.034.04 1.414a.996.996 0 001.41-.039l-1.45-1.375zm2.14.646c.38-.403.36-1.035-.04-1.414a1.009 1.009 0 00-1.42.044l1.46 1.37zm3.89-7.206a1 1 0 001.49 1.331l-1.49-1.331zm2.15.591a1 1 0 00-.09-1.411.998.998 0 00-1.41.085l1.5 1.326zm3.7-7.359a1 1 0 00.13 1.409.99.99 0 001.4-.123l-1.53-1.286zm2.18.514a.999.999 0 00-.13-1.409 1.003 1.003 0 00-1.41.129l1.54 1.28zm3.46-7.454c-.34.434-.26 1.063.17 1.404a.995.995 0 001.4-.167l-1.57-1.237zm2.19.455c.34-.435.26-1.064-.17-1.404a1.007 1.007 0 00-1.41.172l1.58 1.232zm3.21-7.539a1.001 1.001 0 001.61 1.187l-1.61-1.187zm2.21.374a1.003 1.003 0 00-1.62-1.181l1.62 1.181zm3-7.678a.997.997 0 101.64 1.134l-1.64-1.134zm2.21.311a.999.999 0 10-1.65-1.128l1.65 1.128zm2.7-7.707c-.3.465-.16 1.084.3 1.382a.996.996 0 001.38-.302l-1.68-1.08zm2.23.228a1 1 0 00-1.69-1.073l1.69 1.073zm2.49-7.873c-.28.475-.12 1.088.35 1.37a.998.998 0 001.37-.348l-1.72-1.022zm2.23.161c.28-.476.12-1.089-.35-1.369a1 1 0 00-1.37.354l1.72 1.015zm2.18-7.878a1 1 0 00.4 1.357c.48.266 1.09.089 1.36-.395l-1.76-.962zm2.23.094a1 1 0 00-.4-1.357 1.006 1.006 0 00-1.36.401l1.76.956zm1.95-8.033a1 1 0 00.44 1.343c.5.248 1.1.05 1.35-.443l-1.79-.9zm2.24.005c.24-.494.04-1.095-.45-1.342a.996.996 0 00-1.34.448l1.79.894zm1.63-8.026c-.23.502-.01 1.096.49 1.327.5.231 1.09.011 1.33-.491l-1.82-.836zm2.23-.065a.995.995 0 00-.5-1.325.996.996 0 00-1.32.495l1.82.83zm1.37-8.134a.99.99 0 00.53 1.308c.51.212 1.1-.029 1.31-.538l-1.84-.77zm2.23-.157c.21-.51-.04-1.095-.55-1.305a.993.993 0 00-1.3.543l1.85.762zm1.04-8.132a1.003 1.003 0 001.88.701l-1.88-.701zm2.22-.23a.991.991 0 00-.59-1.285.997.997 0 00-1.28.591l1.87.694zm.76-8.201a1.002 1.002 0 001.9.63l-1.9-.63zm2.22-.322c.17-.525-.12-1.09-.64-1.262a.995.995 0 00-1.26.639l1.9.623zm.44-8.195a.996.996 0 00.68 1.24c.53.154 1.08-.151 1.24-.682l-1.92-.558zm2.19-.398a.996.996 0 00-.69-1.236.992.992 0 00-1.23.686l1.92.55zm.13-8.228c-.13.536.2 1.078.73 1.212a.995.995 0 001.21-.729l-1.94-.483zm2.18-.491a1 1 0 10-1.94-.475l1.94.475zm-.19-8.207c-.11.54.23 1.07.78 1.182a.996.996 0 001.18-.775l-1.96-.407zm2.16-.569a1 1 0 00-1.96-.399l1.96.399zm-.52-8.21c-.09.545.28 1.06.83 1.151.54.091 1.06-.277 1.15-.822l-1.98-.329zm2.14-.66a.998.998 0 00-.83-1.148.992.992 0 00-1.14.827l1.97.321zm-.84-8.168a1 1 0 00.86 1.117c.55.069 1.05-.32 1.12-.868l-1.98-.249zm2.1-.74a.995.995 0 00-.87-1.114.993.993 0 00-1.11.873l1.98.241zm-1.17-8.141c-.04.55.36 1.034.91 1.081a1.01 1.01 0 001.09-.912l-2-.169zm2.08-.83a1.006 1.006 0 00-.92-1.077 1.007 1.007 0 00-1.08.917l2 .16zm-1.51-8.074c-.02.552.41 1.019.96 1.043a.996.996 0 001.04-.955l-2-.088zm2.04-.91a.99.99 0 00-.96-1.038.992.992 0 00-1.03.96l1.99.078zm-1.83-8.016c0 .552.45 1.001 1 1.002.55.002 1-.445 1-.997l-2-.005zm2-.998a.998.998 0 00-1-.997c-.55.001-1 .45-1 1.002l2-.005zm-2.17-7.922c.03.552.49.981 1.04.96a.996.996 0 00.96-1.039l-2 .079zm1.96-1.077a.996.996 0 00-1.04-.955c-.55.024-.98.491-.96 1.043l2-.088zm-2.49-7.834c.04.55.52.96 1.07.915.55-.045.96-.527.92-1.078l-1.99.163zm1.91-1.161c-.05-.55-.54-.958-1.09-.91-.55.047-.95.532-.91 1.082l2-.172zm-2.83-7.715c.07.548.57.937 1.12.869a.997.997 0 00.87-1.115l-1.99.246zm1.86-1.238a.998.998 0 10-1.98.256l1.98-.256zm-3.15-7.593a1.004 1.004 0 001.98-.331l-1.98.331zm1.81-1.318c-.1-.544-.61-.909-1.16-.816a.996.996 0 00-.81 1.156l1.97-.34zm-3.47-7.45c.11.54.65.885 1.19.771.54-.115.88-.646.77-1.186l-1.96.415zm1.75-1.394a1.002 1.002 0 00-1.96.424l1.96-.424zm-3.78-7.293c.13.535.68.857 1.21.72a.995.995 0 00.72-1.218l-1.93.498zm1.68-1.467a1.001 1.001 0 00-1.22-.714c-.53.14-.85.687-.71 1.221l1.93-.507zm-4.09-7.132c.16.529.72.828 1.25.667.52-.16.82-.718.66-1.247l-1.91.58zm1.62-1.538a1 1 0 10-1.91.589l1.91-.589zm-4.39-6.938c.18.521.76.795 1.28.613.52-.183.79-.753.61-1.275l-1.89.662zm1.56-1.606c-.19-.52-.76-.792-1.28-.607-.52.185-.79.757-.61 1.277l1.89-.67zm-4.69-6.762a1 1 0 001.3.558c.51-.204.76-.786.56-1.299l-1.86.741zm1.48-1.672a.998.998 0 10-1.85.75l1.85-.75zm-4.96-6.533a1.003 1.003 0 001.83-.819l-1.83.819zm1.41-1.731a.994.994 0 00-1.32-.497c-.5.229-.72.822-.5 1.324l1.82-.827zm-5.24-6.347a1 1 0 001.34.446c.49-.247.69-.848.45-1.342l-1.79.896zm1.34-1.79a1.002 1.002 0 00-1.79.904l1.79-.904zm-5.5-6.086c.27.483.88.657 1.36.389a.991.991 0 00.39-1.359l-1.75.97zm1.27-1.845a1.009 1.009 0 00-1.37-.383 1 1 0 00-.38 1.361l1.75-.978zm-5.77-5.89c.29.471.9.62 1.38.332a.998.998 0 00.33-1.374l-1.71 1.042zm1.19-1.893c-.29-.47-.91-.616-1.38-.327-.47.29-.62.906-.33 1.377l1.71-1.05zm-5.98-5.604c.31.459.93.582 1.39.275a.995.995 0 00.27-1.387l-1.66 1.112zm1.1-1.943a.99.99 0 00-1.38-.269.997.997 0 00-.27 1.388l1.65-1.119zm-6.23-5.401c.33.446.95.544 1.4.219.44-.326.54-.951.22-1.398l-1.62 1.179zm1.03-1.984c-.33-.445-.96-.54-1.4-.212a.992.992 0 00-.21 1.398l1.61-1.186zm-6.41-5.093c.34.433.97.506 1.4.163a.987.987 0 00.16-1.405l-1.56 1.242zm.94-2.025a.993.993 0 00-1.4-.156.988.988 0 00-.16 1.405l1.56-1.249zm-6.65-4.885a1 1 0 001.41.106 1 1 0 00.11-1.41l-1.52 1.304zm.86-2.064a.999.999 0 10-1.51 1.311l1.51-1.311zm-6.79-4.561c.38.405 1.01.428 1.42.052.4-.377.42-1.009.05-1.414l-1.47 1.362zm.79-2.093a1.01 1.01 0 00-1.42-.045c-.4.378-.42 1.011-.04 1.414l1.46-1.369zm-7.02-4.35c.39.389 1.03.387 1.42-.004a1 1 0 00-.01-1.414l-1.41 1.418zm.69-2.129a.995.995 0 00-1.41.009 1 1 0 00.01 1.414l1.4-1.423zm-7.11-4.022a.995.995 0 001.41-.057 1 1 0 00-.05-1.413l-1.36 1.47zm.62-2.145a1 1 0 00-1.35 1.475l1.35-1.475zm-7.32-3.806a1 1 0 101.3-1.52l-1.3 1.52zm.54-2.175a1 1 0 00-1.41.115.999.999 0 00.11 1.41l1.3-1.525zm-7.4-3.49a.994.994 0 001.4-.16.996.996 0 00-.16-1.405l-1.24 1.565zm.46-2.184a.995.995 0 00-1.4.166.996.996 0 00.16 1.405l1.24-1.571zm-7.56-3.257a.99.99 0 001.39-.211.993.993 0 00-.21-1.398l-1.18 1.609zm.37-2.207a1.004 1.004 0 00-1.4.216c-.32.445-.23 1.071.22 1.397l1.18-1.613zm-7.64-2.969a1 1 0 001.39-.259c.31-.455.19-1.077-.26-1.39l-1.13 1.649zm.31-2.209a1 1 0 00-1.39.264c-.31.456-.19 1.078.26 1.389l1.13-1.653zm-7.76-2.714a.997.997 0 001.38-.306 1 1 0 00-.3-1.38l-1.08 1.686zm.23-2.226a.999.999 0 00-1.38.311.993.993 0 00.31 1.38l1.07-1.691zm-7.86-2.464a.99.99 0 001.36-.352.987.987 0 00-.35-1.369l-1.01 1.721zm.16-2.224a1.002 1.002 0 00-1.37.357.997.997 0 00.36 1.368l1.01-1.725zm-7.89-2.179c.48.266 1.09.089 1.36-.396a1 1 0 00-.4-1.357l-.96 1.753zm.08-2.234a.993.993 0 00-1.35.4.99.99 0 00.4 1.356l.95-1.756zm-8.05-1.979a.995.995 0 001.34-.439.994.994 0 00-.44-1.344l-.9 1.783zm.02-2.229a1 1 0 00-.9 1.786l.9-1.786zm-7.97-1.661a1 1 0 001.33-.479c.23-.5.02-1.096-.48-1.331l-.85 1.81zm-.05-2.233a1 1 0 00-1.33.483.994.994 0 00.48 1.329l.85-1.812zm-8.13-1.468c.51.22 1.1-.012 1.32-.519a1.006 1.006 0 00-.52-1.315l-.8 1.834zm-.13-2.236c-.51-.219-1.1.015-1.32.522-.21.508.02 1.096.53 1.314l.79-1.836zm-8.1-1.201a.998.998 0 001.3-.556.995.995 0 00-.55-1.3l-.75 1.856zm-.18-2.223a.99.99 0 00-1.29.56.99.99 0 00.56 1.299l.73-1.859zm-8.15-.978c.52.191 1.1-.074 1.29-.593a1.006 1.006 0 00-.59-1.284l-.7 1.877zm-.25-2.223a.998.998 0 10-.68 1.879l.68-1.879zm-8.25-.777c.53.176 1.09-.105 1.27-.628a.993.993 0 00-.63-1.267l-.64 1.895zm-.29-2.208a.993.993 0 00-1.26.631.99.99 0 00.63 1.266l.63-1.897zm-8.13-.512a1 1 0 00.59-1.911l-.59 1.911zm-.36-2.204a1 1 0 00-1.25.664.997.997 0 00.66 1.249l.59-1.913zm-8.26-.333a.998.998 0 001.23-.693.999.999 0 00-.69-1.233l-.54 1.926zm-.44-2.198a1 1 0 00-1.23.697 1 1 0 00.7 1.23l.53-1.927zm-8.19-.104a.996.996 0 001.21-.724.991.991 0 00-.72-1.215l-.49 1.939zm-.47-2.181a.998.998 0 10-.48 1.94l.48-1.94zm-8.19.098a1.002 1.002 0 00.45-1.95l-.45 1.95zm-.53-2.172a1.004 1.004 0 00-1.2.756c-.12.539.22 1.074.76 1.195l.44-1.951zm-8.31.268a1 1 0 00.4-1.96l-.4 1.96zm-.6-2.161a.995.995 0 00-1.17.784.997.997 0 00.78 1.177l.39-1.961zm-8.09.498c.54.098 1.06-.264 1.16-.807a1.01 1.01 0 00-.81-1.161l-.35 1.968zm-.63-2.142a1.005 1.005 0 00-1.16.81c-.09.544.27 1.063.81 1.159l.35-1.969zm-8.19.661c.54.086 1.05-.287 1.14-.833a.999.999 0 00-.83-1.143l-.31 1.976zm-.69-2.13c-.54-.085-1.05.29-1.14.836-.08.545.29 1.056.84 1.14l.3-1.976zm-8.27.828c.55.073 1.05-.311 1.13-.858a1.002 1.002 0 00-.86-1.124l-.27 1.982zm-.7-2.112a.995.995 0 00-1.12.861.992.992 0 00.86 1.122l.26-1.983zm-8.06 1.027c.55.062 1.04-.332 1.11-.881a1.009 1.009 0 00-.89-1.107l-.22 1.988zm-.76-2.098a1.004 1.004 0 00-1.11.883c-.06.549.34 1.043.89 1.104l.22-1.987zm-8.16 1.179a1 1 0 00.19-1.992l-.19 1.992zm-.82-2.084a.995.995 0 00-1.08.906.995.995 0 00.9 1.086l.18-1.992zm-8.18 1.339a1 1 0 00.15-1.995l-.15 1.995zm-.83-2.065a1.003 1.003 0 00-1.07.927c-.04.551.38 1.029.93 1.068l.14-1.995zm-7.99 1.507a.999.999 0 001.05-.945.997.997 0 00-.94-1.052l-.11 1.997zm-.89-2.049a1 1 0 00-1.05.947c-.02.551.4 1.022.95 1.05l.1-1.997zm-8.07 1.652c.55.019 1.02-.413 1.04-.965a1.012 1.012 0 00-.97-1.034l-.07 1.999zm-.94-2.034a1 1 0 00-.06 1.999l.06-1.999zm-8.11 1.799a1 1 0 10.04-2l-.04 2zm-.94-2.015a1.007 1.007 0 00-1.02.985c0 .552.44 1.006.99 1.015l.03-2zm-7.88 1.943c.55 0 1-.448 1-1 0-.553-.45-1-1.01-1l.01 2zm-1-1.998c-.55.001-1 .45-1 1.002.01.552.45.999 1.01.998l-.01-2zm-7.96 2.079a1 1 0 00.98-1.017.996.996 0 00-1.01-.983l.03 2zm-1.04-1.981c-.55.011-.99.467-.98 1.019.01.552.47.991 1.02.981l-.04-2zm-8.04 2.217c.55-.019.99-.482.97-1.034a1.001 1.001 0 00-1.04-.965l.07 1.999zm-1.08-1.963a.998.998 0 00-.96 1.035c.02.551.48.983 1.03.964l-.07-1.999zm-7.97 2.284c.55-.02.98-.483.96-1.035a.997.997 0 00-1.03-.964l.07 1.999zm-1.08-1.963a.998.998 0 00-.96 1.035c.02.552.48.983 1.03.963l-.07-1.998zm-7.95 2.286c.55-.02.98-.484.96-1.036a.996.996 0 00-1.03-.963l.07 1.999zm-1.08-1.963a1 1 0 10.08 1.999l-.08-1.999zm-7.96 2.29c.55-.02.98-.484.96-1.036a1.005 1.005 0 00-1.04-.963l.08 1.999zm-1.08-1.962a.999.999 0 00-.96 1.036c.02.551.48.983 1.03.962l-.07-1.998zm-7.95 2.293a.999.999 0 10-.08-1.998l.08 1.998zm-1.08-1.961a.999.999 0 00-.96 1.036c.02.552.48.983 1.03.962l-.07-1.998zm-7.97 2.299c.56-.021.99-.485.97-1.037a1.01 1.01 0 00-1.04-.962l.07 1.999zm-1.08-1.961a1 1 0 10.08 1.999l-.08-1.999zm-7.95 2.304a.988.988 0 00.96-1.037.993.993 0 00-1.03-.961l.07 1.998zm-1.08-1.96a1.001 1.001 0 00.08 1.999l-.08-1.999zm-7.96 2.311a.99.99 0 00.96-1.038.992.992 0 00-1.03-.96l.07 1.998zm-1.08-1.959c-.55.022-.98.487-.96 1.039.02.551.49.981 1.04.959l-.08-1.998zm-7.95 2.318a1 1 0 10-.08-1.999l.08 1.999zm-1.08-1.958a1 1 0 10.08 1.998l-.08-1.998zm-7.95 2.325a.99.99 0 00.95-1.04.993.993 0 00-1.04-.958l.09 1.998zm-1.09-1.957a1 1 0 10.08 1.999l-.08-1.999zm-7.95 2.334a.999.999 0 10-.08-1.998l.08 1.998zm-1.08-1.955a.999.999 0 10.08 1.998l-.08-1.998zm-7.95 2.343c.55-.024.98-.491.96-1.043-.03-.551-.5-.979-1.05-.955l.09 1.998zm-1.09-1.954c-.55.024-.98.49-.96 1.042.03.552.49.98 1.05.956l-.09-1.998zm-7.94 2.353a.994.994 0 00.95-1.044.994.994 0 00-1.04-.954l.09 1.998zm-1.1-1.953a1.001 1.001 0 00.09 1.998l-.09-1.998zm-7.93 2.364c.55-.026.97-.494.95-1.045-.03-.552-.5-.979-1.05-.953l.1 1.998zm-1.1-1.952a.997.997 0 00-.95 1.045c.02.552.49.979 1.04.953l-.09-1.998zm-7.94 2.375a.99.99 0 00.95-1.046.99.99 0 00-1.04-.951l.09 1.997zm-1.1-1.949c-.55.026-.97.495-.95 1.046.03.552.5.978 1.05.951l-.1-1.997zm-7.93 2.387a.993.993 0 00.95-1.048.99.99 0 00-1.04-.95l.09 1.998zm-1.1-1.948c-.55.027-.97.496-.95 1.048.03.552.5.977 1.05.949l-.1-1.997zm-7.93 2.4c.55-.028.98-.498.95-1.05-.03-.551-.5-.976-1.05-.948l.1 1.998zm-1.1-1.946c-.55.028-.98.498-.95 1.049.03.552.5.976 1.05.948l-.1-1.997zm-7.92 2.413a1 1 0 00-.11-1.997l.11 1.997zm-1.11-1.945a1 1 0 10.1 1.998l-.1-1.998zm-7.92 2.428c.55-.03.97-.501.94-1.053a.998.998 0 00-1.05-.944l.11 1.997zm-1.12-1.942a.997.997 0 00-.94 1.053c.03.551.5.974 1.05.944l-.11-1.997zm-7.91 2.441a1 1 0 00-.11-1.996l.11 1.996zm-1.11-1.94c-.56.031-.98.504-.95 1.055.04.551.51.973 1.06.942l-.11-1.997zm-7.92 2.458c.55-.032.97-.505.94-1.057a.994.994 0 00-1.05-.94l.11 1.997zm-1.12-1.938c-.55.032-.97.505-.94 1.056.03.552.51.973 1.06.94l-.12-1.996zm-7.9 2.473a1 1 0 10-.12-1.997l.12 1.997zm-1.12-1.936a1 1 0 10.12 1.996l-.12-1.996zm-7.91 2.49c.55-.035.97-.509.94-1.06a1.003 1.003 0 00-1.06-.936l.12 1.996zm-1.13-1.933a.992.992 0 00-.93 1.06c.03.551.51.97 1.06.936l-.13-1.996zm-7.88 2.506c.55-.036.96-.511.93-1.062a1.001 1.001 0 00-1.06-.934l.13 1.996zm-1.14-1.931a1 1 0 00.13 1.996l-.13-1.996zm-7.89 2.525a.998.998 0 00.93-1.065.998.998 0 00-1.06-.931l.13 1.996zm-1.14-1.929a.999.999 0 00-.93 1.065c.04.551.52.968 1.07.931l-.14-1.996zm-7.87 2.542a.992.992 0 00.92-1.066.99.99 0 00-1.06-.929l.14 1.995zm-1.14-1.925a.994.994 0 00-.93 1.067c.04.551.51.966 1.06.928l-.13-1.995zm-7.89 2.561c.55-.039.97-.518.93-1.069a1.002 1.002 0 00-1.07-.926l.14 1.995zm-1.14-1.923c-.55.04-.97.519-.93 1.069.04.551.52.966 1.07.926l-.14-1.995zm-7.87 2.58a.992.992 0 00.92-1.071 1 1 0 00-1.07-.924l.15 1.995zm-1.15-1.92a.998.998 0 00-.92 1.071c.04.551.52.964 1.07.923l-.15-1.994zm-7.867 2.6a1 1 0 00-.153-1.995l.153 1.995zm-1.157-1.918a1 1 0 00.153 1.995l-.153-1.995zm-7.852 2.62a1 1 0 00-.158-1.994l.158 1.994zm-1.159-1.915a1 1 0 00.158 1.994l-.158-1.994zm-7.855 2.64a1 1 0 10-.163-1.993l.163 1.993zm-1.167-1.911a1.001 1.001 0 00.164 1.994l-.164-1.994zm-7.84 2.66a.998.998 0 10-.168-1.992l.168 1.992zm-1.168-1.908a1 1 0 10.169 1.993l-.169-1.993zm-7.84 2.682a1 1 0 10-.173-1.992l.173 1.992zm-1.177-1.905a1.001 1.001 0 00.175 1.993l-.175-1.993zm-7.828 2.703a1 1 0 10-.179-1.992l.179 1.992zm-1.178-1.902a1 1 0 00.18 1.992l-.18-1.992zm-7.822 2.725a1 1 0 10-.185-1.991l.185 1.991zm-1.187-1.898a1 1 0 10.185 1.991l-.185-1.991zm-7.817 2.747a1 1 0 00-.19-1.991l.19 1.991zm-1.189-1.895a1 1 0 10.192 1.991l-.192-1.991zm-7.803 2.768a1 1 0 10-.196-1.99l.196 1.99zm-1.198-1.891a.999.999 0 10.197 1.99l-.197-1.99zm-7.806 2.792a1 1 0 10-.202-1.99l.202 1.99zm-1.199-1.888a1 1 0 10.203 1.989l-.203-1.989zm-7.782 2.813a1 1 0 10-.208-1.989l.208 1.989zm-1.209-1.884a.999.999 0 10.209 1.989l-.209-1.989zm-7.797 2.838a1 1 0 10-.213-1.988l.213 1.988zm-1.209-1.881a1 1 0 10.215 1.988l-.215-1.988zm-7.76 2.858a1 1 0 10-.219-1.988l.219 1.988zm-1.219-1.877a1 1 0 10.22 1.988l-.22-1.988zm-7.789 2.886a1 1 0 10-.226-1.987l.226 1.987zm-1.219-1.874a1 1 0 10.226 1.987l-.226-1.987zm-7.736 2.904a1 1 0 00-.232-1.987l.232 1.987zm-1.23-1.87a1 1 0 10.232 1.986l-.232-1.986zm-7.766 2.932a1.001 1.001 0 00-.238-1.986l.238 1.986zm-1.241-1.866a1 1 0 00.238 1.986l-.238-1.986zm-7.716 2.95a1 1 0 10-.243-1.985l.243 1.985zm-1.24-1.862a1 1 0 10.245 1.985l-.245-1.985zm-7.741 2.978a1 1 0 10-.25-1.985l.25 1.985zm-1.251-1.858a.999.999 0 10.25 1.984l-.25-1.984zm-7.709 2.998a.999.999 0 10-.256-1.983l.256 1.983zm-1.25-1.855a1 1 0 10.256 1.983l-.256-1.983zm-7.715 3.024a1 1 0 00-.262-1.983l.262 1.983zm-1.261-1.851a1 1 0 10.262 1.983l-.262-1.983zm-7.705 3.048a1.001 1.001 0 00-.267-1.982l.267 1.982zm-1.26-1.848a.999.999 0 10.269 1.982l-.269-1.982zm-7.686 3.07a1 1 0 10-.273-1.981l.273 1.981zm-1.271-1.843a1 1 0 00.275 1.981l-.275-1.981zm-7.703 3.097a1 1 0 10-.28-1.981l.28 1.981zm-1.27-1.841a1.001 1.001 0 00.28 1.981l-.28-1.981zm-7.654 3.115a1 1 0 00-.286-1.979l.286 1.979zm-1.281-1.835a1 1 0 10.286 1.979l-.286-1.979zm-7.692 3.145a1 1 0 00-.292-1.979l.292 1.979zm-1.293-1.831a1 1 0 10.293 1.978l-.293-1.978zm-7.622 3.159a1 1 0 00-.298-1.978l.298 1.978zm-1.29-1.828a1 1 0 00.298 1.978l-.298-1.978zm-7.659 3.189a1 1 0 10-.304-1.977l.304 1.977zm-1.302-1.823a1 1 0 00.304 1.977l-.304-1.977zm-7.626 3.209a1 1 0 10-.31-1.976l.31 1.976zm-1.299-1.821a1 1 0 00.31 1.976l-.31-1.976zm-7.624 3.233a1 1 0 10-.316-1.975l.316 1.975zm-1.311-1.816a1 1 0 00.316 1.975l-.316-1.975zm-7.634 3.259a1 1 0 10-.322-1.974l.322 1.974zm-1.308-1.813a1 1 0 00.322 1.974l-.322-1.974zm-7.586 3.275a1 1 0 10-.328-1.973l.328 1.973zm-1.32-1.808a1 1 0 00.328 1.973l-.328-1.973zm-7.627 3.306a1 1 0 10-.333-1.972l.333 1.972zm-1.331-1.803a1 1 0 00.334 1.972l-.334-1.972zm-7.553 3.317a1 1 0 10-.338-1.971l.338 1.971zm-1.327-1.801a1 1 0 00.339 1.971l-.339-1.971zm-7.588 3.348c.544-.096.908-.614.813-1.158a.998.998 0 00-1.157-.812l.344 1.97zm-1.339-1.796a1 1 0 10.346 1.97l-.346-1.97zm-7.569 3.367a1 1 0 10-.35-1.969l.35 1.969zm-1.335-1.793a1 1 0 10.351 1.969l-.351-1.969zm-7.546 3.387a1 1 0 10-.356-1.968l.356 1.968zm-1.346-1.789a1 1 0 10.356 1.968l-.356-1.968zm-7.588 3.418a1 1 0 10-.362-1.967l.362 1.967zm-1.346-1.786a1 1 0 10.362 1.967l-.362-1.967zm-7.502 3.425a1 1 0 10-.367-1.966l.367 1.966zm-1.354-1.781a1 1 0 00.368 1.965l-.368-1.965zm-7.544 3.456a1 1 0 10-.372-1.965l.372 1.965zm-1.365-1.777a1 1 0 00.373 1.965l-.373-1.965zm-7.516 3.474a1 1 0 10-.378-1.964l.378 1.964zm-1.36-1.775a1 1 0 10.379 1.964l-.379-1.964zm-7.498 3.492a1 1 0 00-.383-1.963l.383 1.963zm-1.371-1.769a1 1 0 10.384 1.962l-.384-1.962zm-7.541 3.523a1 1 0 00-.389-1.962l.389 1.962zm-1.344-1.772a1 1 0 10.391 1.961l-.391-1.961zm-7.266 3.525a1 1 0 00-.409-1.958l.409 1.958zm-1.412-1.748a1 1 0 10.41 1.957l-.41-1.957zm-7.513 3.644a1 1 0 00-.421-1.955l.421 1.955zm-1.374-1.749a1 1 0 10.423 1.954l-.423-1.954zm-7.441 3.671a.999.999 0 10-.43-1.953l.43 1.953zm-1.445-1.73a1 1 0 00.431 1.954l-.431-1.954zm-7.37 3.682a1 1 0 00-.435-1.953l.435 1.953zm-1.398-1.738a1 1 0 10.434 1.952l-.434-1.952zm-7.46 3.714a1 1 0 00-.436-1.952l.436 1.952zm-1.446-1.726a1 1 0 10.436 1.952l-.436-1.952zm-7.364 3.697a1 1 0 10-.437-1.952l.437 1.952zm-1.401-1.736a1 1 0 10.437 1.951l-.437-1.951zm-7.423 3.707a1 1 0 00-.435-1.952l.435 1.952zm-1.435-1.729a1 1 0 10.435 1.952l-.435-1.952zm-7.441 3.703a.999.999 0 10-.433-1.952l.433 1.952zm-1.394-1.739a1 1 0 00.433 1.953l-.433-1.953zm-7.372 3.676a1 1 0 10-.429-1.953l.429 1.953zm-1.419-1.736a1.001 1.001 0 00.43 1.954l-.43-1.954zm-7.557 3.701a1 1 0 00-.426-1.954l.426 1.954zm-1.383-1.746a1 1 0 10.425 1.954l-.425-1.954zm-7.326 3.631a1 1 0 10-.421-1.955l.421 1.955zm-1.401-1.744a1 1 0 00.42 1.955l-.42-1.955zm-7.507 3.648a.999.999 0 10-.416-1.956l.416 1.956zm-1.417-1.744a1 1 0 00.415 1.957l-.415-1.957zm-7.422 3.606a1 1 0 00-.409-1.958l.409 1.958zm-1.381-1.755a1 1 0 10.408 1.958l-.408-1.958zm-7.444 3.584a1 1 0 00-.403-1.959l.403 1.959zm-1.392-1.756a1 1 0 10.401 1.959l-.401-1.959zm-7.588 3.584a1 1 0 00-.395-1.961l.395 1.961zm-1.366-1.765a1 1 0 10.394 1.96l-.394-1.96zm-7.405 3.516a1 1 0 10-.388-1.962l.388 1.962zm-1.369-1.769a1 1 0 10.387 1.962l-.387-1.962zm-7.525 3.507a.999.999 0 10-.379-1.963l.379 1.963zm-1.374-1.771a1 1 0 10.379 1.963l-.379-1.963zm-7.559 3.478a1 1 0 00-.371-1.965l.371 1.965zm-1.347-1.781a1 1 0 10.37 1.965l-.37-1.965zm-7.491 3.429a1 1 0 10-.362-1.967l.362 1.967zm-1.349-1.786a1 1 0 00.361 1.967l-.361-1.967zm-7.585 3.408a1 1 0 10-.352-1.969l.352 1.969zm-1.35-1.791a1 1 0 00.352 1.969l-.352-1.969zm-7.569 3.365a1.001 1.001 0 00-.343-1.971l.343 1.971zm-1.326-1.8a1 1 0 10.342 1.971l-.342-1.971zm-7.562 3.321a1 1 0 10-.332-1.972l.332 1.972zm-1.323-1.806a1 1 0 10.33 1.973l-.33-1.973zm-7.638 3.289a1 1 0 10-.321-1.974l.321 1.974zm-1.319-1.812a1 1 0 00.319 1.975l-.319-1.975zm-7.61 3.239a1 1 0 10-.31-1.976l.31 1.976zm-1.298-1.822a1 1 0 00.308 1.976l-.308-1.976zm-7.63 3.194a1.001 1.001 0 00-.298-1.978l.298 1.978zm-1.292-1.829a1 1 0 10.297 1.978l-.297-1.978zm-7.687 3.152a1 1 0 10-.285-1.98l.285 1.98zm-1.284-1.836a1 1 0 10.283 1.98l-.283-1.98zm-7.669 3.097a1 1 0 00-.272-1.982l.272 1.982zm-1.265-1.846a1 1 0 00.271 1.982l-.271-1.982zm-7.697 3.046a.999.999 0 10-.259-1.983l.259 1.983zm-1.255-1.854a1 1 0 00.257 1.984l-.257-1.984zm-7.739 2.995a1 1 0 00-.244-1.985l.244 1.985zm-1.243-1.863a1 1 0 10.242 1.985l-.242-1.985zm-7.74 2.935a1 1 0 10-.23-1.987l.23 1.987zm-1.226-1.872a1 1 0 10.228 1.987l-.228-1.987zm-7.766 2.876a1 1 0 10-.214-1.988l.214 1.988zm-1.212-1.881a1 1 0 10.212 1.988l-.212-1.988zm-7.794 2.814a1 1 0 10-.198-1.99l.198 1.99zm-1.197-1.892a1 1 0 00.196 1.991l-.196-1.991zm-7.819 2.75a1.001 1.001 0 00-.181-1.992l.181 1.992zm-1.181-1.902a1 1 0 10.179 1.992l-.179-1.992zm-7.838 2.68a1 1 0 10-.163-1.993l.163 1.993zm-1.163-1.912a1.001 1.001 0 00.161 1.994l-.161-1.994zm-7.852 2.608a1 1 0 10-.144-1.995l.144 1.995zm-1.143-1.923a1 1 0 10.142 1.995l-.142-1.995zm-7.904 2.534a.999.999 0 10-.125-1.996l.125 1.996zm-1.128-1.934a1 1 0 10.122 1.996l-.122-1.996zm-7.913 2.454a1.001 1.001 0 00-.104-1.998l.104 1.998zm-1.105-1.946a1 1 0 10.102 1.998l-.102-1.998zm-7.914 2.369a1 1 0 10-.083-1.998l.083 1.998zm-1.081-1.957a1 1 0 10.081 1.998l-.081-1.998zm-7.996 2.283a.998.998 0 00.969-1.029.999.999 0 00-1.029-.97l.06 1.999zm-1.066-1.969a1 1 0 10.058 1.999l-.058-1.999zm-7.988 2.189a1 1 0 00-.036-2l.036 2zm-1.037-1.982a1 1 0 00.034 2l-.034-2zm-7.976 2.091a1 1 0 10-.012-2l.012 2zm-1.019-1.995a1 1 0 00.008 2l-.008-2zm-8.084 1.988a.999.999 0 10.014-2l-.014 2zm-.991-2.008a1 1 0 00-.018 2l.018-2zm-8.062 1.879a1 1 0 00.043-2l-.043 2zm-.956-2.022a1 1 0 00-.046 1.999l.046-1.999zm-8.054 1.764a1 1 0 00.072-1.999l-.072 1.999zm-.94-2.036a1 1 0 00-.075 1.998l.075-1.998zm-8.165 1.637a1 1 0 10.103-1.997l-.103 1.997zm-.9-2.05a1 1 0 00-.107 1.997l.107-1.997zm-8.128 1.51a1 1 0 00.137-1.995l-.137 1.995zm-.858-2.064a1 1 0 10-.14 1.995l.14-1.995zm-8.149 1.372a1 1 0 00.17-1.993l-.17 1.993zm-.838-2.081a1.001 1.001 0 00-.175 1.993l.175-1.993zm-8.231 1.219a1 1 0 00.208-1.989l-.208 1.989zm-.79-2.095a1 1 0 00-.212 1.989l.212-1.989zm-8.176 1.069a1 1 0 00.247-1.985l-.247 1.985zm-.738-2.109a1.001 1.001 0 00-.252 1.984l.252-1.984zm-8.255.894a1 1 0 00.289-1.979l-.289 1.979zm-.711-2.126a1 1 0 00-.294 1.978l.294-1.978zm-8.271.713a1 1 0 10.333-1.972l-.333 1.972zm-.652-2.14a.999.999 0 10-.338 1.971l.338-1.971zm-8.197.537a1 1 0 00.38-1.964l-.38 1.964zm-.589-2.153a1 1 0 00-.385 1.963l.385-1.963zm-8.357.302a1 1 0 10.431-1.953l-.431 1.953zm-.551-2.171a1 1 0 10-.437 1.952l.437-1.952zm-8.268.101a1 1 0 00.484-1.941l-.484 1.941zm-.479-2.183a1 1 0 00-.491 1.939l.491-1.939zm-8.255-.131a1 1 0 10.54-1.925l-.54 1.925zm-.434-2.201a1 1 0 00-.548 1.924l.548-1.924zm-8.313-.403a1 1 0 00.601-1.908l-.601 1.908zm-.352-2.21a.999.999 0 10-.608 1.905l.608-1.905zm-8.197-.642a1.001 1.001 0 00.666-1.887l-.666 1.887zm-.264-2.217a1 1 0 00-.673 1.884l.673-1.884zm-8.286-.973a.999.999 0 10.734-1.86l-.734 1.86zm-.201-2.231a1 1 0 00-.741 1.858l.741-1.858zm-8.172-1.256a1 1 0 10.805-1.831l-.805 1.831zm-.103-2.232a1 1 0 10-.813 1.827l.813-1.827zM95.89 541.5a1 1 0 00.88-1.796l-.88 1.796zm-.025-2.242a1 1 0 10-.888 1.792l.888-1.792zm-8.072-1.949a1 1 0 10.96-1.755l-.96 1.755zm.086-2.236a1 1 0 00-.968 1.75l.968-1.75zm-7.902-2.275a1 1 0 001.04-1.708l-1.04 1.708zm.18-2.235a1 1 0 10-1.05 1.702l1.05-1.702zm-7.864-2.711a1 1 0 001.125-1.654l-1.125 1.654zm.3-2.218a.999.999 0 10-1.134 1.647l1.135-1.647zm-7.664-3.078a1 1 0 001.21-1.592l-1.21 1.592zm.422-2.196a1 1 0 00-1.22 1.585l1.22-1.585zm-7.507-3.503a1 1 0 001.297-1.523l-1.297 1.523zm.538-2.173a1 1 0 10-1.306 1.515l1.306-1.515zm-7.294-3.919a1 1 0 101.382-1.446l-1.382 1.446zm.663-2.137a.999.999 0 10-1.391 1.437l1.39-1.437zm-7.042-4.327a1 1 0 001.464-1.362l-1.464 1.362zm.789-2.093a1 1 0 00-1.474 1.352l1.474-1.352zm-6.777-4.746a1 1 0 001.544-1.272l-1.544 1.272zm.91-2.045a1 1 0 10-1.552 1.261l1.553-1.261zm-6.493-5.171a1 1 0 001.618-1.175l-1.618 1.175zm1.041-1.975a1 1 0 00-1.626 1.164l1.626-1.164zm-6.13-5.496a1 1 0 001.687-1.075l-1.686 1.075zm1.153-1.919a1 1 0 00-1.693 1.065l1.693-1.065zm-5.842-5.947a1.001 1.001 0 001.748-.972l-1.748.972zm1.259-1.859a.999.999 0 10-1.755.96l1.755-.96zm-5.41-6.146a1 1 0 101.802-.869l-1.802.869zm1.374-1.762a1 1 0 00-1.807.858l1.807-.858zm-5.096-6.55a1 1 0 001.848-.766l-1.848.766zm1.463-1.701a.999.999 0 10-1.852.754l1.852-.754zm-4.724-6.822a1 1 0 101.887-.664l-1.887.664zm1.565-1.586a1 1 0 10-1.89.653l1.89-.653zm-4.33-6.966a1 1 0 101.919-.567l-1.918.567zm1.638-1.528a1.001 1.001 0 00-1.922.556l1.922-.556zm-4.028-7.378a1 1 0 001.944-.47l-1.944.47zm1.704-1.471a.999.999 0 10-1.946.46l1.946-.46zm-3.613-7.287a1 1 0 101.963-.382l-1.963.382zm1.777-1.347a1 1 0 10-1.965.372l1.965-.372zm-3.312-7.569a1 1 0 101.978-.297l-1.978.297zm1.83-1.298a1 1 0 00-1.98.288l1.98-.288zm-3.02-7.937a1 1 0 001.989-.214l-1.989.214zm1.886-1.187a1 1 0 10-1.99.206l1.99-.206zm-2.67-7.606a1 1 0 101.994-.142l-1.995.142zm1.926-1.126a1 1 0 00-1.995.134l1.995-.134zm-2.407-7.924a1 1 0 001.998-.071l-1.998.071zm1.964-1.087a1 1 0 10-1.999.064l2-.064zM1 378.528a1 1 0 002-.004l-2 .004zm2-1.061a1 1 0 10-2-.006l2 .006zm-1.761-8.459a1 1 0 101.997.109l-1.997-.109zm2.055-.91a1 1 0 00-1.996-.122l1.996.122zm-1.285-8.185a1 1 0 101.986.231l-1.986-.231zm2.102-.739a1 1 0 00-1.985-.245l1.985.245zm-.811-7.927a1 1 0 101.967.361l-1.967-.361zm2.14-.561a1 1 0 10-1.965-.375l1.965.375zm-.157-8.375a1 1 0 001.934.508l-1.934-.508zm2.197-.474a1 1 0 10-1.93-.525l1.93.525zm.485-8.284a1 1 0 001.887.665l-1.887-.665zm2.217-.258a1 1 0 00-1.88-.683l1.88.683zm1.089-7.986a1 1 0 001.822.824l-1.822-.824zm2.22-.043a1 1 0 10-1.815-.841l1.814.841zm1.914-8.09a1 1 0 001.74.988l-1.74-.988zm2.236.125a1 1 0 10-1.729-1.006l1.729 1.006zm2.625-7.815a1 1 0 001.639 1.147l-1.639-1.147zm2.208.344a1 1 0 00-1.627-1.165l1.627 1.165zm3.308-7.488a1 1 0 101.525 1.294l-1.525-1.294zm2.164.549a1 1 0 00-1.512-1.31l1.512 1.31zm3.987-7.161a1 1 0 101.402 1.426l-1.402-1.426zm2.11.737a1 1 0 10-1.389-1.44l1.388 1.44zm4.655-6.831a1 1 0 101.274 1.541l-1.274-1.541zm2.049.907a1 1 0 10-1.26-1.553l1.26 1.553zm5.175-6.403a1 1 0 001.148 1.638l-1.148-1.638zm1.944 1.085a1 1 0 10-1.135-1.647l1.135 1.647zm5.567-5.95a1 1 0 001.028 1.716l-1.028-1.716zm1.88 1.21a1 1 0 00-1.014-1.724l1.014 1.724zm6.133-5.649a1 1 0 10.912 1.78l-.912-1.78zm1.82 1.319a1 1 0 00-.9-1.787l.9 1.787zm6.35-5.202a1 1 0 10.806 1.83l-.807-1.83zm1.692 1.443a1 1 0 10-.796-1.835l.796 1.835zm6.555-4.821a1 1 0 10.711 1.869l-.711-1.869zm1.641 1.518a1 1 0 10-.7-1.873l.7 1.873zm6.995-4.568a1 1 0 00.623 1.901l-.623-1.901zm1.596 1.585a1 1 0 10-.612-1.904l.612 1.904zm7.113-4.232a1 1 0 00.542 1.925l-.542-1.925zm1.47 1.666a1 1 0 00-.534-1.927l.534 1.927zm7.091-3.908a1.001 1.001 0 00.472 1.944l-.472-1.944zm1.435 1.712a1 1 0 00-.465-1.945l.465 1.945zm7.424-3.705a1.001 1.001 0 00.407 1.959l-.407-1.959zm1.402 1.754a1.001 1.001 0 00-.4-1.96l.4 1.96zm7.738-3.505a1 1 0 00.346 1.97l-.346-1.97zm1.29 1.805a1 1 0 10-.341-1.97l.341 1.97zm7.356-3.21a1 1 0 00.296 1.979l-.296-1.979zm1.265 1.835a1 1 0 10-.29-1.979l.29 1.979zm7.61-3.05a1 1 0 00.248 1.985l-.248-1.985zm1.243 1.862a1 1 0 00-.243-1.985l.243 1.985zm7.853-2.893a1 1 0 10.204 1.989l-.204-1.989zm1.223 1.886a1 1 0 10-.199-1.99l.199 1.99zm7.862-2.722a1 1 0 10.163 1.993l-.163-1.993zm1.129 1.915a1 1 0 00-.16-1.994l.16 1.994zm7.674-2.558a1 1 0 00.128 1.996l-.128-1.996zm1.113 1.933a.999.999 0 10-.124-1.996l.124 1.996zm7.863-2.434a.999.999 0 10.095 1.998l-.095-1.998zm1.099 1.951a1 1 0 00-.091-1.998l.091 1.998zm8.043-2.315a1 1 0 10.065 1.999l-.065-1.999zm1.087 1.967a1 1 0 00-.061-1.999l.061 1.999zm8.008-2.196a1 1 0 00.036 2l-.036-2zm1.009 1.983a1.001 1.001 0 00-.033-2l.033 2zm7.835-2.088a1 1 0 10.011 2l-.011-2zm.999 1.995a1 1 0 10-.008-2l.008 2zm7.976-1.993a1.001 1.001 0 00-.012 2l.012-2zm.991 2.007a1 1 0 00.014-2l-.014 2zm8.112-1.901a.998.998 0 10-.034 1.999l.034-1.999zm.982 2.017a1 1 0 10.037-2l-.037 2zm8.194-1.814a1 1 0 10-.054 1.999l.054-1.999zm.92 2.026a1 1 0 10.056-1.999l-.056 1.999zm7.913-1.746a1 1 0 10-.072 1.999l.072-1.999zm.914 2.035a1 1 0 10.074-1.999l-.074 1.999zm8.021-1.673a1 1 0 00-.09 1.998l.09-1.998zm.907 2.043a1 1 0 10.091-1.998l-.091 1.998zm8.125-1.602a1 1 0 10-.106 1.997l.106-1.997zm.902 2.05a1 1 0 10.107-1.997l-.107 1.997zm8.223-1.535a1 1 0 00-.12 1.996l.12-1.996zm.898 2.058a1 1 0 00.122-1.996l-.122 1.996zm8.071-1.488a1 1 0 00-.134 1.996l.134-1.996zm.848 2.062a1 1 0 10.135-1.996l-.135 1.996zm8.037-1.439a.999.999 0 10-.146 1.994l.146-1.994zm.845 2.067a1 1 0 10.147-1.994l-.147 1.994zm8.116-1.385a.999.999 0 10-.158 1.994l.158-1.994zm.841 2.073a1 1 0 00.159-1.994l-.159 1.994zm8.19-1.335a1 1 0 00-.168 1.993l.168-1.993zm.839 2.078a1 1 0 10.169-1.993l-.169 1.993zm8.261-1.286a1 1 0 00-.178 1.992l.178-1.992zm.833 2.083a1 1 0 10.179-1.992l-.179 1.992zm8.045-1.268a1 1 0 00-.188 1.991l.188-1.991zm.798 2.084a1 1 0 00.188-1.991l-.188 1.991zm8.104-1.228a1 1 0 00-.196 1.991l.196-1.991zm.796 2.088a1 1 0 10.197-1.99l-.197 1.99zm8.161-1.19a1 1 0 00-.204 1.99l.204-1.99zm.794 2.092a1 1 0 10.204-1.989l-.204 1.989zm8.213-1.155a1 1 0 00-.21 1.989l.21-1.989zm.793 2.096a1 1 0 00.211-1.989l-.211 1.989zm8.257-1.123a1 1 0 00-.217 1.988l.217-1.988zm.765 2.096a1 1 0 00.218-1.989l-.218 1.989zm8.101-1.115a.999.999 0 10-.223 1.987l.223-1.987zm.764 2.098a1 1 0 10.224-1.987l-.224 1.987zm8.142-1.088a1 1 0 00-.228 1.987l.228-1.987zm.764 2.101a1 1 0 00.228-1.987l-.228 1.987zm8.179-1.064a1 1 0 10-.232 1.986l.232-1.986zm.763 2.103a1 1 0 10.233-1.986l-.233 1.986zm8.215-1.041a1 1 0 10-.237 1.986l.237-1.986zm.762 2.105a1 1 0 00.237-1.986l-.237 1.986zm8.242-1.022a1 1 0 10-.241 1.985l.241-1.985zm.745 2.105a1 1 0 00.241-1.985l-.241 1.985zm8.139-1.02a1 1 0 00-.244 1.985l.244-1.985zm.745 2.106a1 1 0 00.244-1.985l-.244 1.985zm8.164-1.005a1 1 0 10-.246 1.985l.246-1.985zm.745 2.108a1 1 0 00.247-1.985l-.247 1.985zm8.186-.993a1 1 0 00-.249 1.985l.249-1.985zm.745 2.11a1.001 1.001 0 00.249-1.985l-.249 1.985zm8.206-.982a1 1 0 00-.251 1.984l.251-1.984zm.744 2.11a1 1 0 10.251-1.984l-.251 1.984zm8.222-.973a1 1 0 10-.252 1.984l.252-1.984zm.741 2.11a1 1 0 00.253-1.984l-.253 1.984zm8.171-.975a1 1 0 00-.254 1.984l.254-1.984zm.737 2.111a1 1 0 00.253-1.984l-.253 1.984zm8.18-.971a1 1 0 00-.254 1.984l.254-1.984zm.738 2.111a1 1 0 10.254-1.984l-.254 1.984zm8.188-.969a1 1 0 00-.254 1.984l.254-1.984zm.739 2.111a1 1 0 10.253-1.984l-.253 1.984zm8.193-.968a1 1 0 10-.254 1.984l.254-1.984zm.739 2.111a1 1 0 00.253-1.984l-.253 1.984zm8.195-.97a.999.999 0 10-.253 1.984l.253-1.984zm.74 2.11a1 1 0 00.253-1.984l-.253 1.984zm8.198-.974a1 1 0 00-.252 1.984l.252-1.984zm.741 2.11a1 1 0 10.252-1.984l-.252 1.984zm8.194-.98a1 1 0 00-.25 1.985l.25-1.985zm.743 2.11a1 1 0 10.25-1.984l-.25 1.984zm8.187-.988a1 1 0 10-.248 1.984l.248-1.984zm.744 2.108a1 1 0 10.248-1.984l-.248 1.984zm8.179-.998a1 1 0 10-.246 1.985l.246-1.985zm.746 2.107a1 1 0 10.245-1.985l-.245 1.985zm8.166-1.01a1 1 0 10-.242 1.985l.242-1.985zm.748 2.106a1 1 0 10.242-1.985l-.242 1.985zm8.206-1.019a1 1 0 00-.239 1.986l.239-1.986zm.758 2.106a1 1 0 00.239-1.986l-.239 1.986zm8.205-1.033a1 1 0 00-.236 1.986l.236-1.986zm.759 2.104a1 1 0 10.235-1.987l-.235 1.987zm8.185-1.053a1 1 0 00-.232 1.987l.232-1.987zm.761 2.102a1 1 0 10.231-1.986l-.231 1.986zm8.161-1.073a1 1 0 10-.227 1.987l.227-1.987zm.764 2.1a1.001 1.001 0 00.226-1.987l-.226 1.987zm8.134-1.097a1 1 0 10-.221 1.988l.221-1.988zm.767 2.098a1 1 0 10.22-1.988l-.22 1.988zm8.199-1.112a1 1 0 10-.215 1.988l.215-1.988zm.787 2.097a1 1 0 00.215-1.989l-.215 1.989zm8.21-1.136a1.001 1.001 0 00-.209 1.989l.209-1.989zm.79 2.094a.999.999 0 10.208-1.989l-.208 1.989zm8.174-1.166a1 1 0 10-.203 1.99l.203-1.99zm.792 2.091a1 1 0 00.202-1.99l-.202 1.99zm8.135-1.199a1 1 0 10-.195 1.991l.195-1.991zm.795 2.087a.998.998 0 10.194-1.99l-.194 1.99zm8.092-1.234a1.001 1.001 0 00-.187 1.992l.187-1.992zm.799 2.084a1.001 1.001 0 00.186-1.991l-.186 1.991zm8.191-1.258a1 1 0 10-.179 1.992l.179-1.992zm.828 2.081a1 1 0 00.178-1.992l-.178 1.992zm8.205-1.294a1 1 0 10-.169 1.993l.169-1.993zm.832 2.078a1 1 0 00.168-1.993l-.168 1.993zm8.15-1.338a1 1 0 10-.159 1.993l.159-1.993zm.837 2.072a.999.999 0 10.158-1.993l-.158 1.993zm8.091-1.384a1 1 0 10-.148 1.994l.148-1.994zm.842 2.067a.999.999 0 10.147-1.994l-.147 1.994zm8.029-1.433a1 1 0 10-.136 1.995l.136-1.995zm.847 2.062a.999.999 0 10.135-1.995l-.135 1.995zm8.201-1.47a1 1 0 00-.124 1.996l.124-1.996zm.887 2.059a1 1 0 00.123-1.996l-.123 1.996zm8.172-1.525a1 1 0 10-.11 1.997l.11-1.997zm.893 2.052a1 1 0 10.11-1.997l-.11 1.997zm8.095-1.584a1 1 0 10-.096 1.997l.096-1.997zm.899 2.045a1 1 0 10.095-1.998l-.095 1.998zm8.014-1.648a1.001 1.001 0 00-.081 1.999l.081-1.999zm.906 2.039a1 1 0 00.08-1.999l-.08 1.999zm7.951-1.713a1 1 0 00-.066 1.999l.066-1.999zm.958 2.032a1 1 0 10.063-1.999l-.063 1.999zm8.191-1.772a1 1 0 00-.047 1.999l.047-1.999zm.966 2.023a1 1 0 00.045-2l-.045 2zm8.09-1.85a1 1 0 10-.028 2l.028-2zm.974 2.013a.999.999 0 10.027-1.999l-.027 1.999zm7.985-1.929a1 1 0 10-.009 2l.009-2zm.983 2.003a1 1 0 10.006-2l-.006 2zm7.874-2.012a1 1 0 10.013 2l-.013-2zm.993 1.993a1.001 1.001 0 00-.016-2l.016 2zm8.031-2.103a1 1 0 10.036 1.999l-.036-1.999zm1.058 1.98a1 1 0 00-.039-1.999l.039 1.999zm8.056-2.202a1 1 0 10.062 1.999l-.062-1.999zm1.07 1.967a1 1 0 00-.065-1.999l.065 1.999zm7.918-2.305a1 1 0 00.088 1.998l-.088-1.998zm1.082 1.954a1.001 1.001 0 00-.092-1.998l.092 1.998zm7.774-2.41a1 1 0 00.117 1.997l-.117-1.997zm1.096 1.939a1.002 1.002 0 00-.121-1.997l.121 1.997zm7.799-2.53a1 1 0 10.148 1.994l-.148-1.994zm1.174 1.917a1 1 0 00-.152-1.994l.152 1.994zm7.955-2.676a1 1 0 10.183 1.992l-.183-1.992zm1.191 1.898a1 1 0 00-.187-1.991l.187 1.991zm7.772-2.805a1 1 0 10.22 1.987l-.22-1.987zm1.21 1.877a1 1 0 00-.224-1.988l.224 1.988zm7.582-2.938a.999.999 0 10.26 1.983l-.26-1.983zm1.23 1.855a1 1 0 10-.264-1.983l.264 1.983zm7.584-3.105a1 1 0 10.302 1.977l-.302-1.977zm1.322 1.82a1 1 0 00-.307-1.976l.307 1.976zm7.717-3.313a1 1 0 10.35 1.969l-.35-1.969zm1.347 1.79a1 1 0 00-.356-1.968l.356 1.968zm7.474-3.478a1 1 0 00.402 1.959l-.402-1.959zm1.374 1.758a1.001 1.001 0 00-.408-1.958l.408 1.958zm7.222-3.645a1 1 0 00.457 1.947l-.457-1.947zm1.404 1.724a1 1 0 10-.462-1.946l.462 1.946zm7.345-3.918a1 1 0 10.517 1.932l-.517-1.932zm1.509 1.664a1 1 0 10-.525-1.93l.525 1.93zm7.229-4.167a1 1 0 00.584 1.913l-.584-1.913zm1.545 1.617a1 1 0 10-.592-1.91l.592 1.91zm6.906-4.372a1 1 0 00.656 1.889l-.656-1.889zm1.586 1.564a1 1 0 10-.665-1.886l.665 1.886zm6.657-4.613a1 1 0 00.733 1.861l-.733-1.861zm1.696 1.479a1 1 0 10-.742-1.857l.742 1.857zm6.731-5.022a1 1 0 00.819 1.825l-.819-1.825zm1.743 1.407a.999.999 0 10-.828-1.82l.828 1.82zm6.322-5.267a1 1 0 10.91 1.781l-.91-1.781zm1.793 1.327a1 1 0 00-.919-1.776l.919 1.776zm5.9-5.514a1 1 0 101.004 1.73l-1.004-1.73zm1.865 1.227a1 1 0 00-1.014-1.724l1.014 1.724zm5.835-6.007a1 1 0 101.107 1.666l-1.107-1.666zm1.95 1.101a1 1 0 10-1.118-1.658l1.118 1.658zm5.339-6.285a1 1 0 001.212 1.591l-1.212-1.591zm2.006.981a.999.999 0 10-1.224-1.582l1.224 1.582zm4.829-6.563a1 1 0 001.318 1.505l-1.318-1.505zm2.063.848a1 1 0 00-1.33-1.494l1.33 1.494zm4.444-6.975a1 1 0 101.424 1.404l-1.424-1.404zm2.13.683a1 1 0 00-1.436-1.393l1.436 1.393zm3.892-7.266a1 1 0 001.526 1.293l-1.526-1.293zm2.175.521a1 1 0 10-1.537-1.28l1.537 1.28zm3.334-7.557a1.001 1.001 0 001.621 1.171l-1.621-1.171zm2.205.356a1 1 0 00-1.632-1.157l1.632 1.157zm2.67-7.681a1 1 0 001.706 1.043l-1.706-1.043zm2.224.188a1 1 0 10-1.715-1.029l1.715 1.029zm2.13-7.959a1 1 0 101.781.91l-1.781-.91zm2.24.003a1.001 1.001 0 00-1.788-.896l1.788.896zm1.589-8.243a1 1 0 101.844.775l-1.844-.775zm2.238-.173a1 1 0 00-1.851-.759l1.851.759zm.848-7.943a1 1 0 001.892.648l-1.892-.648zm2.209-.288a1 1 0 00-1.898-.633l1.898.633zm.382-8.191a1 1 0 101.93.522l-1.93-.522zm2.192-.461a1 1 0 00-1.934-.508l1.934.508zm-.083-8.45a1 1 0 101.959.4l-1.959-.4zm2.166-.631a1 1 0 00-1.962-.387l1.962.387zm-.647-8.046a.998.998 0 101.978.29l-1.978-.29zm2.116-.665a1 1 0 00-1.98-.28l1.98.28zm-1.07-7.992a1.001 1.001 0 001.991.191l-1.991-.191zm2.084-.804a1 1 0 00-1.992-.18l1.992.18zm-1.441-8.213a1 1 0 001.998.095l-1.998-.095zm2.044-.94a1 1 0 10-1.998-.085l1.998.085zm-1.813-8.445a1 1 0 002 .005l-2-.005zm2-1.06a1 1 0 10-2 .004l2-.004zm-2.159-8.219a1 1 0 001.999-.075l-1.999.075zm1.959-1.09a1 1 0 00-1.999.083l1.999-.083zm-2.472-7.799a.999.999 0 101.993-.158l-1.993.158zm1.914-1.131a1 1 0 10-1.993.167l1.993-.167zm-2.825-7.78a1 1 0 101.984-.25l-1.984.25zm1.852-1.274a1 1 0 00-1.983.261l1.983-.261zm-3.21-7.645a1 1 0 101.968-.353l-1.968.353zm1.79-1.329a1 1 0 10-1.966.365l1.966-.365zm-3.593-7.328a1 1 0 001.946-.463l-1.946.463zm1.701-1.473a1 1 0 10-1.942.477l1.942-.477zm-4.076-7.271a1 1 0 101.912-.587l-1.912.587zm1.615-1.54a1 1 0 10-1.908.6l1.908-.6zm-4.487-6.813a1 1 0 001.868-.715l-1.868.715zm1.494-1.68a1 1 0 00-1.862.73l1.862-.73zm-5.032-6.627a1 1 0 101.809-.853l-1.809.853zm1.377-1.758a1 1 0 10-1.801.869l1.801-.869zm-5.472-6.11a1 1 0 001.736-.993l-1.736.993zm1.223-1.88a1 1 0 00-1.727 1.008l1.727-1.009zm-5.996-5.71a1 1 0 001.647-1.135l-1.647 1.135zm1.074-1.959a1 1 0 10-1.636 1.15l1.636-1.15zm-6.434-5.151a1 1 0 101.544-1.272l-1.544 1.272zm.894-2.053a1 1 0 00-1.532 1.286l1.532-1.286zm-6.863-4.591a1 1 0 101.429-1.4l-1.429 1.4zm.72-2.116a1 1 0 10-1.415 1.412l1.415-1.412zm-7.223-3.986a1 1 0 101.306-1.515l-1.306 1.514zm.538-2.172a1 1 0 00-1.293 1.526l1.293-1.526zm-7.552-3.395a1 1 0 001.18-1.615l-1.18 1.615zm.36-2.209a1 1 0 00-1.166 1.626l1.166-1.626zm-7.748-2.764a.999.999 0 101.053-1.7l-1.053 1.7zm.191-2.23a1 1 0 10-1.04 1.71l1.04-1.71zm-7.994-2.227a1 1 0 00.931-1.77l-.931 1.77zm.048-2.23a1 1 0 00-.918 1.776l.918-1.777zm-8.064-1.658a1 1 0 00.816-1.826l-.816 1.826zm-.112-2.236a1 1 0 00-.803 1.831l.803-1.831zm-8.205-1.184a1 1 0 10.707-1.871l-.707 1.87zm-.225-2.22a1 1 0 10-.695 1.875l.695-1.875zm-8.216-.715a1 1 0 00.608-1.905l-.608 1.905zm-.362-2.211a1 1 0 00-.597 1.908l.597-1.908zm-8.275-.315a1 1 0 00.517-1.932l-.517 1.932zm-.445-2.186a1 1 0 00-.507 1.934l.507-1.934zm-8.253.062a1 1 0 10.434-1.953l-.434 1.953zm-.559-2.171a1 1 0 00-.425 1.954l.425-1.954zm-8.277.387a1 1 0 00.359-1.968l-.359 1.968zm-.619-2.144a1 1 0 00-.351 1.969l.351-1.969zm-8.216.692a1 1 0 10.291-1.98l-.291 1.98zm-.712-2.125a1 1 0 10-.284 1.98l.284-1.98zm-8.256.95a1 1 0 10.229-1.987l-.229 1.987zm-.755-2.1a1 1 0 10-.223 1.988l.223-1.987zm-8.137 1.2a1 1 0 10.174-1.993l-.174 1.993zm-.832-2.08a1 1 0 00-.169 1.994l.169-1.993zm-8.232 1.405a1 1 0 10.123-1.996l-.123 1.996zm-.863-2.056a1 1 0 00-.118 1.997l.118-1.997zm-8.038 1.608a1 1 0 10.078-1.998l-.078 1.998zm-.926-2.037a1 1 0 00-.073 2l.073-2zm-8.139 1.778a1 1 0 10.036-2l-.036 2zm-.985-2.017a1 1 0 10-.033 2l.033-2zm-7.97 1.938a1 1 0 10-.001-2l.001 2zm-1-1.998a1 1 0 00.005 2l-.005-2zm-8.019 2.08a1 1 0 00-.036-1.999l.036 2zm-1.05-1.98a1 1 0 10.039 2l-.039-2zm-7.976 2.211a1 1 0 00-.067-1.998l.067 1.998zm-1.061-1.965a1 1 0 10.07 2l-.07-2zm-7.906 2.328a1 1 0 10-.095-1.997l.095 1.997zm-1.101-1.949a1 1 0 10.098 1.998l-.098-1.998zm-7.973 2.441a1 1 0 10-.121-1.996l.121 1.996zm-1.12-1.935a1 1 0 10.124 1.996l-.124-1.996zm-7.806 2.53a1 1 0 00-.144-1.994l.144 1.994zm-1.143-1.921a1 1 0 00.147 1.994l-.147-1.994zm-7.861 2.625a1 1 0 00-.167-1.993l.167 1.993zm-1.175-1.909a1 1 0 00.169 1.993l-.169-1.993zm-7.818 2.705a1 1 0 00-.186-1.991l.186 1.991zm-1.178-1.898a1 1 0 10.188 1.991l-.188-1.99zm-7.766 2.777a1 1 0 10-.205-1.99l.205 1.99zm-1.205-1.887a1 1 0 00.206 1.99l-.206-1.99zm-7.807 2.85a1 1 0 10-.221-1.987l.221 1.987zm-1.228-1.875a1 1 0 00.222 1.987l-.222-1.987zm-7.697 2.901a1 1 0 00-.236-1.986l.236 1.986zm-1.23-1.867a1 1 0 00.238 1.985l-.238-1.985zm-7.723 2.962a1 1 0 10-.249-1.985l.249 1.985zm-1.248-1.859a1 1 0 00.25 1.984l-.25-1.984zm-7.724 3.015a1 1 0 00-.261-1.983l.261 1.983zm-1.251-1.852a1 1 0 00.263 1.982l-.263-1.982zm-7.66 3.053a1 1 0 00-.272-1.981l.272 1.981zm-1.266-1.844a1 1 0 00.274 1.981l-.274-1.981zm-7.681 3.099a1 1 0 10-.282-1.98l.282 1.98zm-1.279-1.838a1 1 0 00.283 1.98l-.283-1.98zm-7.65 3.133a1 1 0 10-.291-1.98l.291 1.98zm-1.281-1.833a1 1 0 00.292 1.978l-.292-1.978zm-7.632 3.163a1 1 0 10-.299-1.977l.299 1.977zm-1.292-1.827a1 1 0 00.3 1.977l-.3-1.977zm-7.641 3.194a1 1 0 10-.306-1.976l.306 1.976zm-1.3-1.822a1 1 0 10.306 1.976l-.306-1.976zm-7.608 3.214a1 1 0 10-.311-1.976l.311 1.976zm-1.301-1.82a1 1 0 10.312 1.976l-.312-1.976zm-7.608 3.236a1 1 0 00-.317-1.975l.317 1.975zm-1.307-1.816a.999.999 0 10.316 1.975l-.316-1.975zm-7.607 3.253a1 1 0 10-.32-1.975l.32 1.975zm-1.31-1.814a1 1 0 00.32 1.974l-.32-1.974zm-7.597 3.265a1 1 0 00-.323-1.974l.323 1.974zm-1.313-1.812a1 1 0 10.323 1.974l-.323-1.974zm-7.59 3.273a1.001 1.001 0 00-.325-1.973l.325 1.973zm-1.313-1.81a1 1 0 10.325 1.973l-.325-1.973zm-7.593 3.28a1 1 0 10-.326-1.973l.326 1.973zm-1.317-1.81a1 1 0 10.326 1.974l-.326-1.974zm-7.595 3.283a1 1 0 10-.326-1.973l.326 1.973zm-1.315-1.81a1 1 0 10.326 1.974l-.326-1.974zm-7.576 3.278a1 1 0 10-.326-1.973l.326 1.973zm-1.312-1.81a1 1 0 10.325 1.973l-.325-1.974zm-7.609 3.277a1 1 0 00-.324-1.974l.324 1.974zm-1.315-1.811a1 1 0 10.323 1.974l-.323-1.974zm-7.598 3.266a1 1 0 10-.32-1.974l.32 1.974zm-1.308-1.813a1 1 0 00.32 1.974l-.32-1.974zm-7.57 3.248a1 1 0 10-.318-1.974l.318 1.974zm-1.314-1.814a.999.999 0 10.316 1.974l-.316-1.974zm-7.642 3.242a1 1 0 10-.312-1.976l.312 1.976zm-1.304-1.82a1 1 0 00.312 1.977l-.312-1.976zm-7.603 3.215a1.001 1.001 0 00-.307-1.977l.307 1.977zm-1.292-1.824a1 1 0 00.305 1.977l-.305-1.977zm-7.625 3.19a1 1 0 00-.299-1.977l.299 1.978zm-1.297-1.826a1 1 0 00.298 1.978l-.298-1.978zm-7.662 3.164a1 1 0 10-.292-1.978l.292 1.978zm-1.282-1.833a1 1 0 00.29 1.979l-.29-1.979zm-7.611 3.12a1 1 0 00-.281-1.98l.281 1.98zm-1.264-1.84a1 1 0 10.281 1.98l-.281-1.98zm-7.721 3.093a1 1 0 10-.271-1.982l.271 1.982zm-1.268-1.846a1 1 0 10.269 1.982l-.269-1.982zm-7.682 3.04a1 1 0 00-.258-1.984l.258 1.983zm-1.246-1.856a1 1 0 10.257 1.983l-.257-1.983zm-7.68 2.985a1 1 0 10-.244-1.985l.244 1.985zm-1.25-1.862a1 1 0 10.242 1.985l-.242-1.985zm-7.775 2.934a1 1 0 10-.228-1.987l.228 1.987zm-1.222-1.874a1 1 0 10.226 1.988l-.226-1.988zm-7.696 2.856a1 1 0 10-.21-1.989l.21 1.989zm-1.192-1.886a1 1 0 10.208 1.99l-.208-1.99zm-7.855 2.794a1 1 0 00-.19-1.99l.19 1.99zm-1.192-1.896a1.001 1.001 0 00.187 1.992l-.187-1.992zm-7.794 2.7a1 1 0 00-.167-1.992l.167 1.993zm-1.155-1.91a1 1 0 00.165 1.993l-.165-1.993zm-7.843 2.606a1 1 0 00-.141-1.995l.141 1.995zm-1.152-1.924a1 1 0 10.138 1.995l-.138-1.995zm-7.908 2.501a1 1 0 00-.113-1.997l.113 1.997zm-1.106-1.942a1 1 0 00.109 1.997l-.109-1.997zm-7.842 2.375a1 1 0 00-.08-1.999l.08 1.999zm-1.101-1.959a1 1 0 10.077 1.999l-.077-1.999zm-8.032 2.242a1 1 0 00-.043-2l.043 2zm-1.042-1.979a1 1 0 00.039 2l-.039-2zM399.488 50a1 1 0 10-.002-2l.002 2zm-58.059 830.337c.3-.144.609-.29.927-.437l-.841-1.815c-.326.151-.643.301-.952.45l.866 1.802zm8.217-3.483c.309-.119.622-.238.939-.358l-.706-1.871c-.321.121-.637.241-.949.361l.716 1.868zm8.384-3.013l.961-.324-.635-1.897-.968.326.642 1.895zm8.532-2.76l.935-.289-.587-1.912-.94.29.592 1.911zm8.562-2.557l.966-.277-.55-1.923-.969.278.553 1.922zm8.653-2.415l.981-.265-.519-1.931c-.33.088-.658.177-.985.266l.523 1.93zm8.674-2.281l.95-.242-.493-1.938-.952.242.495 1.938zm8.68-2.16l.96-.232-.469-1.944-.962.232.471 1.944zm8.717-2.059l.966-.221-.447-1.95-.968.222.449 1.949zm8.744-1.962l.97-.211-.425-1.955-.973.212.428 1.954zm8.766-1.869l.974-.202-.405-1.959-.976.202.407 1.959zm8.787-1.78l.975-.192-.385-1.963-.977.192.387 1.963zm8.805-1.693l.976-.182-.365-1.966-.979.182.368 1.966zm8.821-1.605l.978-.173-.346-1.97-.98.173.348 1.97zm8.838-1.519l.979-.163-.327-1.973-.981.163.329 1.973zm8.852-1.432l.98-.153-.307-1.976-.983.153.31 1.976zm8.866-1.343l.981-.143-.287-1.98-.984.144.29 1.979zm8.874-1.253l.987-.133-.267-1.982-.989.133.269 1.982zm8.884-1.16l.991-.123-.246-1.985-.993.124.248 1.984zm8.898-1.065l.99-.112-.224-1.988-.993.113.227 1.987zm8.91-.966l.991-.102-.202-1.989-.994.101.205 1.99zm8.921-.865l.992-.089-.179-1.992c-.331.03-.663.059-.994.09l.181 1.991zm8.93-.756l.993-.078-.154-1.994-.995.078.156 1.994zm8.938-.644l.994-.064-.127-1.996-.997.064.13 1.996zm8.944-.525l.995-.05-.1-1.998-.999.051.104 1.997zm8.946-.398l.998-.036-.071-1.999-1.001.036.074 1.999zm8.953-.264l.496-.01-.042-2-.497.011.043 1.999zm.496-.01l.499-.01-.041-2-.5.01.042 2zm8.481-.133l.998-.01-.019-2-1 .01.021 2zm8.982-.048l.998.001.002-2-1.001-.001.001 2zm8.981.045l.998.011.022-2-1-.011-.02 2zm8.981.136l.997.021.043-2-1-.02-.04 1.999zm8.978.224l.998.031.061-1.999-.999-.031-.06 1.999zm8.977.311l.997.039.081-1.998-1-.04-.078 1.999zm8.975.394l.997.049.099-1.998-1-.049-.096 1.998zm8.97.476l.996.058.117-1.997-.998-.058-.115 1.997zm8.965.555l.996.067.134-1.996-.998-.066-.132 1.995zm8.961.633l.996.075.151-1.995-.998-.075-.149 1.995zm8.957.707l.995.083.167-1.993-.997-.083-.165 1.993zm8.95.78l.994.091.183-1.992-.996-.091-.181 1.992zm8.943.85l.994.098.198-1.99-.995-.099-.197 1.991zm8.938.918l.992.106.214-1.989-.994-.106-.212 1.989zm8.93.984l.992.113.228-1.987-.993-.113-.227 1.987zm8.925 1.048l.991.12.242-1.985a336.03 336.03 0 00-.993-.121l-.24 1.986zm8.917 1.109l.991.127.255-1.984-.992-.127-.254 1.984zm8.909 1.168l.989.134.268-1.982-.991-.134-.266 1.982zm8.9 1.226l.989.139.28-1.98-.99-.14-.279 1.981zm8.898 1.281l.988.145.292-1.978-.989-.146-.291 1.979zm8.887 1.333l.987.152.304-1.977-.988-.152-.303 1.977zm8.877 1.384l.986.157.314-1.975-.986-.157-.314 1.975zm8.87 1.433l.986.162.326-1.973-.988-.163-.324 1.974zm8.87 1.48l.985.168.336-1.972-.986-.167-.335 1.971zm8.858 1.525l.983.172.345-1.97-.984-.173-.344 1.971zm8.844 1.565l.982.176.354-1.968-.983-.177-.353 1.969zm8.845 1.607l.983.181.363-1.966-.984-.182-.362 1.967zm8.843 1.647l.981.185.372-1.965-.983-.186-.37 1.966zm8.828 1.681l.98.189.379-1.964-.981-.189-.378 1.964zm8.812 1.714l.978.192.386-1.962-.978-.192-.386 1.962zm8.826 1.75l.981.197.393-1.961-.981-.197-.393 1.961zm8.818 1.78l.979.199.4-1.959-.98-.2-.399 1.96zm8.801 1.806l.977.202.405-1.958-.977-.203-.405 1.959zm8.784 1.829l.98.206.411-1.957-.981-.206-.41 1.957zm8.816 1.862l.978.208.416-1.956-.979-.208-.415 1.956zm8.796 1.881l.976.21.421-1.956-.977-.21-.42 1.956zm8.776 1.897l.973.212.426-1.955-.975-.212-.424 1.955zm8.776 1.916l.978.215.429-1.954-.979-.215-.428 1.954zm8.8 1.938l.976.216.432-1.952-.977-.216-.431 1.952zm8.777 1.948l.974.217.435-1.952a340.06 340.06 0 01-.974-.217l-.435 1.952zm8.755 1.956l.971.217.437-1.951-.971-.218-.437 1.952zm8.782 1.972l.978.22.439-1.952-.978-.22-.439 1.952zm8.788 1.981l.975.22.441-1.951-.975-.22-.441 1.951zm8.763 1.981l.972.22.442-1.951-.973-.22-.441 1.951zm8.737 1.978l.977.222.442-1.951-.977-.221-.442 1.95zm8.805 1.996l.977.221.442-1.95-.977-.222-.442 1.951zm8.78 1.988l.974.22.441-1.95-.973-.221-.442 1.951zm8.752 1.978l.97.219.44-1.951-.97-.219-.44 1.951zm8.765 1.974c.32.074.65.147.98.221l.44-1.952c-.33-.073-.66-.146-.98-.22l-.44 1.951zm8.8 1.976c.33.073.66.145.98.218l.44-1.952-.98-.218-.44 1.952zm8.78 1.956c.32.073.65.145.97.217l.44-1.953-.98-.216-.43 1.952zm8.74 1.936c.33.071.65.143.97.214l.43-1.953c-.32-.072-.64-.143-.97-.214l-.43 1.953zm8.82 1.935c.32.071.65.143.98.214l.42-1.954c-.32-.072-.65-.143-.98-.214l-.42 1.954zm8.81 1.913l.97.211.42-1.955-.97-.211-.42 1.955zm8.77 1.883l.97.207.42-1.956c-.33-.069-.65-.138-.97-.207l-.42 1.956zm8.78 1.859l.98.207.41-1.957c-.32-.069-.65-.138-.98-.207l-.41 1.957zm8.85 1.845c.32.068.65.135.98.203l.4-1.959-.98-.202-.4 1.958zm8.81 1.805l.97.198.4-1.96-.98-.198-.39 1.96zm8.77 1.762c.32.065.64.129.97.193l.39-1.962c-.33-.064-.65-.128-.97-.193l-.39 1.962zm8.87 1.743c.32.064.65.128.98.191l.38-1.963-.98-.191-.38 1.963zm8.85 1.698c.33.062.65.124.98.185l.37-1.965c-.32-.062-.65-.123-.98-.185l-.37 1.965zm8.81 1.644l.98.179.36-1.967-.98-.179-.36 1.967zm8.85 1.601l.99.177.35-1.97-.99-.176-.35 1.969zm8.9 1.558l.99.169.34-1.971-.99-.169-.34 1.971zm8.86 1.491c.33.054.66.108.98.162l.33-1.974c-.33-.053-.66-.107-.98-.161l-.33 1.973zm8.84 1.426l.99.157.31-1.975-.99-.157-.31 1.975zm8.95 1.379c.33.05.66.1 1 .149l.29-1.978-.99-.148-.3 1.977zm8.91 1.3l.99.139.27-1.98c-.32-.047-.65-.093-.98-.139l-.28 1.98zm8.85 1.216l.98.13.26-1.983-.98-.13-.26 1.983zm8.99 1.152l.99.123.25-1.985-1-.123-.24 1.985zm8.95 1.061l.99.112.22-1.987-.98-.112-.23 1.987zm8.89.963l.99.1.2-1.989-.98-.101-.21 1.99zm9 .874l1 .091.18-1.992-1-.091-.18 1.992zm9 .769l.99.079.16-1.994-1-.079-.15 1.994zm8.93.653l.98.065.13-1.995-.98-.065-.13 1.995zm9.01.541l1 .052.1-1.997-1-.053-.1 1.998zm9.02.415l1 .037.07-1.998-.99-.038-.08 1.999zm8.96.279l.99.023.04-2-.99-.022-.04 1.999zm9.02.141l1.01.006.01-2-1-.006-.02 2zm9.04-.01l1-.011-.03-2-.99.011.02 2zm8.95-.167l.99-.029-.05-1.999-.99.029.05 1.999zm9.04-.337c.33-.015.67-.031 1-.048l-.1-1.997-1 .048.1 1.997zm9.01-.513l1-.069-.14-1.995-.99.068.13 1.996zm8.93-.695l.99-.089-.18-1.992-.99.088.18 1.993zm9.01-.9l1-.113-.23-1.987-.99.112.22 1.988zm8.95-1.104l.99-.135-.27-1.982-.99.135.27 1.982zm8.87-1.311l.99-.162-.32-1.974c-.33.055-.66.108-.99.161l.32 1.975zm8.93-1.555l.99-.186-.38-1.965c-.33.062-.65.124-.98.185l.37 1.966zm8.83-1.781c.33-.07.65-.141.98-.212l-.43-1.954c-.32.071-.65.141-.97.211l.42 1.955zm8.77-2.023c.32-.081.65-.161.97-.242l-.48-1.941c-.32.081-.65.161-.97.241l.48 1.942zm8.75-2.289l.96-.27-.54-1.926c-.32.09-.64.18-.96.268l.54 1.928zm8.64-2.542l.95-.298-.6-1.907-.95.296.6 1.909zm8.56-2.814c.32-.109.64-.219.95-.33l-.66-1.887c-.31.11-.63.219-.94.327l.65 1.89zm8.49-3.092l.93-.36-.72-1.865-.93.358.72 1.867zm8.36-3.367c.31-.13.62-.26.92-.391l-.78-1.84c-.31.13-.61.26-.92.389l.78 1.842zm8.25-3.649l.9-.423-.84-1.812c-.3.141-.6.281-.91.42l.85 1.815zm8.12-3.937c.3-.152.6-.303.89-.456l-.91-1.781c-.29.152-.59.302-.88.452l.9 1.785zm7.98-4.222l.87-.484-.97-1.747-.87.48.97 1.751zm7.8-4.487c.29-.172.57-.344.86-.517l-1.03-1.711c-.29.171-.57.342-.86.512l1.03 1.716zm7.68-4.788l.84-.551-1.09-1.673-.84.546 1.09 1.678zm7.47-5.038l.81-.574-1.15-1.633-.81.569 1.15 1.638zm7.27-5.295c.27-.201.54-.404.8-.607l-1.21-1.591c-.26.201-.53.402-.79.602l1.2 1.596zm7.16-5.601l.78-.641-1.26-1.548-.78.637 1.26 1.552zm6.86-5.768c.25-.217.5-.436.75-.655l-1.32-1.503-.75.65 1.32 1.508zm6.69-6.029c.25-.229.49-.459.74-.689l-1.37-1.458c-.25.228-.49.456-.73.683l1.36 1.464zm6.57-6.334c.12-.121.24-.241.37-.362l-1.42-1.414-.36.359 1.41 1.417zm.37-.362c.11-.12.23-.239.35-.359l-1.41-1.412-.36.357 1.42 1.414zm5.97-6.145l.69-.729-1.46-1.37c-.22.242-.45.483-.68.724l1.45 1.375zm6.07-6.604l.66-.74-1.5-1.326c-.22.245-.43.49-.65.735l1.49 1.331zm5.89-6.813c.22-.258.43-.515.65-.772l-1.54-1.28c-.21.255-.42.511-.64.766l1.53 1.286zm5.68-6.989c.21-.261.41-.521.62-.782l-1.58-1.232c-.2.259-.4.518-.61.777l1.57 1.237zm5.44-7.134l.6-.813-1.62-1.181c-.19.269-.39.538-.59.807l1.61 1.187zm5.24-7.357l.57-.823-1.65-1.128c-.19.273-.38.545-.56.817l1.64 1.134zm4.95-7.45c.19-.284.37-.568.55-.852l-1.69-1.073-.54.845 1.68 1.08zm4.76-7.703l.51-.861-1.72-1.015-.51.854 1.72 1.022zm4.45-7.777c.15-.289.31-.579.47-.868l-1.76-.956c-.15.287-.31.575-.47.862l1.76.962zm4.21-8.001l.45-.895-1.79-.894-.45.889 1.79.9zm3.9-8.085c.13-.3.27-.601.41-.901l-1.82-.83c-.14.299-.27.597-.41.895l1.82.836zm3.62-8.265l.39-.927-1.85-.762c-.13.306-.26.613-.38.919l1.84.77zm3.31-8.358c.11-.31.23-.621.34-.931l-1.87-.694c-.12.308-.23.616-.35.924l1.88.701zm3-8.502c.11-.317.21-.635.32-.952l-1.9-.623c-.11.315-.21.63-.32.945l1.9.63zm2.68-8.589l.27-.956-1.92-.55-.27.948 1.92.558zm2.34-8.701l.24-.974-1.94-.475-.24.966 1.94.483zm2.01-8.774c.07-.325.13-.651.2-.976l-1.96-.399c-.07.323-.13.645-.2.968l1.96.407zm1.66-8.857c.05-.33.11-.66.16-.989l-1.97-.321c-.06.327-.11.654-.17.981l1.98.329zm1.3-8.908l.12-.989-1.98-.241-.12.981 1.98.249zm.95-8.961c.02-.333.05-.666.08-.999l-2-.16c-.02.33-.05.66-.08.99l2 .169zm.57-8.985c.02-.333.03-.665.04-.998l-1.99-.078c-.02.33-.03.659-.05.988l2 .088zm.21-9.009v-1.003l-2 .005v.993l2 .005zm-.17-9.004c-.01-.333-.02-.665-.04-.998l-2 .088c.02.33.03.659.04.989l2-.079zm-.54-8.995c-.03-.333-.06-.665-.08-.998l-2 .172.09.989 1.99-.163zm-.92-8.959c-.04-.331-.09-.662-.13-.992l-1.98.256.12.982 1.99-.246zm-1.3-8.916c-.06-.329-.12-.658-.17-.987l-1.97.34c.05.326.11.652.16.978l1.98-.331zm-1.68-8.852l-.21-.979-1.96.424.21.97 1.96-.415zm-2.06-8.77c-.08-.323-.16-.646-.25-.969l-1.93.507c.08.32.16.64.25.96l1.93-.498zm-2.43-8.681c-.09-.319-.19-.639-.29-.958l-1.91.589c.1.316.19.633.29.949l1.91-.58zm-2.79-8.558l-.33-.944-1.89.67.33.936 1.89-.662zm-3.16-8.447c-.13-.31-.25-.621-.38-.931l-1.85.75c.12.307.25.614.37.922l1.86-.741zm-3.51-8.283l-.42-.912-1.82.827c.14.301.28.603.41.904l1.83-.819zm-3.87-8.155l-.45-.894-1.79.904.45.886 1.79-.896zm-4.2-7.95l-.48-.875-1.75.978.48.867 1.75-.97zm-4.54-7.807c-.17-.284-.35-.568-.52-.851l-1.71 1.05c.18.28.35.561.52.843l1.71-1.042zm-4.84-7.567c-.18-.277-.37-.554-.56-.831l-1.65 1.119c.18.274.37.549.55.824l1.66-1.112zm-5.17-7.411c-.2-.268-.4-.537-.59-.805l-1.61 1.186c.19.266.39.532.58.798l1.62-1.179zm-5.44-7.14c-.2-.261-.41-.522-.62-.783l-1.56 1.249c.21.259.41.517.62.776l1.56-1.242zm-5.75-6.972l-.66-.76-1.51 1.311c.22.25.43.501.65.753l1.52-1.304zm-5.98-6.683c-.23-.244-.46-.487-.68-.731l-1.46 1.369c.22.241.45.483.67.724l1.47-1.362zm-6.29-6.499l-.72-.711-1.4 1.423c.24.235.48.47.71.706l1.41-1.418zm-6.47-6.203c-.25-.225-.49-.451-.74-.675l-1.35 1.475c.25.223.49.446.73.67l1.36-1.47zm-6.76-6.001c-.25-.218-.51-.437-.76-.655l-1.3 1.525c.26.216.51.433.76.65l1.3-1.52zm-6.92-5.71l-.78-.619-1.24 1.571.78.613 1.24-1.565zm-7.16-5.485l-.81-.598-1.18 1.613.81.594 1.18-1.609zm-7.32-5.216c-.28-.187-.55-.374-.82-.56l-1.13 1.653c.27.185.55.37.82.556l1.13-1.649zm-7.5-4.96c-.29-.181-.57-.36-.85-.54l-1.07 1.691.84.535 1.08-1.686zm-7.7-4.725c-.28-.168-.56-.336-.85-.503l-1.01 1.725c.28.166.56.332.85.499l1.01-1.721zm-7.78-4.435c-.29-.161-.58-.321-.88-.481l-.95 1.756.87.478.96-1.753zm-8.03-4.243c-.29-.149-.58-.298-.88-.446l-.9 1.786c.29.147.59.295.88.443l.9-1.783zm-8-3.917l-.9-.423-.85 1.812.9.421.85-1.81zm-8.23-3.725l-.93-.402-.79 1.836c.31.133.61.266.92.4l.8-1.834zm-8.28-3.459l-.93-.367-.73 1.859c.3.121.61.242.91.364l.75-1.856zm-8.38-3.222c-.32-.116-.63-.231-.95-.346l-.68 1.879.93.344.7-1.877zm-8.56-3.018l-.93-.313-.63 1.897c.31.103.61.207.92.311l.64-1.895zm-8.47-2.736c-.32-.098-.64-.196-.95-.293l-.59 1.913.95.291.59-1.911zm-8.67-2.552c-.33-.091-.65-.182-.98-.272l-.53 1.927c.32.09.64.18.97.271l.54-1.926zm-8.68-2.315l-.96-.242-.48 1.94c.31.08.63.16.95.241l.49-1.939zm-8.7-2.094l-.98-.222-.44 1.951c.32.073.65.147.97.221l.45-1.95zm-8.89-1.914c-.33-.067-.66-.134-1-.201l-.39 1.961.99.2.4-1.96zm-8.74-1.671l-.98-.174-.35 1.969.98.173.35-1.968zm-8.86-1.489c-.33-.052-.67-.103-1-.154l-.3 1.976.99.154.31-1.976zm-9-1.308c-.32-.044-.65-.087-.97-.13l-.26 1.983.96.129.27-1.982zm-8.81-1.091c-.32-.037-.65-.074-.98-.11l-.22 1.987.98.111.22-1.988zm-8.95-.923l-1.01-.092-.18 1.992c.34.03.67.061 1 .092l.19-1.992zm-9.04-.748l-.98-.07-.14 1.995.97.07.15-1.995zm-8.86-.56l-1-.052-.1 1.997.99.052.11-1.997zm-9-.399l-1.01-.035-.06 1.999 1 .035.07-1.999zm-9.08-.236l-.98-.015-.03 2 .97.015.04-2zm-8.87-.072l-.99.002.01 2 .99-.002-.01-2zm-8.98.081l-1.01.019.04 2 1-.019-.03-2zm-9.12.237l-.51.018.07 1.999.51-.018-.07-1.999zm-.51.018l-.5.018.07 1.999.5-.018-.07-1.999zm-8.54.303l-1.01.036.07 1.998 1.01-.035-.07-1.999zm-9.03.323l-1.01.036.08 1.999 1-.036-.07-1.999zm-9.05.327l-1 .037.07 1.998 1.01-.036-.08-1.999zm-9.03.332l-1 .037.07 1.998 1.01-.037-.08-1.998zm-9.04.337l-1.01.038.08 1.999 1-.038-.07-1.999zm-9.03.344l-1.01.038.08 1.999 1-.039-.07-1.998zm-9.04.351l-1.01.039.08 1.998 1-.039-.07-1.998zm-9.04.358l-1 .041.08 1.998 1-.04-.08-1.999zm-9.04.368l-1 .041.08 1.999 1.01-.042-.09-1.998zm-9.03.377l-1 .043.08 1.998 1-.043-.08-1.998zm-9.04.388l-1 .044.09 1.998 1-.044-.09-1.998zm-9.03.399l-1.01.045.09 1.998 1.01-.045-.09-1.998zm-9.04.411l-1 .046.09 1.998 1.01-.046-.1-1.998zm-9.03.424l-1.01.048.1 1.997 1-.048-.09-1.997zm-9.03.437l-1.01.05.1 1.997 1-.049-.09-1.998zm-9.04.452l-1 .052.1 1.997 1-.051-.1-1.998zm-9.03.468l-1 .052.1 1.998 1.01-.053-.11-1.997zm-9.03.483l-1.01.055.11 1.997 1.01-.055-.11-1.997zm-9.03.5c-.34.018-.67.037-1 .056l.11 1.997 1-.057-.11-1.996zm-9.03.517l-1.01.059.12 1.996 1-.058-.11-1.997zm-9.03.535l-1 .061.12 1.996 1-.06-.12-1.997zm-9.03.555l-1.01.063.13 1.996 1-.063-.12-1.996zm-9.02.573l-1.01.065.13 1.996 1.01-.065-.13-1.996zm-9.03.594l-1.01.067.14 1.996 1-.067-.13-1.996zm-9.02.614l-1 .07.13 1.995 1.01-.07-.14-1.995zm-9.03.636l-1 .072.14 1.995 1-.072-.14-1.995zm-9.02.657l-1 .075.15 1.994 1-.074-.15-1.995zm-9.02.68l-1.004.077.153 1.995 1.004-.077-.153-1.995zm-9.014.703l-1.001.079.158 1.994 1.001-.079-.158-1.994zm-9.019.726l-1.004.082.164 1.994 1.003-.083-.163-1.993zm-9.012.75l-1 .084.169 1.993.999-.085-.168-1.992zm-9.013.774l-1.004.087.175 1.993 1.002-.088-.173-1.992zm-9.011.798l-.999.09.18 1.992.998-.09-.179-1.992zm-9.006.824l-1.002.093.185 1.991 1.002-.093-.185-1.991zm-9.009.849l-.999.096.192 1.991.997-.096-.19-1.991zm-8.998.874l-1.002.099.197 1.99 1.001-.099-.196-1.99zm-9.01.901l-.997.102.203 1.989.996-.101-.202-1.99zm-8.987.926l-1.001.105.209 1.989 1-.105-.208-1.989zm-9.011.955l-.996.107.215 1.988.994-.107-.213-1.988zm-8.975.977l-1 .111.22 1.988.999-.111-.219-1.988zm-9.015 1.01l-.993.113.226 1.987.993-.113-.226-1.987zm-8.961 1.03l-.998.117.232 1.986.998-.116-.232-1.987zm-9.002 1.063l-1.003.12.238 1.986 1.003-.12-.238-1.986zm-8.962 1.085l-.997.123.245 1.985.995-.123-.243-1.985zm-8.988 1.116l-1.001.127.25 1.984 1.001-.126-.25-1.985zm-8.966 1.142l-.994.128.256 1.983.994-.128-.256-1.983zm-8.971 1.169l-.999.132.262 1.983.999-.132-.262-1.983zm-8.971 1.198l-.993.134.269 1.982.991-.134-.267-1.982zm-8.952 1.223l-.998.138.275 1.981.996-.138-.273-1.981zm-8.981 1.254l-.99.14.28 1.981.99-.14-.28-1.981zm-8.93 1.276l-.995.144.286 1.979.995-.144-.286-1.979zm-8.979 1.31l-1.001.148.293 1.978 1-.147-.292-1.979zm-8.921 1.329l-.992.15.298 1.978.992-.15-.298-1.978zm-8.955 1.362l-.998.154.304 1.977.998-.154-.304-1.977zm-8.934 1.387l-.989.155.31 1.976.989-.155-.31-1.976zm-8.929 1.413l-.995.159.316 1.975.995-.159-.316-1.975zm-8.951 1.444l-.986.161.322 1.974.986-.161-.322-1.974zm-8.9 1.463l-.992.165.328 1.973.992-.165-.328-1.973zm-8.952 1.499l-.998.169.334 1.972.997-.169-.333-1.972zm-8.889 1.515l-.989.17.339 1.971.988-.17-.338-1.971zm-8.921 1.548l-.995.174.346 1.97.993-.174-.344-1.97zm-8.914 1.572l-.985.176.351 1.969.984-.176-.35-1.969zm-8.887 1.595l-.99.179.356 1.968.99-.179-.356-1.968zm-8.94 1.63l-.984.181.362 1.967.984-.181-.362-1.967zm-8.853 1.64l-.987.185.368 1.965.986-.184-.367-1.966zm-8.903 1.676l-.993.188.373 1.965.992-.188-.372-1.965zm-8.887 1.698l-.982.189.379 1.964.981-.189-.378-1.964zm-8.863 1.718l-.988.194.384 1.962.987-.193-.383-1.963zm-8.918 1.755l-.497.099.39 1.962.496-.099-.389-1.962zm-.497.099l-.458.091.391 1.961.457-.09-.39-1.962zm-8.133 1.658l-1.003.21.41 1.957 1.002-.209-.409-1.958zm-8.937 1.899l-.953.206.423 1.954.951-.205-.421-1.955zm-8.824 1.924l-1.015.223.431 1.954 1.014-.224-.43-1.953zm-8.82 1.952l-.963.215.434 1.952.964-.214-.435-1.953zm-8.859 1.977l-1.01.226.436 1.952 1.01-.226-.436-1.952zm-8.811 1.971l-.964.216.437 1.951.964-.215-.437-1.952zm-8.822 1.971l-1 .223.435 1.952 1-.223-.435-1.952zm-8.874 1.974l-.961.213.433 1.953.961-.214-.433-1.952zm-8.762 1.936l-.99.217.43 1.954.989-.218-.429-1.953zm-8.973 1.964l-.957.208.425 1.954.958-.208-.426-1.954zm-8.704 1.884l-.98.211.42 1.955.981-.211-.421-1.955zm-8.903 1.903l-1.001.212.415 1.957 1.002-.213-.416-1.956zm-8.832 1.86l-.972.203.408 1.958.973-.203-.409-1.958zm-8.819 1.828l-.989.203.401 1.959.991-.203-.403-1.959zm-8.972 1.826l-.971.196.394 1.96.972-.195-.395-1.961zm-8.764 1.75l-.981.193.387 1.962.982-.193-.388-1.962zm-8.885 1.737l-.995.192.379 1.963.995-.192-.379-1.963zm-8.925 1.705l-.976.184.37 1.965.977-.184-.371-1.965zm-8.829 1.646l-.987.181.361 1.967.988-.181-.362-1.967zm-8.924 1.62l-.998.178.352 1.969.998-.178-.352-1.969zm-8.91 1.572l-.983.171.342 1.971.984-.171-.343-1.971zm-8.877 1.52l-.991.166.33 1.973.993-.167-.332-1.972zm-8.95 1.481l-.998.162.319 1.975 1-.163-.321-1.974zm-8.918 1.425l-.988.154.308 1.976.99-.154-.31-1.976zm-8.916 1.37l-.994.149.297 1.978.995-.149-.298-1.978zm-8.966 1.321l-.999.144.283 1.98 1.001-.144-.285-1.98zm-8.94 1.259l-.993.136.271 1.982.994-.136-.272-1.982zm-8.949 1.199l-.996.129.257 1.984.998-.13-.259-1.983zm-8.979 1.139l-.999.122.242 1.985 1.001-.122-.244-1.985zm-8.969 1.07l-.996.115.228 1.987.998-.115-.23-1.987zm-8.976 1.003l-.998.107.212 1.988 1-.107-.214-1.988zm-8.99.931l-.999.098.196 1.991 1.001-.099-.198-1.99zm-8.999.856l-1 .09.179 1.992 1.002-.09-.181-1.992zm-9.001.777l-1 .081.161 1.994 1.002-.082-.163-1.993zm-8.996.694l-.999.072.142 1.995 1.001-.072-.144-1.995zm-9.028.61l-1.003.062.122 1.996 1.006-.062-.125-1.996zm-9.02.518l-1.001.052.102 1.998 1.003-.052-.104-1.998zm-8.998.423l-.998.041.081 1.998 1-.041-.083-1.998zm-9.054.325l-1.006.03.058 1.999 1.008-.03-.06-1.999zm-9.03.219l-1.001.018.034 2 1.003-.018-.036-2zm-8.989.109l-1.007.005.008 2 1.011-.005-.012-2zm-9.077-.007l-1.005-.008-.018 2 1.009.008.014-2zm-9.024-.129l-.999-.022-.046 1.999 1.002.023.043-2zm-8.981-.257a330 330 0 01-1.012-.037l-.075 1.998 1.015.038.072-1.999zm-9.074-.397l-1.003-.053-.107 1.997 1.007.053.103-1.997zm-8.994-.538l-.995-.069-.14 1.995.998.069.137-1.995zm-8.974-.69l-1.008-.088-.175 1.993 1.013.088.17-1.993zm-9.031-.858l-.998-.106-.212 1.989 1.002.106.208-1.989zm-8.927-1.022l-.985-.124-.252 1.984.99.125.247-1.985zm-8.951-1.209l-1-.147-.294 1.978 1.005.148.289-1.979zm-8.938-1.406l-.985-.168-.338 1.971.99.169.333-1.972zm-8.802-1.595l-.969-.189-.385 1.963.974.19.38-1.964zm-8.895-1.84l-.982-.218-.437 1.952.988.219.431-1.953zm-8.766-2.058l-.963-.242-.491 1.939.97.244.484-1.941zm-8.678-2.298l-.974-.276-.548 1.924.982.277.54-1.925zm-8.686-2.587l-.953-.302-.608 1.905.96.305.601-1.908zm-8.484-2.831c-.311-.109-.621-.219-.93-.33l-.673 1.884.937.333.666-1.887zm-8.482-3.163l-.935-.371-.741 1.858c.314.125.628.25.942.373l.734-1.86zm-8.302-3.458a249.04 249.04 0 01-.908-.401l-.813 1.827c.305.136.61.271.916.405l.805-1.831zm-8.14-3.779l-.905-.446-.888 1.792.913.45.88-1.796zm-8.017-4.15l-.874-.481-.968 1.75c.293.163.588.324.882.486l.96-1.755zm-7.736-4.464a229.1 229.1 0 01-.86-.527l-1.05 1.702c.29.179.58.356.87.533l1.04-1.708zm-7.599-4.892c-.275-.187-.55-.376-.824-.564l-1.135 1.647.834.571 1.125-1.654zm-7.279-5.234l-.788-.604-1.22 1.585c.266.205.531.408.798.611l1.21-1.592zm-6.998-5.63l-.76-.65-1.305 1.515c.255.22.511.439.768.658l1.297-1.523zm-6.671-6.015l-.72-.691-1.39 1.437.728.7 1.382-1.446zm-6.297-6.38a185.4 185.4 0 01-.675-.731l-1.474 1.352c.228.248.456.495.685.741l1.464-1.362zm-5.909-6.749l-.632-.773-1.553 1.261c.213.262.427.523.642.784l1.544-1.272zm-5.508-7.119c-.193-.266-.385-.532-.577-.8l-1.626 1.164c.194.271.389.542.585.811l1.618-1.175zm-5.02-7.371c-.179-.281-.357-.562-.534-.844l-1.693 1.065.54.854 1.687-1.075zm-4.628-7.763l-.49-.887-1.754.96.496.899 1.748-.972zm-4.097-7.902c-.144-.297-.286-.595-.428-.893l-1.807.858c.144.302.288.604.433.904l1.802-.869zm-3.676-8.209c-.13-.311-.257-.623-.385-.935l-1.852.754c.129.316.258.632.389.947l1.848-.766zm-3.222-8.421c-.108-.306-.215-.614-.322-.922l-1.89.653c.107.312.216.623.325.933l1.887-.664zm-2.733-8.455c-.095-.319-.189-.64-.281-.961l-1.922.556c.094.325.19.649.285.972l1.918-.567zm-2.365-8.809a201.8 201.8 0 01-.24-1.001l-1.946.46c.08.338.16.675.242 1.011l1.944-.47zm-1.89-8.67c-.063-.321-.125-.643-.186-.965l-1.965.372c.062.326.124.651.188.975l1.963-.382zm-1.52-8.831c-.05-.333-.1-.666-.148-1.001l-1.98.288.15 1.01 1.978-.297zm-1.18-9.152l-.102-.973-1.99.206.104.981 1.989-.214zm-.778-8.721l-.068-.984-1.995.134.068.992 1.995-.142zm-.477-8.979a266.42 266.42 0 01-.034-1.016l-1.999.064c.01.342.022.682.035 1.023l1.998-.071zM3 378.524l-.001-.523h-2v.527l2-.004zm-.001-.523v-.534l-2-.006v.54h2zm.237-8.884c.018-.341.038-.68.058-1.019l-1.996-.122-.06 1.032 1.998.109zm.76-8.973c.037-.324.076-.647.115-.97l-1.985-.245c-.04.327-.08.655-.117.984l1.986.231zm1.271-8.536c.057-.308.114-.616.173-.922l-1.965-.375c-.06.311-.118.623-.175.936l1.967.361zm1.95-8.789c.086-.329.174-.656.263-.982l-1.93-.525c-.09.332-.18.665-.267.999l1.934.508zm2.635-8.601c.108-.308.219-.616.33-.923l-1.88-.683c-.113.313-.226.627-.337.941l1.887.665zm3.241-8.085c.131-.29.264-.579.397-.867l-1.814-.841c-.136.294-.272.589-.405.884l1.822.824zm4.051-7.969c.165-.289.33-.577.497-.863l-1.729-1.006c-.17.292-.339.586-.507.881l1.74.988zm4.76-7.531c.19-.269.379-.537.57-.803l-1.627-1.165c-.195.273-.388.546-.58.821l1.638 1.147zm5.403-6.997c.212-.249.425-.498.639-.745l-1.512-1.31c-.218.253-.436.506-.652.761l1.525 1.294zm6.028-6.48c.234-.231.47-.46.707-.689l-1.388-1.44c-.241.233-.482.467-.721.703l1.402 1.426zm6.637-5.979c.257-.212.515-.423.775-.634l-1.26-1.553c-.264.214-.527.429-.789.646l1.274 1.541zm7.098-5.399c.264-.185.53-.369.796-.553l-1.135-1.647c-.27.186-.54.374-.809.562l1.148 1.638zm7.39-4.787c.284-.17.568-.338.853-.506l-1.014-1.724c-.29.17-.578.342-.866.514l1.028 1.716zm7.898-4.375c.302-.155.604-.309.908-.461l-.9-1.787a132.2 132.2 0 00-.92.468l.912 1.78zm8.064-3.833l.886-.387-.796-1.835c-.3.13-.599.261-.897.392l.807 1.83zm8.152-3.339l.93-.351-.7-1.873-.941.355.711 1.869zm8.548-3.018c.323-.106.648-.212.973-.316l-.612-1.904-.984.319.623 1.901zm8.628-2.623l.928-.259-.534-1.927c-.313.086-.625.174-.936.261l.542 1.925zm8.491-2.223l.963-.232-.465-1.945-.97.233.472 1.944zm8.794-1.978c.331-.069.663-.138.995-.205l-.4-1.96-1.002.206.407 1.959zm9.079-1.74l.944-.165-.341-1.97c-.317.054-.633.11-.949.165l.346 1.97zm8.596-1.396c.322-.049.646-.096.969-.144l-.29-1.979-.975.144.296 1.979zm8.827-1.209l.995-.123-.243-1.985-1 .123.248 1.985zm9.052-1.027l1.019-.103-.199-1.99-1.024.104.204 1.989zm9.044-.832c.322-.026.643-.053.966-.078l-.16-1.994-.969.079.163 1.993zm8.768-.64l.985-.063-.124-1.996-.989.063.128 1.996zm8.943-.499l1.004-.047-.091-1.998-1.008.047.095 1.998zm9.112-.363l1.022-.032-.061-1.999-1.026.032.065 1.999zm9.066-.228l.973-.017-.033-2-.976.017.036 2zm8.819-.105l.988-.005-.008-2-.991.005.011 2zm8.952.002l1.003.007.014-2-1.005-.007-.012 2zm9.081.105l1.016.018.037-2-1.019-.017-.034 1.999zm9.156.203l.974.027.056-1.999c-.325-.01-.651-.019-.976-.027l-.054 1.999zm8.815.28l.986.036.074-1.999-.988-.036-.072 1.999zm8.917.361l.997.045.091-1.998-.998-.045-.09 1.998zm9.016.44l1.008.053.107-1.997-1.009-.053-.106 1.997zm9.111.514l1.018.062.122-1.996-1.02-.062-.12 1.996zm8.955.57c.328.021.655.043.982.066l.135-1.996-.983-.066-.134 1.996zm8.873.621l.991.073.147-1.994a330.69 330.69 0 00-.992-.073l-.146 1.994zm8.949.682l.999.079.159-1.994-1-.079-.158 1.994zm9.021.737l1.007.085.169-1.993-1.008-.085-.168 1.993zm9.09.791l1.011.091.179-1.992-1.012-.091-.178 1.992zm8.868.814l.986.093.188-1.991-.986-.093-.188 1.991zm8.894.856l.992.097.197-1.99-.993-.098-.196 1.991zm8.949.897l.998.102.204-1.989-.998-.103-.204 1.99zm9.001.936l1.003.107.211-1.989-1.004-.107-.21 1.989zm9.043.972l.982.108.218-1.989-.983-.107-.217 1.988zm8.86.98l.987.111.224-1.987-.988-.111-.223 1.987zm8.901 1.01l.992.114.228-1.987-.992-.114-.228 1.987zm8.939 1.036l.995.117.233-1.986-.996-.117-.232 1.986zm8.973 1.062l.999.119.237-1.986-.999-.119-.237 1.986zm9 1.082l.986.12.241-1.985-.986-.12-.241 1.985zm8.881 1.085l.989.121.244-1.985-.989-.121-.244 1.985zm8.907 1.101l.991.123.247-1.985-.992-.123-.246 1.985zm8.928 1.115l.994.125.249-1.985-.994-.125-.249 1.985zm8.949 1.127l.995.126.251-1.984-.995-.126-.251 1.984zm8.965 1.137l.993.126.253-1.984-.994-.126-.252 1.984zm8.91 1.135l.991.127.253-1.984-.99-.127-.254 1.984zm8.917 1.14l.992.127.254-1.984-.992-.127-.254 1.984zm8.926 1.142l.993.127.253-1.984-.992-.127-.254 1.984zm8.932 1.143l.993.127.253-1.984-.992-.127-.254 1.984zm8.935 1.141l.993.126.253-1.984-.993-.126-.253 1.984zm8.939 1.136l.993.126.252-1.984-.993-.126-.252 1.984zm8.937 1.131l.993.125.25-1.984-.993-.126-.25 1.985zm8.932 1.121l.992.124.248-1.984-.992-.124-.248 1.984zm8.925 1.111l.992.122.245-1.985-.991-.122-.246 1.985zm8.916 1.097l.99.121.242-1.985-.99-.121-.242 1.985zm8.957 1.088l.997.12.239-1.986-.997-.12-.239 1.986zm8.966 1.073l.995.118.235-1.987-.994-.117-.236 1.986zm8.948 1.052l.993.115.231-1.986-.992-.116-.232 1.987zm8.927 1.029l.991.113.226-1.987-.99-.113-.227 1.987zm8.904 1.004l.988.11.22-1.988-.987-.11-.221 1.988zm8.972.986l1.002.109.215-1.989-1.002-.108-.215 1.988zm9.003.962l.999.105.208-1.989-.998-.105-.209 1.989zm8.97.929l.995.101.202-1.99-.994-.101-.203 1.99zm8.935.893l.99.096.194-1.99-.989-.097-.195 1.991zm8.895.854l.986.092.186-1.991-.985-.093-.187 1.992zm8.998.826l1.007.089.178-1.992-1.006-.089-.179 1.992zm9.043.788l1.001.085.168-1.993-1-.085-.169 1.993zm8.992.74l.996.079.158-1.993-.995-.079-.159 1.993zm8.939.689l.99.073.147-1.994-.989-.073-.148 1.994zm8.883.635l.983.067.135-1.995-.982-.067-.136 1.995zm9.06.593l1.011.063.123-1.996-1.01-.063-.124 1.996zm9.073.535l1.003.055.11-1.997-1.003-.055-.11 1.997zm9.002.468l.995.048.095-1.998-.994-.047-.096 1.997zm8.928.399l.987.04.08-1.999-.986-.04-.081 1.999zm8.872.326l1.024.033.063-1.999c-.34-.01-.681-.021-1.021-.033l-.066 1.999zm9.168.26l1.013.024.045-2-1.011-.023-.047 1.999zm9.075.174l1.002.013.027-1.999-1.001-.014-.028 2zm8.978.084l.992.003.006-2-.989-.003-.009 2zm8.879-.009l.98-.007-.016-2-.977.007.013 2zm9.047-.111l1.022-.019-.039-1.999-1.019.019.036 1.999zm9.14-.222l1.008-.032-.065-1.999-1.005.032.062 1.999zm9.014-.339l.994-.044-.092-1.998-.99.044.088 1.998zm8.885-.457l.979-.058-.121-1.997-.975.058.117 1.997zm8.926-.594l1.026-.077-.152-1.994-1.022.077.148 1.994zm9.164-.761l1.008-.094-.187-1.991-1.004.093.183 1.992zm9-.912l.99-.11-.224-1.988-.986.111.22 1.987zm8.832-1.065l.97-.128-.264-1.983-.966.128.26 1.983zm8.856-1.256l1.02-.157-.307-1.976-1.015.156.302 1.977zm9.087-1.501l.997-.179-.356-1.968-.991.178.35 1.969zm8.873-1.698l.972-.201-.408-1.958-.966.2.402 1.959zm8.651-1.899l.947-.223-.462-1.946c-.314.074-.627.149-.942.222l.457 1.947zm8.809-2.209l.992-.268-.525-1.93-.984.266.517 1.932zm8.805-2.522l.961-.296-.592-1.91-.953.293.584 1.913zm8.523-2.779c.311-.107.621-.216.93-.325l-.665-1.886-.921.322.656 1.889zm8.32-3.077l.963-.382-.742-1.857-.954.378.733 1.861zm8.513-3.579c.309-.139.617-.278.924-.418l-.828-1.82c-.304.138-.609.276-.915.413l.819 1.825zm8.156-3.904l.883-.454-.919-1.776-.874.449.91 1.781zm7.787-4.238c.288-.167.575-.335.861-.503l-1.014-1.724-.851.497 1.004 1.73zm7.803-4.844c.282-.188.563-.376.843-.565l-1.118-1.658c-.276.186-.553.372-.832.557l1.107 1.666zm7.394-5.259l.794-.61-1.224-1.582c-.26.201-.52.401-.782.601l1.212 1.591zm6.941-5.668c.249-.218.497-.437.745-.657l-1.33-1.494c-.243.216-.487.432-.733.646l1.318 1.505zm6.613-6.228c.236-.239.471-.479.706-.721l-1.436-1.393c-.23.238-.461.474-.694.71l1.424 1.404zm6.124-6.694c.218-.256.434-.514.649-.772l-1.537-1.28c-.212.254-.424.507-.638.759l1.526 1.293zm5.604-7.158c.196-.27.39-.542.584-.815l-1.632-1.157c-.19.268-.381.535-.573.801l1.621 1.171zm4.96-7.453c.174-.284.346-.569.518-.855l-1.715-1.029c-.169.281-.338.561-.509.841l1.706 1.043zm4.429-7.904c.154-.301.307-.603.459-.907l-1.788-.896c-.15.299-.3.596-.452.893l1.781.91zm3.892-8.375l.394-.948-1.851-.759c-.128.312-.257.622-.387.932l1.844.775zm3.134-8.243c.107-.311.212-.623.317-.936l-1.898-.633c-.102.308-.206.615-.311.921l1.892.648zm2.629-8.605c.089-.327.176-.654.262-.983l-1.934-.508c-.085.324-.171.647-.258.969l1.93.522zm2.138-9.033c.07-.343.139-.686.207-1.031l-1.962-.387c-.067.34-.135.68-.204 1.018l1.959.4zm1.538-8.787c.047-.317.093-.636.138-.955l-1.98-.28-.136.945 1.978.29zm1.059-8.756c.032-.331.063-.663.093-.995l-1.992-.18c-.03.329-.06.657-.092.984l1.991.191zm.65-9.113c.016-.344.032-.689.046-1.035l-1.998-.085c-.014.342-.03.684-.046 1.025l1.998.095zm.233-9.475l.001-.537h-2l-.001.532 2 .005zm.001-.537l-.001-.528-2 .004.001.524h2zm-.161-8.822l-.04-1.015-1.999.083c.014.335.028.67.04 1.007l1.999-.075zm-.519-8.972c-.025-.325-.052-.649-.079-.973l-1.993.167.079.964 1.993-.158zm-.92-9.003c-.043-.342-.087-.684-.132-1.024l-1.983.261.131 1.013 1.984-.25zm-1.374-9.022c-.058-.326-.118-.652-.178-.976l-1.966.365.176.964 1.968-.353zm-1.825-8.767c-.081-.338-.162-.675-.245-1.01l-1.942.477c.081.33.162.663.241.996l1.946-.463zm-2.409-8.867c-.098-.32-.197-.638-.297-.955l-1.908.6c.099.313.196.626.293.941l1.912-.587zm-2.916-8.482c-.124-.323-.248-.645-.374-.966l-1.862.73c.124.316.246.633.368.95l1.868-.714zm-3.597-8.445c-.143-.303-.287-.604-.432-.905l-1.801.869c.142.295.283.592.424.89l1.809-.854zm-4.168-8.008c-.17-.297-.341-.593-.513-.888l-1.727 1.01c.169.289.337.58.504.871l1.736-.993zm-4.862-7.732c-.19-.276-.381-.55-.573-.824l-1.636 1.15c.188.269.376.538.562.809l1.647-1.135zm-5.463-7.246c-.216-.262-.432-.523-.65-.782l-1.532 1.286c.214.255.426.51.638.767l1.544-1.272zm-6.084-6.772c-.235-.24-.471-.48-.709-.717l-1.415 1.412c.233.234.464.468.695.704l1.429-1.4zm-6.626-6.218c-.255-.22-.511-.44-.768-.657l-1.293 1.526c.253.214.504.43.755.645l1.306-1.514zm-7.14-5.667c-.273-.2-.546-.397-.82-.594l-1.166 1.626c.27.193.539.387.806.583l1.18-1.615zm-7.515-5.058c-.286-.177-.573-.354-.862-.53l-1.04 1.71c.284.172.567.346.849.52l1.053-1.7zm-7.925-4.527c-.294-.155-.588-.308-.883-.46l-.918 1.776c.291.15.581.302.87.454l.931-1.77zm-8.131-3.944c-.309-.138-.618-.275-.928-.41l-.803 1.831c.306.134.611.27.915.405l.816-1.826zm-8.426-3.465l-.932-.349-.695 1.875c.307.114.614.23.92.345l.707-1.871zm-8.54-2.969c-.322-.103-.646-.205-.97-.306l-.597 1.908c.321.1.64.202.959.303l.608-1.905zm-8.728-2.553c-.32-.086-.641-.17-.962-.254l-.507 1.934c.318.083.636.167.952.252l.517-1.932zm-8.781-2.145l-.993-.218-.425 1.954.984.217.434-1.953zm-8.911-1.799c-.326-.06-.651-.118-.978-.176l-.351 1.969.97.175.359-1.968zm-8.903-1.463c-.334-.05-.668-.098-1.003-.146l-.284 1.98c.332.047.664.096.996.145l.291-1.98zm-9.03-1.183l-.984-.112-.223 1.987.978.112.229-1.987zm-8.947-.906l-1.006-.086-.169 1.993 1.001.086.174-1.993zm-9.115-.678l-.986-.06-.118 1.997.981.059.123-1.996zm-8.946-.45l-1.004-.039-.073 2c.333.011.666.024.999.037l.078-1.998zm-9.107-.26c-.34-.007-.681-.013-1.021-.018l-.033 2c.34.005.679.01 1.018.017l.036-2zm-8.992-.08l-.999.002.005 2 .995-.002-.001-2zm-9.054.083l-1.014.019.039 2 1.011-.02-.036-1.999zm-9.057.232l-.994.033.07 2 .991-.035-.067-1.998zm-8.995.364l-1.006.048.098 1.998 1.003-.049-.095-1.997zm-9.1.493l-.999.061.124 1.996.996-.06-.121-1.997zm-8.949.597a745.2 745.2 0 00-.999.073l.147 1.994.996-.073-.144-1.994zm-9.027.705l-1.008.084.169 1.993 1.006-.084-.167-1.993zm-9.012.798l-.992.093.188 1.991.99-.093-.186-1.991zm-8.963.88l-1 .103.206 1.99c.333-.035.666-.07.999-.103l-.205-1.99zm-9.028.966l-1.007.112.222 1.987 1.006-.112-.221-1.987zm-8.94 1.027l-.994.119.238 1.985.992-.118-.236-1.986zm-8.966 1.096l-.999.126.25 1.984.998-.125-.249-1.985zm-8.984 1.158l-.99.13.263 1.983.988-.13-.261-1.983zm-8.922 1.203l-.994.137.274 1.981.992-.137-.272-1.981zm-8.957 1.256l-.997.142.283 1.98.996-.142-.282-1.98zm-8.938 1.296l-.99.146.292 1.978.989-.145-.291-1.98zm-8.921 1.332l-.993.15.3 1.977.992-.15-.299-1.977zm-8.94 1.368c-.331.05-.663.102-.994.154l.306 1.976.994-.154-.306-1.976zm-8.913 1.392l-.99.156.312 1.976.989-.156-.311-1.976zm-8.915 1.417l-.99.159.316 1.975.991-.16-.317-1.974zm-8.917 1.437l-.99.161.32 1.974.99-.16-.32-1.975zm-8.91 1.452l-.99.162.323 1.974.99-.162-.323-1.974zm-8.905 1.462l-.988.163.325 1.973.988-.163-.325-1.973zm-8.907 1.47l-.991.163.326 1.974.991-.164-.326-1.973zm-8.912 1.473l-.989.163.326 1.974.989-.164-.326-1.973zm-8.891 1.468l-.986.162.325 1.974.987-.163-.326-1.973zm-8.919 1.466l-.991.163.323 1.974.992-.163-.324-1.974zm-8.909 1.455l-.988.16.32 1.975.988-.16-.32-1.975zm-8.876 1.435l-.996.16.316 1.974.998-.16-.318-1.974zm-8.95 1.426l-.992.157.312 1.976.992-.157-.312-1.976zm-8.902 1.394l-.985.153.305 1.977.987-.153-.307-1.977zm-8.909 1.366l-.998.15.298 1.979.999-.151-.299-1.978zm-8.952 1.337l-.99.145.29 1.979.992-.146-.292-1.978zm-8.882 1.285l-.983.14.281 1.98.983-.14-.281-1.98zm-8.975 1.251l-.997.136.269 1.982.999-.136-.271-1.982zm-8.937 1.192l-.988.128.257 1.983.989-.128-.258-1.983zm-8.912 1.128c-.336.04-.671.082-1.006.123l.242 1.985 1.008-.123-.244-1.985zm-9.009 1.07l-.994.113.226 1.988.996-.114-.228-1.987zm-8.9.98l-.982.103.208 1.99.984-.104-.21-1.989zm-9.027.906l-1.002.095.187 1.992 1.005-.096-.19-1.99zm-8.963.803l-.988.082.165 1.993.99-.082-.167-1.993zm-8.972.694l-1.011.07.138 1.995 1.014-.07-.141-1.995zm-9.032.574l-.993.055.109 1.997.997-.055-.113-1.997zm-8.915.431l-1.021.04.077 1.999 1.024-.04-.08-1.999zm-9.096.283a489.9 489.9 0 01-.999.02l.039 2 1.003-.02-.043-2zm-8.893.103h-.488v2h.49l-.002-2z" fill="#67AEFE"></path> </svg> 