<?xml version="1.0" encoding="UTF-8"?>
<svg xmlns="http://www.w3.org/2000/svg" width="321" height="90" viewBox="0 0 321 90" fill="none"> <path d="M32.2925 89.1543C26.3103 89.6777 21.0128 89.052 16.3999 87.2775C11.7826 85.4526 8.11667 82.6327 5.40212 78.8178C2.68756 75.0029 1.09718 70.4311 0.630984 65.1024C-0.0155353 57.7127 0.792949 51.0314 3.05644 45.0587C5.3702 39.0816 8.77858 34.3257 13.2816 30.7912C17.7802 27.2063 22.9451 25.1588 28.7765 24.6486C34.2057 24.1736 38.451 25.2205 41.5125 27.7894C44.5695 30.308 46.2981 33.8546 46.6984 38.4292C46.9666 41.4957 46.6292 44.0073 45.686 45.964C44.793 47.9164 43.3411 48.9806 41.3303 49.1565C39.9227 49.2796 38.7882 49.0496 37.9267 48.4665C37.0652 47.8833 36.5795 46.9634 36.4695 45.7066C36.4299 45.2542 36.4579 44.4159 36.5534 43.1919C36.7231 41.6574 36.7684 40.4377 36.6892 39.5328C36.289 34.9582 33.6508 32.8842 28.7745 33.3108C25.4567 33.6011 22.3842 34.959 19.5571 37.3845C16.73 39.81 14.5712 43.2155 13.0806 47.6009C11.5856 51.9361 11.091 56.9942 11.5968 62.7753C12.1246 68.8078 14.2177 73.3356 17.8761 76.3588C21.5301 79.3317 26.6498 80.53 33.2352 79.9539C36.5028 79.668 39.7603 78.9778 43.0078 77.8832C46.3011 76.7339 49.909 75.1265 53.8313 73.0611C54.559 72.6935 55.1742 72.4877 55.6769 72.4437C56.4812 72.3734 57.1108 72.6222 57.5658 73.1903C58.0207 73.7583 58.29 74.5199 58.3735 75.4751C58.6418 78.5416 57.1808 80.9489 53.9905 82.697C50.5577 84.5676 46.9388 86.0493 43.134 87.142C39.375 88.1801 35.7612 88.8508 32.2925 89.1543ZM89.1095 60.4768C89.763 60.4197 90.2943 60.7024 90.7033 61.3252C91.1124 61.9479 91.3609 62.762 91.4489 63.7674C91.66 66.1803 91.0564 67.6768 89.6382 68.2568C86.7143 69.5764 83.4492 70.4699 79.8429 70.9374C79.2573 75.2436 77.669 78.8018 75.0781 81.6119C72.4829 84.3717 69.4007 85.9077 65.8315 86.22C62.8153 86.4839 60.1626 85.9815 57.8734 84.7127C55.6345 83.4396 53.8565 81.645 52.5395 79.3287C51.2224 77.0125 50.4407 74.4468 50.1944 71.6317C49.8602 67.8111 50.2922 64.3541 51.4906 61.2606C52.6845 58.1169 54.4909 55.6034 56.9095 53.7201C59.3238 51.7866 62.0893 50.6836 65.206 50.4109C69.0266 50.0766 72.2096 51.1405 74.7552 53.6025C77.3466 56.0099 79.0127 59.1314 79.7535 62.967C82.103 62.6095 84.8742 61.8605 88.067 60.72C88.4603 60.5843 88.8078 60.5032 89.1095 60.4768ZM65.7354 78.1742C67.3441 78.0335 68.6694 77.259 69.7112 75.8508C70.8034 74.4383 71.4428 72.4828 71.6294 69.9843C69.9787 69.065 68.6512 67.7881 67.6471 66.1537C66.6932 64.5149 66.1328 62.7403 65.9656 60.83C65.8953 60.0257 65.9003 59.2148 65.9807 58.3973L65.6037 58.4302C63.5929 58.6062 61.9946 59.7338 60.8088 61.8131C59.6689 63.8377 59.2529 66.6095 59.5608 70.1284C59.8027 72.8933 60.5152 74.9584 61.6984 76.3239C62.9319 77.685 64.2776 78.3018 65.7354 78.1742ZM92.0856 83.9231C90.1753 84.0902 88.7301 83.2035 87.7498 81.2631C86.8198 79.3182 86.1613 76.1339 85.7743 71.7101C85.2025 65.175 85.5894 58.8852 86.9348 52.8409C87.2597 51.3434 87.8963 50.224 88.8445 49.4825C89.8386 48.6864 91.2656 48.2069 93.1257 48.0442C94.1311 47.9562 94.8458 48.0203 95.27 48.2365C95.6941 48.4527 95.937 48.9127 95.9986 49.6164C96.069 50.4208 95.8503 52.2635 95.3425 55.1446C95.0157 57.1994 94.7675 58.994 94.5978 60.5285C94.4237 62.0128 94.3329 63.8696 94.3253 66.0991C95.3396 62.0593 96.658 58.6007 98.2805 55.7234C99.9533 52.8416 101.713 50.6615 103.559 49.1829C105.451 47.6497 107.277 46.8061 109.036 46.6522C110.796 46.4983 112.063 46.7927 112.837 47.5354C113.661 48.2738 114.146 49.4724 114.291 51.1314C114.432 52.74 114.209 55.6975 113.624 60.0037C113.38 61.8487 113.222 63.2302 113.15 64.1482C115.123 57.7451 117.519 53.0018 120.34 49.9183C123.16 46.8349 125.902 45.1766 128.566 44.9435C131.834 44.6577 133.611 46.1485 133.897 49.4161C134.068 51.3766 133.825 54.9691 133.168 60.1934C132.595 64.6505 132.371 67.5828 132.494 68.9904C132.67 71.0012 133.487 71.9429 134.944 71.8153C135.95 71.7273 137.078 71.0207 138.33 69.6955C139.628 68.3156 141.312 66.1421 143.382 63.1749C143.924 62.4183 144.572 62.007 145.326 61.9411C145.98 61.8839 146.509 62.1415 146.913 62.714C147.368 63.2821 147.642 64.0939 147.734 65.1496C147.91 67.1604 147.569 68.7606 146.711 69.9501C144.782 72.8035 142.636 75.1948 140.272 77.1239C137.958 79.0486 135.218 80.1495 132.051 80.4266C129.487 80.6509 127.488 80.0913 126.053 78.7478C124.614 77.354 123.771 75.2496 123.525 72.4345C123.402 71.0269 123.534 68.4826 123.921 64.8015C124.298 61.5773 124.433 59.362 124.327 58.1555C124.257 57.3512 123.945 56.9732 123.392 57.0216C122.739 57.0787 121.884 58.0147 120.827 59.8294C119.765 61.5939 118.752 63.9114 117.788 66.7818C116.823 69.6522 116.098 72.6537 115.612 75.7861C115.27 78.2475 114.758 79.9133 114.074 80.7836C113.441 81.6495 112.32 82.1528 110.711 82.2936C109.052 82.4387 107.727 81.7695 106.736 80.2859C105.791 78.7476 105.22 76.8474 105.022 74.5852C104.854 72.6749 104.864 69.888 105.05 66.2246C105.171 62.9721 105.187 60.8432 105.099 59.8378C105.029 59.0334 104.717 58.6555 104.164 58.7038C103.41 58.7698 102.534 59.7582 101.536 61.6691C100.538 63.58 99.6094 65.9914 98.7497 68.9033C97.9403 71.8108 97.3276 74.6504 96.9116 77.4222C96.5654 79.8333 96.0526 81.4991 95.3733 82.4197C94.7399 83.2856 93.644 83.7867 92.0856 83.9231ZM148.198 79.0139C146.288 79.181 144.842 78.2943 143.862 76.3539C142.932 74.4091 142.274 71.2247 141.887 66.8009C141.315 60.2658 141.702 53.976 143.047 47.9317C143.372 46.4342 144.009 45.3148 144.957 44.5733C145.951 43.7772 147.378 43.2977 149.238 43.135C150.243 43.047 150.958 43.1111 151.382 43.3273C151.807 43.5435 152.049 44.0035 152.111 44.7072C152.181 45.5116 151.963 47.3543 151.455 50.2354C151.128 52.2902 150.88 54.0848 150.71 55.6193C150.536 57.1036 150.445 58.9604 150.438 61.1899C151.452 57.1501 152.77 53.6915 154.393 50.8142C156.066 47.9324 157.825 45.7523 159.671 44.2737C161.563 42.7405 163.389 41.8969 165.149 41.743C166.908 41.5891 168.175 41.8835 168.949 42.6262C169.774 43.3646 170.258 44.5632 170.403 46.2222C170.544 47.8308 170.322 50.7883 169.736 55.0945C169.492 56.9395 169.334 58.321 169.263 59.239C171.235 52.8359 173.632 48.0926 176.452 45.0091C179.272 41.9257 182.014 40.2675 184.679 40.0344C187.946 39.7485 189.723 41.2393 190.009 44.5069C190.18 46.4674 189.938 50.0599 189.28 55.2842C188.708 59.7413 188.483 62.6736 188.606 64.0812C188.782 66.092 189.599 67.0337 191.057 66.9061C192.062 66.8182 193.191 66.1116 194.442 64.7863C195.74 63.4064 197.424 61.2329 199.495 58.2657C200.036 57.5091 200.684 57.0979 201.438 57.0319C202.092 56.9747 202.621 57.2324 203.026 57.8048C203.481 58.3729 203.754 59.1847 203.847 60.2404C204.022 62.2512 203.681 63.8514 202.823 65.0409C200.894 67.8944 198.748 70.2856 196.384 72.2147C194.07 74.1394 191.33 75.2403 188.163 75.5174C185.599 75.7417 183.6 75.1821 182.165 73.8386C180.726 72.4448 179.884 70.3404 179.638 67.5253C179.514 66.1177 179.646 63.5734 180.034 59.8923C180.41 56.6681 180.545 54.4528 180.44 53.2463C180.369 52.442 180.058 52.064 179.505 52.1124C178.851 52.1695 177.996 53.1055 176.939 54.9203C175.878 56.6847 174.865 59.0022 173.9 61.8726C172.936 64.743 172.21 67.7445 171.725 70.8769C171.383 73.3383 170.87 75.0041 170.186 75.8744C169.553 76.7403 168.432 77.2436 166.823 77.3844C165.164 77.5295 163.839 76.8603 162.848 75.3767C161.903 73.8384 161.332 71.9382 161.134 69.676C160.967 67.7657 160.976 64.9789 161.162 61.3154C161.283 58.0629 161.299 55.934 161.211 54.9286C161.141 54.1242 160.829 53.7463 160.276 53.7946C159.522 53.8606 158.646 54.849 157.648 56.7599C156.651 58.6708 155.722 61.0822 154.862 63.9941C154.053 66.9016 153.44 69.7413 153.024 72.513C152.678 74.9241 152.165 76.5899 151.486 77.5105C150.852 78.3764 149.756 78.8775 148.198 79.0139ZM231.083 54.4383C231.737 54.3811 232.266 54.6388 232.671 55.2112C233.126 55.7793 233.399 56.5911 233.492 57.6468C233.667 59.6576 233.326 61.2578 232.468 62.4473C230.806 64.8722 228.349 67.1893 225.098 69.3987C221.897 71.6036 218.361 72.8754 214.49 73.2141C209.212 73.6759 204.989 72.6016 201.823 69.9913C198.657 67.381 196.856 63.5874 196.42 58.6106C196.117 55.142 196.564 51.8609 197.763 48.7674C198.957 45.6236 200.759 43.0599 203.168 41.0761C205.628 39.088 208.492 37.9509 211.76 37.6651C214.676 37.41 217.09 38.0852 219.004 39.6907C220.913 41.246 221.997 43.5066 222.256 46.4725C222.56 49.9412 221.565 53.0422 219.271 55.7757C217.023 58.4544 212.997 60.7822 207.193 62.759C208.652 64.9615 211.141 65.9088 214.66 65.6009C216.922 65.403 219.418 64.3995 222.147 62.5905C224.922 60.7267 227.253 58.4206 229.14 55.6721C229.681 54.9155 230.329 54.5043 231.083 54.4383ZM211.125 45.167C209.265 45.3297 207.776 46.549 206.658 48.825C205.59 51.0966 205.19 53.7656 205.459 56.8321L205.472 56.9829C208.376 56.0197 210.621 54.7595 212.207 53.2024C213.794 51.6453 214.505 49.9367 214.342 48.0767C214.259 47.1216 213.916 46.3917 213.315 45.8871C212.76 45.3278 212.029 45.0878 211.125 45.167ZM233.913 71.5148C232.003 71.6819 230.557 70.7953 229.577 68.8548C228.647 66.91 227.989 63.7256 227.602 59.3019C227.03 52.7667 227.417 46.4769 228.762 40.4326C229.087 38.9352 229.724 37.8157 230.672 37.0742C231.666 36.2781 233.093 35.7987 234.953 35.6359C235.958 35.548 236.673 35.6121 237.097 35.8282C237.522 36.0444 237.764 36.5044 237.826 37.2082C237.896 38.0125 237.678 39.8552 237.17 42.7363C236.843 44.7911 236.595 46.5858 236.425 48.1203C236.255 49.6548 236.167 51.5368 236.159 53.7662C237.44 49.2979 238.992 45.6162 240.816 42.7213C242.639 39.8264 244.481 37.715 246.34 36.3873C248.25 35.0551 250.034 34.3165 251.693 34.1714C254.961 33.8855 256.737 35.3763 257.023 38.6439C257.195 40.6045 256.952 44.1969 256.295 49.4212C255.722 53.8783 255.497 56.8106 255.62 58.2182C255.796 60.229 256.613 61.1707 258.071 61.0431C259.077 60.9552 260.205 60.2486 261.457 58.9233C262.754 57.5434 264.439 55.3699 266.509 52.4027C267.051 51.6461 267.699 51.2349 268.453 51.1689C269.106 51.1117 269.635 51.3694 270.04 51.9418C270.495 52.5099 270.769 53.3217 270.861 54.3774C271.037 56.3882 270.696 57.9884 269.837 59.1779C267.909 62.0314 265.762 64.4226 263.398 66.3517C261.085 68.2764 258.344 69.3773 255.177 69.6544C252.614 69.8787 250.614 69.3191 249.18 67.9756C247.741 66.5819 246.898 64.4774 246.652 61.6623C246.529 60.2547 246.661 57.7104 247.048 54.0293C247.424 50.8051 247.56 48.5898 247.454 47.3833C247.384 46.579 247.072 46.201 246.519 46.2494C245.866 46.3066 245.01 47.2425 243.953 49.0573C242.942 50.8173 241.929 53.1348 240.915 56.0096C239.95 58.88 239.225 61.8815 238.739 65.0139C238.393 67.425 237.88 69.0909 237.201 70.0114C236.567 70.8773 235.471 71.3784 233.913 71.5148ZM298.094 48.5756C298.748 48.5184 299.277 48.7761 299.681 49.3485C300.136 49.9166 300.41 50.7284 300.502 51.7841C300.678 53.7949 300.337 55.3951 299.479 56.5846C297.55 59.4381 295.379 61.8315 292.965 63.765C290.55 65.6985 287.684 66.8104 284.366 67.1007C274.111 67.9979 268.353 61.2327 267.09 46.8051C266.897 44.5932 266.776 42.3496 266.729 40.0742L263.789 40.3315C262.28 40.4634 261.226 40.2771 260.624 39.7725C260.073 39.2635 259.745 38.4058 259.639 37.1993C259.393 34.3842 260.401 32.8776 262.663 32.6797L266.961 32.3037C267.332 26.6992 268.197 21.5327 269.556 16.8041C270.916 12.0756 272.708 8.24625 274.934 5.31614C277.21 2.38164 279.781 0.789047 282.646 0.538356C284.757 0.353637 286.498 1.1385 287.867 2.89295C289.236 4.6474 290.044 6.93219 290.29 9.74733C290.972 17.5392 288.298 24.6116 282.269 30.9645L290.714 30.2256C291.518 30.1552 292.112 30.2806 292.495 30.6017C292.877 30.9228 293.11 31.5609 293.194 32.5161C293.497 35.9847 290.809 37.9675 285.128 38.4645L275.929 39.2694C276.048 41.7917 276.169 43.7566 276.293 45.1642C276.75 50.3923 277.674 54.0093 279.065 56.0151C280.507 58.0165 282.56 58.9006 285.224 58.6675C287.386 58.4784 289.239 57.6578 290.783 56.2056C292.328 54.7534 294.117 52.6214 296.151 49.8094C296.692 49.0528 297.34 48.6416 298.094 48.5756ZM281.243 7.95541C280.489 8.02138 279.718 9.05129 278.93 11.0451C278.188 12.9843 277.537 15.6753 276.977 19.1182C276.463 22.5064 276.108 26.2607 275.911 30.3809C278.653 27.5577 280.614 24.4987 281.795 21.2042C283.021 17.8549 283.52 14.8733 283.292 12.2592C283.032 9.29325 282.349 7.85865 281.243 7.95541ZM309.741 66.5524C307.126 66.7811 305.063 66.3537 303.55 65.2704C302.087 64.1827 301.29 62.8847 301.158 61.3766C301.043 60.0696 301.422 58.8967 302.293 57.858C303.165 56.8193 304.531 56.2186 306.391 56.0559C307.044 55.9987 307.805 56.0081 308.673 56.0842C309.586 56.1056 310.272 56.1216 310.728 56.1323C310.564 54.8296 310.154 53.6244 309.5 52.5166C308.896 51.4043 308.146 50.3556 307.25 49.3702C306.348 48.3347 305.511 47.4455 304.737 46.7027C303.438 49.805 302.095 52.4046 300.708 54.5015C299.371 56.594 297.875 58.5991 296.219 60.5169C295.394 61.501 294.478 62.037 293.473 62.1249C292.668 62.1953 291.991 61.976 291.44 61.467C290.884 60.9077 290.569 60.2008 290.494 59.3462C290.406 58.3408 290.677 57.38 291.306 56.4638L292.181 55.1716C294.646 51.5113 296.486 48.5136 297.7 46.1786C298.478 44.6416 299.231 42.8281 299.96 40.7381C300.739 38.6437 301.731 35.7962 302.936 32.1956C303.697 29.9002 305.586 28.6205 308.602 28.3566C310.01 28.2335 311.001 28.2734 311.576 28.4764C312.151 28.6793 312.463 29.0573 312.511 29.6103C312.538 29.9119 312.479 30.3983 312.335 31.0694C312.191 31.7405 311.972 32.4182 311.677 33.1025C310.93 34.9914 310.612 36.5642 310.722 37.821C310.788 38.575 311.112 39.3825 311.694 40.2434C312.326 41.0999 313.254 42.1584 314.479 43.4189C316.272 45.3896 317.637 47.0937 318.574 48.5315C319.556 49.9146 320.124 51.4858 320.278 53.2453C320.462 55.3566 320.136 57.4114 319.297 59.4097C318.505 61.3532 317.28 62.9801 315.621 64.2903C313.963 65.6004 312.003 66.3544 309.741 66.5524Z" fill="#FF9A03"/> </svg>