<?xml version="1.0" encoding="UTF-8"?> <svg xmlns="http://www.w3.org/2000/svg" width="1920" height="478" viewBox="0 0 1920 478" fill="none"> <path d="M1025.99 359.217C1001.06 337.165 940.936 314.214 897 318.5C876.5 320.5 931.733 356.352 959.838 364.011C984.83 370.822 1045.39 376.38 1025.99 359.217Z" fill="#BFE535"></path> <path d="M401.837 286.351C374.033 237.454 305.001 184.722 246.517 173.217C204.456 164.943 261.341 246.305 296.373 271.011C330.385 294.998 422.41 322.531 401.837 286.351Z" fill="#BFE535"></path> <path d="M1505.38 330.838C1515.73 321.442 1529.35 299.39 1534.52 286.543C1528.58 286.159 1506.14 284.05 1500.01 284.05C1439.61 284.05 1375.94 314.155 1333.76 350.78C1388.02 366.312 1463.57 372.64 1505.38 330.838Z" fill="#BFE535"></path> <path d="M1878.91 154.041C1849.96 146.563 1808.92 140.619 1777.47 142.345C1730.69 145.029 1668.94 169.957 1630.97 191.625C1708.83 214.636 1826.18 212.334 1878.91 154.041Z" fill="#BFE535"></path> <path d="M1886.97 156.918C1892.08 125.981 1903.53 97.0449 1920 71.6108V478H0V0.692871C71.3443 26.3502 122.453 94.673 122.453 174.943C122.453 176.215 122.403 177.436 122.354 178.633C122.307 179.783 122.261 180.911 122.261 182.038C146.805 173.026 173.267 168.04 200.88 168.04C216.795 168.04 232.327 169.766 247.284 172.834C268.76 238.03 332.806 279.065 400.303 285.201C407.781 298.432 413.918 312.43 418.52 327.004C430.984 322.593 444.215 320.1 458.021 320.1C490.811 320.1 520.532 333.715 541.817 355.575C570.388 335.441 605.287 323.552 643.063 323.552C696.178 323.552 743.733 347.138 775.948 384.338C805.669 346.754 850.54 321.826 901.162 318.183C938.938 340.618 982.274 354.808 1026.19 358.643C1037.31 368.039 1047.28 378.777 1055.91 390.666C1084.09 371.299 1118.23 359.985 1155.04 359.985C1206.43 359.985 1252.65 382.037 1284.67 417.128C1298.86 388.94 1318.42 364.012 1342 343.494C1396.46 359.026 1453.41 360.944 1495.41 318.95C1505.76 309.554 1512.85 298.049 1518.03 285.201C1525.7 285.777 1533.18 286.544 1540.47 287.886C1566.55 243.591 1601.5 204.5 1649 182C1727.04 204.818 1815.63 209.842 1868.56 151.549C1874.69 153.083 1880.83 155.001 1886.97 156.918Z" fill="#A5D223"></path> </svg> 