<?xml version="1.0" encoding="UTF-8"?>
<svg xmlns="http://www.w3.org/2000/svg" width="427" height="111" viewBox="0 0 427 111" fill="none"> <path d="M60.9937 80.3946C61.6472 80.3374 62.1763 80.595 62.5809 81.1675C63.0359 81.7355 63.3095 82.5474 63.4019 83.6031C63.5734 85.5636 63.2322 87.1638 62.3782 88.4036C59.8577 92.018 57.3247 94.6204 54.7791 96.2108C52.2838 97.7968 49.1762 98.7525 45.4561 99.078C42.8421 99.3067 40.4005 99.191 38.1314 98.731C35.8624 98.271 33.0871 97.5261 29.8058 96.4961C26.8304 95.49 23.9754 94.7014 21.2407 94.1302C19.0859 99.0296 15.4447 101.704 10.3171 102.152C7.50199 102.398 5.20999 101.966 3.44111 100.854C1.61757 99.6968 0.617834 98.1126 0.44191 96.1018C0.226404 93.6385 1.22964 91.4992 3.4516 89.6839C5.66918 87.8182 8.73851 86.7139 12.6596 86.3709L13.6399 86.2851L13.0774 64.2233C12.9392 59.1699 13.4813 54.9434 14.7035 51.5439C15.9257 48.1444 17.7678 45.1719 20.2299 42.6263C22.3664 40.4132 24.8736 38.6742 27.7516 37.4093C30.6252 36.0941 33.7209 35.2914 37.0388 35.0011C42.468 34.5261 46.7636 35.5687 49.9255 38.1287C53.0875 40.6888 54.8664 44.231 55.2622 48.7553C55.5305 51.8218 55.1953 54.3586 54.2564 56.3656C53.3132 58.3223 51.8613 59.3865 49.9008 59.558C48.4932 59.6812 47.3587 59.4512 46.4972 58.868C45.6313 58.2346 45.1434 57.2895 45.0334 56.0328C44.9938 55.5803 45.0218 54.7421 45.1173 53.518C45.2958 52.084 45.3367 50.8141 45.2399 49.7081C45.0552 47.5968 44.2817 45.9928 42.9194 44.8963C41.6029 43.7451 39.6879 43.2794 37.1744 43.4993C32.7506 43.8864 29.4598 45.6433 27.3019 48.7701C25.1396 51.8466 24.0022 56.5051 23.8896 62.7455L23.6529 80.0143C23.6126 82.4493 23.4684 84.5641 23.2201 86.3587C26.4858 86.6302 30.5844 87.1581 35.5159 87.9424C38.3927 88.3999 40.5983 88.7134 42.1328 88.8831C43.6673 89.0528 45.0126 89.0871 46.1688 88.9859C49.0845 88.7308 51.5311 88.0355 53.5086 86.9001C55.532 85.71 57.3792 83.9527 59.0501 81.6284C59.5917 80.8718 60.2396 80.4605 60.9937 80.3946ZM96.6552 77.2746C97.3087 77.2174 97.8378 77.4751 98.2425 78.0475C98.6974 78.6156 98.9711 79.4274 99.0634 80.4831C99.2393 82.4939 98.8981 84.0941 98.0397 85.2836C96.3776 87.7085 93.921 90.0256 90.6697 92.235C87.4687 94.4399 83.9328 95.7117 80.062 96.0504C74.7836 96.5122 70.5612 95.4379 67.3949 92.8276C64.2285 90.2173 62.4276 86.4237 61.9922 81.4469C61.6887 77.9783 62.1361 74.6972 63.3345 71.6037C64.5285 68.4599 66.3304 65.8962 68.7402 63.9124C71.2003 61.9243 74.0642 60.7872 77.3318 60.5014C80.2475 60.2463 82.662 60.9215 84.5754 62.527C86.4844 64.0823 87.5686 66.3429 87.8281 69.3088C88.1316 72.7775 87.1365 75.8785 84.8429 78.612C82.5952 81.2907 78.5691 83.6185 72.7647 85.5953C74.2238 87.7978 76.7128 88.7451 80.2317 88.4372C82.4939 88.2393 84.9895 87.2358 87.7186 85.4268C90.4935 83.563 92.8245 81.2569 94.7116 78.5084C95.2533 77.7518 95.9011 77.3406 96.6552 77.2746ZM76.6964 68.0033C74.8364 68.166 73.3474 69.3853 72.2295 71.6613C71.1619 73.9329 70.7622 76.6019 71.0305 79.6684L71.0437 79.8192C73.9481 78.856 76.1933 77.5958 77.7793 76.0387C79.3654 74.4816 80.077 72.773 79.9143 70.913C79.8307 69.9579 79.4883 69.228 78.8869 68.7234C78.3314 68.1641 77.6013 67.9241 76.6964 68.0033ZM103.038 94.0403C99.921 94.3129 97.3336 93.3996 95.2757 91.3001C93.2178 89.2007 92.0283 86.3161 91.7072 82.6464C91.3554 78.6247 91.9533 74.7479 93.5011 71.016C95.0444 67.2338 97.2548 64.1278 100.132 61.6979C103.055 59.2133 106.251 57.8193 109.72 57.5158C110.826 57.419 111.575 57.5815 111.966 58.0031C112.403 58.3701 112.796 59.0956 113.144 60.1795C114.182 59.8861 115.28 59.6888 116.436 59.5876C118.899 59.3721 120.208 60.1441 120.362 61.9036C120.454 62.9592 120.297 65.5058 119.89 69.5431C119.24 75.4253 119.013 79.4975 119.211 81.7597C119.277 82.5138 119.506 83.1016 119.898 83.5233C120.339 83.9405 120.862 84.1227 121.465 84.07C122.42 83.9864 123.524 83.282 124.775 81.9568C126.023 80.5813 127.682 78.4099 129.752 75.4427C130.294 74.6862 130.942 74.2749 131.696 74.2089C132.349 74.1518 132.878 74.4094 133.283 74.9819C133.738 75.5499 134.012 76.3618 134.104 77.4175C134.28 79.4283 133.939 81.0284 133.08 82.218C131.244 84.9621 129.246 87.315 127.087 89.2768C124.929 91.2386 122.769 92.314 120.607 92.5031C118.948 92.6483 117.367 92.2294 115.862 91.2466C114.404 90.2092 113.237 88.7409 112.362 86.842C110.117 91.2934 107.009 93.6928 103.038 94.0403ZM105.086 86.1868C106.192 86.09 107.19 85.3442 108.082 83.9492C108.973 82.5542 109.55 80.7561 109.813 78.5549L111.389 64.4361C109.282 64.6711 107.392 65.647 105.719 67.3637C104.091 69.0257 102.86 71.1597 102.024 73.7656C101.188 76.3715 100.893 79.082 101.14 81.8971C101.276 83.4555 101.679 84.5853 102.348 85.2866C103.067 85.9835 103.98 86.2836 105.086 86.1868ZM134.537 91.2845C132.626 91.4516 131.181 90.5649 130.201 88.6245C129.271 86.6796 128.612 83.4953 128.225 79.0715C127.654 72.5364 128.04 66.2466 129.386 60.2023C129.711 58.7048 130.347 57.5854 131.296 56.8439C132.29 56.0478 133.717 55.5683 135.577 55.4056C136.582 55.3176 137.297 55.3817 137.721 55.5979C138.145 55.8141 138.388 56.274 138.45 56.9778C138.52 57.7822 138.301 59.6249 137.794 62.506C137.467 64.5608 137.219 66.3554 137.049 67.8899C136.879 69.4244 136.791 71.3064 136.783 73.5359C138.064 69.0675 139.616 65.3859 141.439 62.4909C143.263 59.596 145.104 57.4847 146.964 56.1569C148.874 54.8248 150.658 54.0862 152.317 53.941C155.584 53.6551 157.361 55.146 157.647 58.4136C157.704 59.0671 157.616 60.6704 157.384 63.2235C157.158 65.2695 157.067 66.5439 157.11 67.0466C157.264 68.806 157.97 69.6308 159.227 69.5208C160.634 69.3977 162.347 68.1334 164.365 65.728C164.962 65.0173 165.612 64.6312 166.316 64.5696C166.969 64.5124 167.498 64.7701 167.903 65.3425C168.353 65.8603 168.621 66.5968 168.704 67.5519C168.867 69.4119 168.492 70.9137 167.579 72.0574C166.299 73.6384 164.75 75.0403 162.932 76.2631C161.16 77.4312 159.218 78.1076 157.107 78.2923C154.442 78.5254 152.347 78.0249 150.821 76.7908C149.345 75.5522 148.505 73.7767 148.303 71.4643C148.237 70.7102 148.247 69.9496 148.331 69.1823C148.344 68.1681 148.335 67.4851 148.304 67.1332C148.234 66.3288 147.922 65.9509 147.369 65.9993C146.615 66.0652 145.684 67.0078 144.577 68.8269C143.516 70.5914 142.503 72.9089 141.538 75.7793C140.574 78.6497 139.848 81.6511 139.363 84.7836C139.016 87.1947 138.504 88.8605 137.824 89.7811C137.191 90.647 136.095 91.1481 134.537 91.2845ZM168.852 88.2822C166.942 88.4494 165.497 87.5627 164.516 85.6223C163.586 83.6774 162.928 80.4931 162.541 76.0693C161.969 69.5342 162.356 63.2444 163.701 57.2C164.026 55.7026 164.663 54.5832 165.611 53.8417C166.605 53.0455 168.032 52.5661 169.892 52.4034C170.898 52.3154 171.612 52.3795 172.036 52.5957C172.461 52.8119 172.703 53.2718 172.765 53.9756C172.835 54.7799 172.617 56.6227 172.109 59.5038C171.782 61.5586 171.534 63.3532 171.364 64.8877C171.195 66.4222 171.106 68.3042 171.098 70.5337C172.379 66.0653 173.931 62.3837 175.755 59.4887C177.578 56.5938 179.42 54.4825 181.279 53.1547C183.189 51.8226 184.973 51.084 186.632 50.9388C188.241 50.7981 189.485 51.1198 190.364 51.904C191.289 52.6336 191.822 53.8027 191.962 55.4114C192.077 56.7184 192.016 59.2058 191.779 62.8737C191.545 65.9842 191.398 68.935 191.338 71.7263C191.274 74.4673 191.389 77.5218 191.684 80.8899C191.851 82.8002 191.57 84.2178 190.84 85.1428C190.157 86.0131 188.935 86.5252 187.176 86.6791C185.517 86.8243 184.273 86.5025 183.444 85.7139C182.615 84.9253 182.126 83.6764 181.976 81.9672C181.801 79.9564 181.862 76.6077 182.161 71.9213C182.413 67.8469 182.49 65.2567 182.393 64.1508C182.323 63.3464 182.011 62.9685 181.458 63.0168C180.805 63.074 179.949 64.01 178.893 65.8247C177.881 67.5848 176.868 69.9022 175.854 72.7771C174.889 75.6475 174.164 78.6489 173.678 81.7814C173.332 84.1925 172.819 85.8583 172.14 86.7789C171.506 87.6448 170.41 88.1459 168.852 88.2822ZM275.249 55.4951C272.462 60.7031 268.947 65.3923 264.702 69.5628L271.896 76.2278C273.157 77.3331 273.845 78.5393 273.96 79.8463C274.07 81.1031 273.657 82.1776 272.722 83.0699C271.791 84.0125 270.497 84.5563 268.838 84.7015C266.525 84.9038 264.704 84.3539 263.375 83.0519L256.387 76.1409C250.715 79.6258 245.164 81.6058 239.735 82.0808C235.713 82.4326 232.14 82.1121 229.013 81.1192C225.887 80.1264 223.398 78.5966 221.545 76.5298C219.743 74.4586 218.723 72.0658 218.486 69.3512C218.165 65.6814 218.997 62.1641 220.982 58.7991C223.013 55.3795 226.481 51.8848 231.386 48.3151C228.004 43.2415 226.135 38.6687 225.779 34.5968C225.462 30.9774 225.937 27.7192 227.203 24.8224C228.47 21.9256 230.369 19.6066 232.901 17.8654C235.484 16.1198 238.51 15.0952 241.978 14.7918C246.402 14.4047 249.933 15.3876 252.57 17.7402C255.253 20.0383 256.788 23.3992 257.175 27.823C257.496 31.4927 256.719 35.0559 254.843 38.5126C253.013 41.9146 249.531 45.5372 244.396 49.3803C247.996 53.4723 252.695 58.2534 258.492 63.7235C261.551 60.4673 264.516 56.4341 267.388 51.6239C267.87 50.7712 268.475 50.161 269.203 49.7934C269.926 49.3756 270.841 49.1183 271.947 49.0215C274.862 48.7664 276.393 49.4683 276.538 51.1272C276.63 52.1829 276.201 53.6389 275.249 55.4951ZM242.143 22.7555C239.78 22.9622 237.999 24.0298 236.801 25.9583C235.597 27.8365 235.112 30.1078 235.345 32.7721C235.622 35.9392 236.981 39.3155 239.423 42.901C243.141 40.2455 245.61 37.7754 246.828 35.4906C248.047 33.2059 248.544 30.7816 248.32 28.2178C248.157 26.3578 247.552 24.9417 246.504 23.9696C245.457 22.9975 244.003 22.5928 242.143 22.7555ZM239.462 73.7466C243.383 73.4035 247.053 72.2213 250.473 70.1998C244.586 64.2817 239.911 59.1946 236.449 54.9385C231.094 59.1555 228.592 63.2748 228.944 67.2965C229.146 69.6089 230.184 71.3417 232.058 72.4948C233.927 73.5976 236.395 74.0149 239.462 73.7466ZM342.836 55.7365C343.49 55.6794 344.019 55.937 344.423 56.5095C344.878 57.0775 345.152 57.8894 345.244 58.9451C345.42 60.9559 345.079 62.5561 344.221 63.7456C342.292 66.599 340.146 68.9903 337.782 70.9194C335.468 72.8441 332.728 73.945 329.561 74.2221C326.896 74.4552 324.651 73.6891 322.825 71.924C320.123 74.0347 317.215 75.2515 314.103 75.5745C314.298 85.3338 313.523 93.5571 311.778 100.244C310.037 106.982 306.93 110.546 302.456 110.938C299.741 111.175 297.645 110.371 296.166 108.524C294.688 106.678 293.797 104.021 293.493 100.552C293.062 95.6258 293.69 89.7709 295.376 82.9876C297.066 76.2545 299.929 68.735 303.964 60.4292C303.321 53.0897 302.825 47.9916 302.474 45.135C302.296 43.6816 302.773 42.4748 303.904 41.5146C305.036 40.5545 306.507 39.9952 308.317 39.8369C309.372 39.7445 310.146 39.9048 310.638 40.3176C311.176 40.6758 311.525 41.4811 311.685 42.7335C311.795 43.9902 311.902 44.918 312.005 45.5169C313.438 43.3653 314.896 41.7941 316.379 40.8031C317.859 39.7619 319.478 39.1644 321.237 39.0104C324.052 38.7641 326.439 39.6951 328.396 41.8033C330.404 43.9072 331.568 46.794 331.889 50.4637C332.122 53.128 331.921 55.7543 331.287 58.3426C330.652 60.9309 329.671 63.3216 328.343 65.5146C329.425 65.7239 330.318 65.7977 331.022 65.7361C332.681 65.591 334.211 64.8492 335.614 63.5108C337.017 62.1723 338.776 59.9922 340.893 56.9703C341.434 56.2138 342.082 55.8025 342.836 55.7365ZM313.846 68.3025C315.621 67.7421 317.194 66.6166 318.566 64.9263C319.983 63.1813 321.044 61.113 321.746 58.7214C322.444 56.2796 322.681 53.7767 322.457 51.2129C322.325 49.7048 321.924 48.6001 321.255 47.8988C320.582 47.1473 319.742 46.8155 318.737 46.9035C316.927 47.0618 314.907 49.1634 312.678 53.2082C312.821 55.4245 313.079 58.6692 313.453 62.9422C313.656 65.2546 313.787 67.0414 313.846 68.3025ZM302.413 103.495C303.77 103.376 304.641 100.311 305.027 94.3004C305.418 88.3396 305.354 80.9495 304.835 72.1302C303.114 77.3464 301.824 82.2967 300.968 86.9813C300.111 91.6658 299.819 95.5665 300.092 98.6833C300.233 100.292 300.542 101.506 301.019 102.325C301.445 103.149 301.91 103.539 302.413 103.495ZM367.452 53.5829C368.105 53.5258 368.634 53.7834 369.039 54.3559C369.494 54.9239 369.768 55.7358 369.86 56.7915C370.036 58.8023 369.695 60.4025 368.836 61.592C366.908 64.4454 364.737 66.8389 362.322 68.7724C359.958 70.7015 357.168 71.8068 353.95 72.0882C349.527 72.4753 346.058 70.7525 343.544 66.92C341.081 63.0831 339.57 57.9725 339.012 51.5881C338.475 45.4552 338.643 38.3994 339.515 30.4209C340.438 22.438 342.186 15.4972 344.76 9.59862C347.384 3.69566 350.833 0.557258 355.106 0.183421C357.519 -0.0276869 359.503 0.938468 361.058 3.08189C362.659 5.17064 363.642 8.30123 364.007 12.4737C364.531 18.4559 363.479 25.5383 360.851 33.7211C358.224 41.9038 354.409 50.1145 349.405 58.3531C349.938 60.3834 350.645 61.8158 351.529 62.6503C352.408 63.4345 353.501 63.7694 354.808 63.6551C356.869 63.4748 358.628 62.7383 360.086 61.4458C361.538 60.1029 363.346 57.8933 365.508 54.8167C366.05 54.0602 366.698 53.6489 367.452 53.5829ZM354.1 7.79371C352.944 7.89487 351.819 10.0955 350.726 14.3955C349.634 18.6954 348.805 23.9854 348.24 30.2655C347.675 36.5455 347.591 42.5302 347.987 48.2195C351.042 42.0256 353.367 35.8955 354.964 29.8291C356.556 23.7125 357.139 18.2161 356.713 13.3399C356.378 9.51926 355.508 7.67056 354.1 7.79371ZM373.511 70.3769C370.394 70.6496 367.807 69.7362 365.749 67.6368C363.691 65.5373 362.502 62.6527 362.181 58.983C361.829 54.9614 362.427 51.0846 363.974 47.3527C365.518 43.5705 367.728 40.4644 370.605 38.0345C373.529 35.5499 376.725 34.1559 380.193 33.8524C381.299 33.7557 382.048 33.9181 382.439 34.3398C382.877 34.7068 383.269 35.4322 383.618 36.5162C384.656 36.2227 385.753 36.0254 386.909 35.9243C389.372 35.7088 390.681 36.4808 390.835 38.2402C390.927 39.2959 390.77 41.8424 390.363 45.8797C389.713 51.762 389.487 55.8342 389.685 58.0964C389.751 58.8504 389.979 59.4383 390.371 59.8599C390.813 60.2772 391.335 60.4594 391.938 60.4066C392.893 60.3231 393.997 59.6187 395.249 58.2934C396.496 56.9179 398.155 54.7466 400.225 51.7794C400.767 51.0228 401.415 50.6116 402.169 50.5456C402.823 50.4884 403.352 50.7461 403.756 51.3185C404.211 51.8866 404.485 52.6984 404.577 53.7541C404.753 55.7649 404.412 57.3651 403.554 58.5546C401.717 61.2987 399.719 63.6517 397.561 65.6134C395.402 67.5752 393.242 68.6507 391.08 68.8398C389.422 68.9849 387.84 68.5661 386.336 67.5833C384.877 66.5458 383.71 65.0776 382.835 63.1786C380.59 67.63 377.482 70.0295 373.511 70.3769ZM375.559 62.5234C376.665 62.4267 377.664 61.6808 378.555 60.2858C379.446 58.8908 380.023 57.0927 380.286 54.8915L381.862 40.7728C379.756 41.0078 377.865 41.9836 376.192 43.7004C374.564 45.3624 373.333 47.4964 372.497 50.1022C371.661 52.7081 371.367 55.4186 371.613 58.2338C371.749 59.7922 372.152 60.922 372.821 61.6233C373.541 62.3201 374.453 62.6202 375.559 62.5234ZM422.941 30.2645C424.097 30.1633 424.915 30.2438 425.393 30.5058C425.872 30.7679 426.142 31.2508 426.204 31.9545C426.31 33.161 426.032 37.5163 425.372 45.0204C424.835 52.2097 424.524 56.4667 424.437 57.7913C423.708 70.8735 422.039 81.3278 419.431 89.1543C416.823 96.9807 412.805 101.131 407.375 101.606C404.812 101.831 402.655 101.209 400.906 99.741C399.161 98.3233 398.176 96.3326 397.952 93.7688C397.745 91.4061 398.062 88.947 398.902 86.3914C399.792 83.8313 401.555 80.8151 404.189 77.3428C406.878 73.9162 410.731 69.9066 415.75 65.3138L415.824 63.5597C416.013 61.6689 416.182 58.9694 416.331 55.4612C415.642 59.1686 414.477 62.0566 412.834 64.1252C411.187 66.1435 409.358 67.2407 407.347 67.4166C405.085 67.6145 403.135 66.7467 401.497 64.8132C399.905 62.8249 398.972 60.2725 398.7 57.1557C398.37 53.3854 398.32 49.9199 398.55 46.7592C398.775 43.5481 399.312 40.1326 400.161 36.5125C400.531 34.9604 401.141 33.818 401.988 33.0854C402.836 32.3527 404.24 31.9006 406.201 31.729C407.307 31.6323 408.076 31.7423 408.509 32.059C408.992 32.3713 409.265 32.8793 409.326 33.5831C409.361 33.9853 409.204 35.3668 408.853 37.7276C408.513 39.6316 408.258 41.3508 408.089 42.8853C407.867 44.9816 407.689 46.9981 407.554 48.9347C407.415 50.8211 407.399 52.3675 407.504 53.574C407.671 55.4843 408.283 56.3933 409.338 56.3009C410.092 56.2349 410.956 55.3995 411.93 53.7946C412.955 52.1854 413.961 49.7925 414.95 46.6161C415.988 43.4352 416.915 39.555 417.73 34.9754C418 33.4321 418.509 32.2985 419.256 31.5746C420.054 30.8463 421.282 30.4096 422.941 30.2645ZM407.565 94.2195C408.822 94.1095 410.102 92.5285 411.405 89.4765C412.708 86.4245 413.842 81.4371 414.807 74.5142C411.222 78.1205 408.666 81.3327 407.14 84.151C405.668 87.0151 405.02 89.4526 405.196 91.4634C405.271 92.318 405.483 93.0086 405.833 93.5352C406.234 94.0573 406.811 94.2855 407.565 94.2195Z" fill="#ACDB2A"/> </svg>