<?xml version="1.0" encoding="UTF-8"?> <svg xmlns="http://www.w3.org/2000/svg" width="1635" height="464" viewBox="0 0 1635 464" fill="none"> <rect width="1635" height="464" rx="47" fill="white"></rect> <path d="M75 107C75 84.9086 92.9086 67 115 67H235V227H75V107Z" fill="#E879BB"></path> <path d="M245 67H365C387.091 67 405 84.9086 405 107V227H245V67Z" fill="#ACDB2A"></path> <path d="M75 237H235V397H115C92.9086 397 75 379.091 75 357V237Z" fill="#6CB9F0"></path> <path d="M245 237H405V357C405 379.091 387.091 397 365 397H245V237Z" fill="#FF9A03"></path> <path d="M460 390.318V77.1124H511.082C520.479 76.5228 529.897 77.8738 538.749 81.0811C547.602 84.2885 555.699 89.2836 562.538 95.7556C576.713 114.673 583.236 138.239 580.808 161.753C580.808 198.045 568.379 220.416 543.522 228.868C573.351 235.207 588.265 259.443 588.265 300.831C590.78 325.515 584.291 350.277 569.995 370.556C563.348 377.257 555.363 382.48 546.561 385.885C537.759 389.29 528.338 390.801 518.912 390.318H460ZM547.623 166.6V154.668C548.688 141.603 545.553 128.54 538.674 117.382C535.665 113.561 531.807 110.493 527.406 108.422C523.005 106.351 518.182 105.334 513.32 105.45H497.286V217.309H514.811C534.573 217.682 547.623 200.158 547.623 165.108V166.6ZM552.47 310.898V297.102C552.47 259.816 540.911 241.173 517.421 241.173H497.286V361.98H518.912C523.868 362.259 528.818 361.357 533.356 359.347C537.894 357.338 541.889 354.278 545.013 350.422C551.646 337.838 554.25 323.52 552.47 309.407V310.898Z" fill="#E879BB"></path> <path d="M735.919 390.317L721.005 309.033H659.109L646.432 390.317H609.146L667.312 77.1118H714.666L771.714 390.317H735.919ZM690.803 122.228L663.956 280.323H717.276L690.803 122.228Z" fill="#ACDB2A"></path> <path d="M833.188 390.317H798.139V77.1118H852.95L890.236 294.119L927.522 77.1118H981.961V390.317H947.284V107.687L909.998 323.202H871.22L833.934 107.687L833.188 390.317Z" fill="#6CB9F0"></path> <path d="M1030.13 390.319V77.1131H1081.21C1090.66 76.5601 1100.12 77.9269 1109.03 81.1311C1117.94 84.3352 1126.1 89.3103 1133.04 95.7563C1146.39 115.01 1152.23 138.488 1149.44 161.753C1149.44 198.045 1137.01 220.417 1112.16 228.869C1141.99 235.207 1156.9 259.444 1156.9 300.831C1159.42 325.516 1152.93 350.278 1138.63 370.557C1132.01 377.296 1124.03 382.545 1115.22 385.953C1106.41 389.361 1096.98 390.849 1087.55 390.319H1030.13ZM1118.12 166.6V154.669C1119.19 141.604 1116.05 128.541 1109.17 117.382C1105.96 113.804 1101.97 111.004 1097.51 109.195C1093.06 107.386 1088.25 106.616 1083.45 106.942H1065.92V218.801H1083.45C1106.56 218.056 1118.12 200.158 1118.12 165.109V166.6ZM1122.97 310.899V297.103C1122.97 259.816 1111.04 241.173 1087.55 241.173H1065.92V361.981H1087.55C1092.51 362.291 1097.47 361.403 1102.01 359.391C1106.55 357.379 1110.55 354.303 1113.65 350.422C1121.12 338.123 1124.39 323.728 1122.97 309.407V310.899Z" fill="#FF9A03"></path> <path d="M1201.27 390.317V77.1118H1238.55V390.317H1201.27Z" fill="#E879BB"></path> <path d="M1328.42 390.317H1293.37V77.1118H1330.66L1403.37 306.05V77.1118H1438.42V390.317H1401.13L1328.42 161.752V390.317Z" fill="#ACDB2A"></path> <path d="M1494.71 390.317V77.1118H1532V390.317H1494.71Z" fill="#6CB9F0"></path> </svg> 