<?xml version="1.0" encoding="UTF-8"?> <svg xmlns="http://www.w3.org/2000/svg" width="312" height="98" viewBox="0 0 312 98" fill="none"> <g clip-path="url(#clip0)"> <g clip-path="url(#clip1)"> <rect width="34.2622" height="34.2622" fill="#E879BB"></rect> <rect x="36.4033" width="34.2622" height="34.2622" fill="#ACDB2A"></rect> </g> <g clip-path="url(#clip2)"> <rect y="36.4036" width="34.2622" height="34.2622" fill="#6CB9F0"></rect> <rect x="36.4033" y="36.4036" width="34.2622" height="34.2622" fill="#FF9A03"></rect> </g> </g> <path d="M82.4434 69.2349V2.16549H93.3821C95.3943 2.03924 97.411 2.32852 99.3066 3.01534C101.202 3.70216 102.936 4.77182 104.401 6.15772C107.436 10.2087 108.833 15.255 108.313 20.2902C108.313 28.0617 105.652 32.8524 100.329 34.6622C106.716 36.0196 109.91 41.2095 109.91 50.0722C110.448 55.3581 109.059 60.6606 105.998 65.0031C104.574 66.438 102.864 67.5565 100.979 68.2857C99.0946 69.0148 97.0771 69.3383 95.0588 69.2349H82.4434ZM101.207 21.3282V18.7732C101.435 15.9755 100.764 13.1781 99.2906 10.7887C98.6461 9.97049 97.8199 9.31361 96.8775 8.87013C95.9351 8.42664 94.9024 8.20874 93.8611 8.23368H90.4278V32.187H94.1805C98.4123 32.2669 101.207 28.5142 101.207 21.0088V21.3282ZM102.245 52.228V49.2738C102.245 41.2893 99.7696 37.2971 94.7394 37.2971H90.4278V63.1667H95.0588C96.1199 63.2265 97.18 63.0332 98.1517 62.6029C99.1235 62.1725 99.979 61.5174 100.648 60.6915C102.068 57.9969 102.626 54.9308 102.245 51.9086V52.228Z" fill="#E879BB"></path> <path d="M141.528 69.2348L138.334 51.8287H125.08L122.365 69.2348H114.381L126.837 2.16534H136.977L149.193 69.2348H141.528ZM131.867 11.8265L126.118 45.6806H137.536L131.867 11.8265Z" fill="#ACDB2A"></path> <path d="M162.357 69.2348H154.852V2.16534H166.589L174.573 48.6349L182.558 2.16534H194.215V69.2348H186.789V8.7126L178.805 54.8627H170.501L162.517 8.7126L162.357 69.2348Z" fill="#6CB9F0"></path> <path d="M204.529 69.2351V2.16565H215.468C217.492 2.04723 219.518 2.33992 221.426 3.02605C223.333 3.71218 225.082 4.77754 226.566 6.15788C229.426 10.2808 230.676 15.3085 230.08 20.2904C230.08 28.0619 227.418 32.8526 222.095 34.6624C228.483 36.0197 231.676 41.2096 231.676 50.0724C232.215 55.3583 230.825 60.6607 227.764 65.0033C226.347 66.4464 224.638 67.5704 222.752 68.3002C220.865 69.03 218.845 69.3487 216.825 69.2351H204.529ZM223.373 21.3283V18.7733C223.601 15.9756 222.929 13.1782 221.456 10.7889C220.768 10.0225 219.914 9.42298 218.96 9.03563C218.005 8.64829 216.975 8.48331 215.947 8.55321H212.194V32.5066H215.947C220.897 32.3469 223.373 28.5143 223.373 21.009V21.3283ZM224.411 52.2282V49.2739C224.411 41.2895 221.856 37.2973 216.825 37.2973H212.194V63.1669H216.825C217.887 63.2333 218.95 63.043 219.922 62.6122C220.895 62.1814 221.75 61.5226 222.414 60.6917C224.014 58.0579 224.715 54.9754 224.411 51.9088V52.2282Z" fill="#FF9A03"></path> <path d="M241.177 69.2348V2.16534H249.161V69.2348H241.177Z" fill="#E879BB"></path> <path d="M268.406 69.2348H260.9V2.16534H268.885L284.455 51.1899V2.16534H291.96V69.2348H283.975L268.406 20.2901V69.2348Z" fill="#ACDB2A"></path> <path d="M304.016 69.2348V2.16534H312V69.2348H304.016Z" fill="#6CB9F0"></path> <path d="M9.29481 90.8204C9.22532 92.1755 8.8431 93.2122 8.14816 93.9303C7.45902 94.6484 6.4832 95.0074 5.22073 95.0074C3.95247 95.0074 2.94481 94.5267 2.19775 93.5654C1.45069 92.5983 1.07716 91.2895 1.07716 89.639V87.3457C1.07716 85.701 1.45937 84.4009 2.22381 83.4454C2.99403 82.4898 4.04223 82.012 5.36841 82.012C6.59034 82.012 7.5343 82.3798 8.20028 83.1153C8.87206 83.845 9.2369 84.8903 9.29481 86.2512H7.68777C7.61827 85.2204 7.4011 84.4849 7.03626 84.0447C6.67142 83.6046 6.11547 83.3846 5.36841 83.3846C4.50552 83.3846 3.84244 83.7233 3.37914 84.4009C2.91585 85.0727 2.6842 86.0601 2.6842 87.3631V89.6824C2.6842 90.9623 2.89848 91.9439 3.32702 92.6272C3.76136 93.3106 4.3926 93.6523 5.22073 93.6523C6.04887 93.6523 6.64536 93.4467 7.0102 93.0355C7.37504 92.6244 7.6009 91.886 7.68777 90.8204H9.29481ZM17.5212 88.9875H13.0475V93.4699H18.2595V94.8337H11.4578V82.1858H18.1727V83.5583H13.0475V87.6237H17.5212V88.9875ZM27.8671 83.5583H24.54V94.8337H22.9504V83.5583H19.632V82.1858H27.8671V83.5583ZM31.4199 87.3457H33.9738C35.1089 87.3515 35.9979 87.6845 36.6407 88.3447C37.2835 88.9991 37.6049 89.9025 37.6049 91.0549C37.6049 92.2132 37.2777 93.134 36.6233 93.8173C35.9747 94.4949 35.0742 94.8337 33.9217 94.8337H29.8303V82.1858H31.4199V87.3457ZM31.4199 88.7182V93.4699H33.9565C34.6051 93.4699 35.1089 93.2469 35.468 92.801C35.827 92.3551 36.0065 91.7673 36.0065 91.0376C36.0065 90.3195 35.827 89.7548 35.468 89.3437C35.1147 88.9267 34.6138 88.7182 33.9652 88.7182H31.4199ZM50.2962 83.5583H45.3187V87.3457H47.8726C49.0077 87.3515 49.8966 87.6845 50.5395 88.3447C51.1823 88.9991 51.5037 89.9025 51.5037 91.0549C51.5037 92.2132 51.1765 93.134 50.5221 93.8173C49.8735 94.4949 48.973 94.8337 47.8205 94.8337H43.7204V82.1858H50.2962V83.5583ZM45.3187 88.7182V93.4699H47.8553C48.5039 93.4699 49.0077 93.2469 49.3668 92.801C49.7258 92.3551 49.9053 91.7673 49.9053 91.0376C49.9053 90.3195 49.7258 89.7548 49.3668 89.3437C49.0135 88.9267 48.5126 88.7182 47.8639 88.7182H45.3187ZM60.147 82.1858H61.7367V94.8337H60.147V85.0872L55.2216 94.8337H53.6233V82.1858H55.2216V91.9323L60.147 82.1858ZM72.8557 82.1858V94.8337H71.2573V83.5583H67.7218L67.5307 88.8746C67.4612 90.4266 67.3136 91.6109 67.0877 92.4275C66.8619 93.244 66.5318 93.8463 66.0974 94.2343C65.6631 94.6223 65.0927 94.8221 64.3861 94.8337H63.8997V93.4699L64.195 93.4525C64.6178 93.4177 64.9479 93.2556 65.1853 92.966C65.4227 92.6707 65.6023 92.2045 65.7239 91.5675C65.8455 90.9304 65.9324 89.9575 65.9845 88.6487L66.193 82.1858H72.8557ZM82.2808 82.1858H83.8705V94.8337H82.2808V85.0872L77.3554 94.8337H75.7571V82.1858H77.3554V91.9323L82.2808 82.1858ZM94.9808 94.8337H93.3825V88.9875H88.292V94.8337H86.7024V82.1858H88.292V87.6237H93.3825V82.1858H94.9808V94.8337ZM104.389 83.5583H99.4111V94.8337H97.8127V82.1858H104.389V83.5583ZM106.421 94.8337V82.1858H110.026C111.179 82.1858 112.044 82.4667 112.624 83.0284C113.209 83.5901 113.501 84.4328 113.501 85.5562C113.501 86.1469 113.353 86.6681 113.058 87.1199C112.763 87.5716 112.363 87.9219 111.859 88.1709C112.438 88.3447 112.896 88.7008 113.232 89.2394C113.573 89.778 113.744 90.4266 113.744 91.1852C113.744 92.3203 113.431 93.2122 112.806 93.8608C112.186 94.5094 111.3 94.8337 110.148 94.8337H106.421ZM108.011 88.918V93.4699H110.183C110.785 93.4699 111.263 93.273 111.616 92.8792C111.969 92.4796 112.146 91.9207 112.146 91.2026C112.146 89.6795 111.503 88.918 110.217 88.918H108.011ZM108.011 87.5802H110.052C110.602 87.5802 111.046 87.3949 111.381 87.0243C111.723 86.6537 111.894 86.1614 111.894 85.5476C111.894 84.8526 111.74 84.3488 111.434 84.0361C111.127 83.7175 110.658 83.5583 110.026 83.5583H108.011V87.5802ZM122.031 91.5327H117.757L116.776 94.8337H115.143L119.217 82.1858H120.581L124.663 94.8337H123.03L122.031 91.5327ZM118.174 90.1602H121.623L119.894 84.4096L118.174 90.1602ZM134.671 82.1858V94.8337H133.072V83.5583H129.537L129.346 88.8746C129.276 90.4266 129.128 91.6109 128.903 92.4275C128.677 93.244 128.347 93.8463 127.912 94.2343C127.478 94.6223 126.908 94.8221 126.201 94.8337H125.715V93.4699L126.01 93.4525C126.433 93.4177 126.763 93.2556 127 92.966C127.238 92.6707 127.417 92.2045 127.539 91.5675C127.66 90.9304 127.747 89.9575 127.799 88.6487L128.008 82.1858H134.671ZM139.049 87.3457H141.603C142.738 87.3515 143.627 87.6845 144.269 88.3447C144.912 88.9991 145.234 89.9025 145.234 91.0549C145.234 92.2132 144.906 93.134 144.252 93.8173C143.603 94.4949 142.703 94.8337 141.55 94.8337H137.459V82.1858H139.049V87.3457ZM139.049 88.7182V93.4699H141.585C142.234 93.4699 142.738 93.2469 143.097 92.801C143.456 92.3551 143.635 91.7673 143.635 91.0376C143.635 90.3195 143.456 89.7548 143.097 89.3437C142.743 88.9267 142.242 88.7182 141.594 88.7182H139.049ZM155.597 94.8337H153.999V88.9875H148.908V94.8337H147.318V82.1858H148.908V87.6237H153.999V82.1858H155.597V94.8337ZM160.027 87.3457H162.581C163.716 87.3515 164.605 87.6845 165.248 88.3447C165.891 88.9991 166.212 89.9025 166.212 91.0549C166.212 92.2132 165.885 93.134 165.231 93.8173C164.582 94.4949 163.681 94.8337 162.529 94.8337H158.437V82.1858H160.027V87.3457ZM168.914 94.8337H167.324V82.1858H168.914V94.8337ZM160.027 88.7182V93.4699H162.564C163.212 93.4699 163.716 93.2469 164.075 92.801C164.434 92.3551 164.614 91.7673 164.614 91.0376C164.614 90.3195 164.434 89.7548 164.075 89.3437C163.722 88.9267 163.221 88.7182 162.572 88.7182H160.027ZM175.507 87.033L177.887 82.1858H179.755L176.462 88.4576L179.824 94.8337H177.939L175.507 89.8996L173.066 94.8337H171.181L174.56 88.4576L171.25 82.1858H173.109L175.507 87.033ZM194.149 93.4699H195.634L195.617 97.9348H194.027V94.8337H186.556V97.9435H184.958L184.949 93.4699H185.879C186.284 92.9544 186.614 92.1784 186.869 91.1418C187.13 90.1052 187.295 88.947 187.364 87.6671L187.608 82.1858H194.149V93.4699ZM187.573 93.4699H192.55V83.5583H189.154L188.971 87.6411C188.902 88.9788 188.743 90.1342 188.494 91.1071C188.245 92.0742 187.938 92.8618 187.573 93.4699ZM203.643 88.9875H199.17V93.4699H204.382V94.8337H197.58V82.1858H204.295V83.5583H199.17V87.6237H203.643V88.9875ZM213.989 83.5583H210.662V94.8337H209.072V83.5583H205.754V82.1858H213.989V83.5583ZM223.545 90.8204C223.475 92.1755 223.093 93.2122 222.398 93.9303C221.709 94.6484 220.733 95.0074 219.471 95.0074C218.202 95.0074 217.195 94.5267 216.448 93.5654C215.7 92.5983 215.327 91.2895 215.327 89.639V87.3457C215.327 85.701 215.709 84.4009 216.474 83.4454C217.244 82.4898 218.292 82.012 219.618 82.012C220.84 82.012 221.784 82.3798 222.45 83.1153C223.122 83.845 223.487 84.8903 223.545 86.2512H221.938C221.868 85.2204 221.651 84.4849 221.286 84.0447C220.921 83.6046 220.365 83.3846 219.618 83.3846C218.755 83.3846 218.092 83.7233 217.629 84.4009C217.166 85.0727 216.934 86.0601 216.934 87.3631V89.6824C216.934 90.9623 217.148 91.9439 217.577 92.6272C218.011 93.3106 218.642 93.6523 219.471 93.6523C220.299 93.6523 220.895 93.4467 221.26 93.0355C221.625 92.6244 221.851 91.886 221.938 90.8204H223.545ZM228.574 89.1526H227.375V94.8337H225.786V82.1858H227.375V87.7627H228.348L231.91 82.1858H233.891L229.877 88.3012L234.186 94.8337H232.24L228.574 89.1526ZM242.273 82.1858H243.863V94.8337H242.273V85.0872L237.348 94.8337H235.749V82.1858H237.348V91.9323L242.273 82.1858ZM250.404 87.033L252.784 82.1858H254.652L251.36 88.4576L254.721 94.8337H252.836L250.404 89.8996L247.963 94.8337H246.078L249.457 88.4576L246.148 82.1858H248.006L250.404 87.033ZM268.664 90.8204C268.594 92.1755 268.212 93.2122 267.517 93.9303C266.828 94.6484 265.852 95.0074 264.589 95.0074C263.321 95.0074 262.314 94.5267 261.566 93.5654C260.819 92.5983 260.446 91.2895 260.446 89.639V87.3457C260.446 85.701 260.828 84.4009 261.593 83.4454C262.363 82.4898 263.411 82.012 264.737 82.012C265.959 82.012 266.903 82.3798 267.569 83.1153C268.241 83.845 268.606 84.8903 268.664 86.2512H267.057C266.987 85.2204 266.77 84.4849 266.405 84.0447C266.04 83.6046 265.484 83.3846 264.737 83.3846C263.874 83.3846 263.211 83.7233 262.748 84.4009C262.285 85.0727 262.053 86.0601 262.053 87.3631V89.6824C262.053 90.9623 262.267 91.9439 262.696 92.6272C263.13 93.3106 263.761 93.6523 264.589 93.6523C265.418 93.6523 266.014 93.4467 266.379 93.0355C266.744 92.6244 266.97 91.886 267.057 90.8204H268.664ZM276.725 91.5327H272.451L271.469 94.8337H269.836L273.91 82.1858H275.274L279.357 94.8337H277.724L276.725 91.5327ZM272.868 90.1602H276.317L274.588 84.4096L272.868 90.1602ZM289.564 93.4699H291.049L291.032 97.9348H289.442V94.8337H281.972V97.9435H280.373L280.365 93.4699H281.294C281.699 92.9544 282.03 92.1784 282.284 91.1418C282.545 90.1052 282.71 88.947 282.779 87.6671L283.023 82.1858H289.564V93.4699ZM282.988 93.4699H287.965V83.5583H284.569L284.387 87.6411C284.317 88.9788 284.158 90.1342 283.909 91.1071C283.66 92.0742 283.353 92.8618 282.988 93.4699ZM301.013 89.6216C301.013 91.3474 300.645 92.6765 299.91 93.6088C299.174 94.5412 298.129 95.0074 296.774 95.0074C295.471 95.0074 294.44 94.5557 293.681 93.6523C292.929 92.7431 292.538 91.4603 292.509 89.8041V87.4239C292.509 85.7329 292.882 84.4096 293.629 83.454C294.376 82.4927 295.419 82.012 296.756 82.012C298.088 82.012 299.125 82.4724 299.866 83.3932C300.613 84.3082 300.996 85.617 301.013 87.3196V89.6216ZM299.423 87.4065C299.423 86.0688 299.203 85.0756 298.763 84.427C298.329 83.7726 297.66 83.4454 296.756 83.4454C295.882 83.4454 295.219 83.7755 294.767 84.4356C294.321 85.0958 294.095 86.0688 294.09 87.3544V89.6216C294.09 90.9131 294.313 91.8976 294.759 92.5751C295.21 93.2527 295.882 93.5915 296.774 93.5915C297.666 93.5915 298.326 93.2788 298.754 92.6533C299.183 92.0279 299.406 91.0694 299.423 89.778V87.4065ZM303.471 94.8337V82.1858H307.076C308.229 82.1858 309.095 82.4667 309.674 83.0284C310.259 83.5901 310.551 84.4328 310.551 85.5562C310.551 86.1469 310.403 86.6681 310.108 87.1199C309.813 87.5716 309.413 87.9219 308.909 88.1709C309.488 88.3447 309.946 88.7008 310.282 89.2394C310.623 89.778 310.794 90.4266 310.794 91.1852C310.794 92.3203 310.482 93.2122 309.856 93.8608C309.236 94.5094 308.35 94.8337 307.198 94.8337H303.471ZM305.061 88.918V93.4699H307.233C307.835 93.4699 308.313 93.273 308.666 92.8792C309.019 92.4796 309.196 91.9207 309.196 91.2026C309.196 89.6795 308.553 88.918 307.267 88.918H305.061ZM305.061 87.5802H307.102C307.653 87.5802 308.096 87.3949 308.431 87.0243C308.773 86.6537 308.944 86.1614 308.944 85.5476C308.944 84.8526 308.791 84.3488 308.484 84.0361C308.177 83.7175 307.708 83.5583 307.076 83.5583H305.061V87.5802Z" fill="#424242"></path> <defs> <clipPath id="clip0"> <rect width="70.6657" height="70.6657" rx="8.56554" fill="white"></rect> </clipPath> <clipPath id="clip1"> <rect width="70.6657" height="34.2622" fill="white"></rect> </clipPath> <clipPath id="clip2"> <rect width="70.6657" height="34.2622" fill="white" transform="translate(0 36.4036)"></rect> </clipPath> </defs> </svg> 