<?xml version="1.0" encoding="UTF-8"?> <svg xmlns="http://www.w3.org/2000/svg" width="252" height="97" viewBox="0 0 252 97" fill="none"> <path d="M26.7881 89.0758C22.314 89.4672 18.1793 88.8159 14.3839 87.1217C10.6388 85.4232 7.54121 82.7309 5.0912 79.0448C2.63679 75.3084 1.17209 70.7256 0.697096 65.2964C0.0285869 57.6553 0.821678 50.7981 3.07637 44.7249C5.38134 38.6472 8.78312 33.8159 13.2818 30.2311C17.8306 26.6418 23.0208 24.5921 28.8521 24.082C33.3262 23.6905 37.4358 24.3441 41.1809 26.0426C44.9763 27.7368 48.1012 30.4521 50.5556 34.1884C53.0056 37.8745 54.4681 42.4322 54.9431 47.8614C55.6116 55.5025 54.7934 62.3618 52.4884 68.4395C50.2337 74.5128 46.8319 79.344 42.2831 82.9333C37.7845 86.5181 32.6195 88.5656 26.7881 89.0758ZM26.7637 80.112C30.6848 79.7689 34.0228 78.2612 36.7776 75.5887C39.5827 72.9118 41.6027 69.3666 42.8375 64.9528C44.0679 60.4888 44.4456 55.5422 43.9706 50.113C43.4473 44.1309 41.7947 39.7165 39.0129 36.8699C36.2267 33.973 32.8479 32.6983 28.8765 33.0458C25.0057 33.3844 21.6929 34.89 18.938 37.5625C16.1788 40.1847 14.1588 43.7299 12.8781 48.1983C11.5931 52.6165 11.1902 57.5653 11.6696 63.0447C12.193 69.0269 13.8478 73.4664 16.634 76.3633C19.4158 79.2099 22.7923 80.4594 26.7637 80.112ZM70.27 85.2716C68.0079 85.4696 66.0577 84.6017 64.4195 82.6682C62.8272 80.68 61.8947 78.1275 61.6221 75.0107C61.2922 71.2405 61.2423 67.775 61.4723 64.6142C61.6979 61.4032 62.2349 57.9876 63.0833 54.3676C63.454 52.8155 64.0633 51.6731 64.911 50.9404C65.7587 50.2077 67.1628 49.7556 69.1233 49.5841C70.2293 49.4873 70.9987 49.5973 71.4317 49.914C71.9149 50.2263 72.1873 50.7344 72.2489 51.4382C72.284 51.8403 72.1263 53.2218 71.7756 55.5826C71.4357 57.4866 71.1808 59.2059 71.0112 60.7404C70.4675 66.1067 70.2727 69.6696 70.4266 71.4291C70.519 72.4848 70.7106 73.2278 71.0016 73.6583C71.2881 74.0384 71.7079 74.2043 72.2608 74.156C73.0149 74.09 73.8789 73.2546 74.8529 71.6497C75.8772 70.0404 76.8836 67.6476 77.8721 64.4711C78.9108 61.2903 79.8377 57.41 80.6528 52.8304C80.923 51.2871 81.4317 50.1535 82.1788 49.4297C82.9763 48.7014 84.2044 48.2647 85.8634 48.1195C87.0196 48.0184 87.8371 48.0988 88.3159 48.3609C88.7903 48.5726 89.0605 49.0555 89.1265 49.8096C89.2365 51.0663 88.9093 54.5648 88.1452 60.3051C87.3006 66.8628 86.9442 70.8958 87.0762 72.4039C87.1597 73.359 87.4268 74.0955 87.8773 74.6133C88.3235 75.0808 88.8733 75.286 89.5268 75.2288C90.5322 75.1408 91.6608 74.4342 92.9125 73.109C94.2102 71.7291 95.8942 69.5555 97.9648 66.5884C98.5065 65.8318 99.1543 65.4205 99.9084 65.3546C100.562 65.2974 101.091 65.555 101.496 66.1275C101.95 66.6955 102.224 67.5074 102.317 68.5631C102.492 70.5739 102.151 72.1741 101.293 73.3636C99.3644 76.217 97.2181 78.6083 94.8542 80.5374C92.5404 82.4621 89.8001 83.563 86.633 83.8401C84.22 84.0512 82.3541 83.2773 81.0351 81.5185C79.7665 79.7552 78.9848 77.1895 78.6901 73.8214C78.1346 77.3146 77.0836 80.0659 75.5371 82.0755C73.9863 84.0347 72.2306 85.1001 70.27 85.2716ZM125.67 55.0465C126.776 54.9498 127.741 55.2706 128.565 56.0089C129.436 56.6926 129.921 57.6126 130.023 58.7688C130.08 59.4223 129.991 60.1393 129.755 60.9197C129.113 62.8501 128.119 64.5074 126.771 65.8917C125.423 67.2761 123.869 68.0452 122.11 68.1991C120.702 68.3222 119.452 67.9251 118.358 67.0077C117.315 66.0858 116.719 64.7703 116.569 63.0611C116.486 62.106 116.446 61.071 116.45 59.9563C116.48 59.1432 116.482 58.5858 116.455 58.2842C116.42 57.882 116.293 57.5892 116.074 57.4057C115.906 57.2178 115.696 57.1348 115.445 57.1568C114.741 57.2184 113.861 58.1566 112.804 59.9713C111.742 61.7358 110.729 64.0532 109.765 66.9237C108.8 69.7941 108.075 72.7955 107.589 75.928C107.247 78.3894 106.76 80.053 106.126 80.9189C105.493 81.7848 104.372 82.2881 102.763 82.4288C100.853 82.596 99.4078 81.7093 98.4276 79.7689C97.4976 77.824 96.8391 74.6397 96.452 70.2159C95.8803 63.6808 96.2671 57.391 97.6126 51.3466C97.9374 49.8492 98.574 48.7298 99.5222 47.9883C100.516 47.1921 101.943 46.7127 103.803 46.55C104.809 46.462 105.523 46.5261 105.948 46.7423C106.372 46.9585 106.615 47.4184 106.676 48.1222C106.747 48.9265 106.528 50.7693 106.02 53.6504C105.693 55.7052 105.445 57.4998 105.275 59.0343C105.106 60.5688 105.017 62.4508 105.01 64.6803C106.29 60.2119 107.842 56.5303 109.666 53.6353C111.49 50.7404 113.331 48.6291 115.19 47.3013C117.05 45.9736 118.784 45.2393 120.393 45.0986C121.85 44.9711 122.994 45.3016 123.823 46.0902C124.697 46.8242 125.205 47.9955 125.346 49.6041C125.429 50.5593 125.311 52.3932 124.991 55.1059L125.67 55.0465ZM181.775 58.1922C182.428 58.135 182.957 58.3926 183.362 58.9651C183.817 59.5332 184.09 60.345 184.183 61.4007C184.359 63.4115 184.017 65.0117 183.159 66.2012C181.231 69.0547 179.059 71.4481 176.645 73.3816C174.281 75.3107 171.49 76.416 168.273 76.6975C163.849 77.0845 160.381 75.3618 157.867 71.5293C155.404 67.6924 153.893 62.5817 153.334 56.1974C152.798 50.0644 152.966 43.0086 153.838 35.0301C154.761 27.0472 156.509 20.1065 159.083 14.2079C161.707 8.30492 165.155 5.16652 169.428 4.79268C171.841 4.58157 173.826 5.54772 175.381 7.69114C176.982 9.7799 177.965 12.9105 178.33 17.083C178.853 23.0651 177.801 30.1476 175.174 38.3303C172.547 46.513 168.731 54.7237 163.728 62.9623C164.26 64.9926 164.968 66.425 165.852 67.2595C166.731 68.0437 167.824 68.3787 169.131 68.2643C171.192 68.084 172.951 67.3476 174.408 66.055C175.861 64.7122 177.669 62.5025 179.831 59.426C180.373 58.6694 181.021 58.2582 181.775 58.1922ZM168.423 12.403C167.266 12.5041 166.142 14.7047 165.049 19.0047C163.956 23.3047 163.127 28.5947 162.562 34.8747C161.997 41.1547 161.913 47.1394 162.31 52.8287C165.364 46.6348 167.69 40.5047 169.287 34.4384C170.879 28.3217 171.462 22.8253 171.035 17.9491C170.701 14.1285 169.83 12.2798 168.423 12.403ZM185.631 34.3762C183.519 34.5609 181.894 34.2218 180.755 33.3591C179.611 32.446 178.962 31.1098 178.808 29.3503C178.654 27.5908 179.206 26.0736 180.462 24.7987C181.764 23.469 183.445 22.714 185.506 22.5337C187.366 22.371 188.914 22.6915 190.149 23.4952C191.385 24.2989 192.075 25.5302 192.22 27.1891C192.396 29.2 191.883 30.8658 190.682 32.1866C189.476 33.4572 187.792 34.187 185.631 34.3762ZM188.57 74.9217C185.302 75.2076 182.813 74.2603 181.103 72.0798C179.443 69.8949 178.446 66.8922 178.111 63.0716C177.914 60.8095 177.937 57.8947 178.182 54.3274C178.473 50.7054 178.937 47.3216 179.574 44.176C179.885 42.5277 180.392 41.369 181.093 40.6998C181.794 40.0306 182.974 39.6234 184.633 39.4783C187.197 39.254 188.554 39.9964 188.703 41.7056C188.813 42.9624 188.591 45.9198 188.036 50.578C187.313 56.2133 187.038 60.0112 187.209 61.9718C187.341 63.4799 187.643 64.6185 188.116 65.3876C188.588 66.1568 189.302 66.4996 190.257 66.416C191.162 66.3368 192.238 65.6095 193.486 64.234C194.733 62.8585 196.369 60.7145 198.394 57.802C198.935 57.0454 199.583 56.6341 200.337 56.5682C200.991 56.511 201.52 56.7686 201.925 57.3411C202.38 57.9091 202.653 58.721 202.746 59.7767C202.921 61.7875 202.58 63.3877 201.722 64.5772C197.277 71.0953 192.893 74.5435 188.57 74.9217ZM225.322 50.0512C226.73 49.9281 227.526 50.9222 227.711 53.0336C228.058 57.0049 225.115 59.2633 218.882 59.8086C217.675 59.9142 215.921 59.8397 213.619 59.5852C214.545 62.6448 215.377 66.0673 216.113 69.8526C216.895 73.5833 217.394 76.6803 217.61 79.1435C218.085 84.5727 217.568 88.797 216.059 91.8164C214.55 94.8357 212.363 96.4707 209.498 96.7214C205.878 97.0381 203.065 94.7008 201.058 89.7095C199.102 84.7139 197.67 77.0382 196.764 66.6825C195.92 57.0306 196.095 47.1629 197.289 37.0793C198.53 26.941 200.676 18.4711 203.728 11.6696C206.826 4.81336 210.562 1.19394 214.936 0.811311C217.298 0.604601 219.226 1.49975 220.717 3.49675C222.259 5.48936 223.187 8.27026 223.499 11.8395C224.532 23.653 218.595 37.1402 205.688 52.3009C205.616 57.2714 205.743 61.6166 206.068 65.3367C206.521 70.5145 207.161 75.8026 207.988 81.2011C208.819 86.6497 209.637 89.3389 210.441 89.2685C211.95 89.1366 212.475 86.4566 212.018 81.2284C211.675 77.3073 211.066 73.5361 210.192 69.9148C209.368 66.289 208.326 62.4798 207.065 58.487C206.957 57.8379 207.086 56.9909 207.45 55.9459C207.865 54.8965 208.391 53.964 209.029 53.1483C209.667 52.3327 210.262 51.9007 210.815 51.8523C211.821 51.7644 213.031 51.7091 214.448 51.6865C214.905 51.6972 215.435 51.6761 216.038 51.6233C218.049 51.4474 220.27 51.0758 222.703 50.5084C223.101 50.4229 223.524 50.3352 223.972 50.2454C224.42 50.1555 224.87 50.0908 225.322 50.0512ZM214.005 8.415C213.1 8.49417 212.104 10.1264 211.014 13.3116C209.976 16.4925 209.025 20.6787 208.162 25.8704C207.295 31.0118 206.63 36.4394 206.167 42.1532C209.789 37.2268 212.465 32.2058 214.196 27.0901C215.922 21.9243 216.621 17.1775 216.293 12.8498C216.025 9.78332 215.262 8.30505 214.005 8.415ZM249.314 54.5627C249.968 54.5055 250.497 54.7632 250.902 55.3356C251.357 55.9037 251.63 56.7156 251.723 57.7712C251.881 59.581 251.59 61.1767 250.85 62.5585C249.631 64.8433 247.919 66.6901 245.712 68.0989C243.555 69.5033 240.893 70.344 237.726 70.6211C232.9 71.0433 229.03 69.9383 226.115 67.306C223.195 64.6234 221.52 60.8188 221.089 55.8923C220.786 52.4237 221.233 49.1426 222.431 46.0491C223.625 42.9053 225.427 40.3416 227.837 38.3578C230.297 36.3697 233.161 35.2326 236.429 34.9468C239.344 34.6917 241.759 35.3669 243.672 36.9724C245.581 38.5277 246.666 40.7883 246.925 43.7542C247.229 47.2229 246.233 50.3239 243.94 53.0574C241.692 55.7361 237.641 58.0661 231.786 60.0473C233.195 62.2542 235.332 63.2323 238.198 62.9816C240.259 62.8013 241.901 62.1764 243.124 61.1069C244.398 60.033 245.816 58.288 247.377 55.8719C247.915 55.0651 248.56 54.6287 249.314 54.5627ZM235.793 42.4487C233.933 42.6114 232.444 43.8307 231.326 46.1067C230.259 48.3783 229.859 51.0473 230.127 54.1138L230.141 54.2646C233.045 53.3014 235.29 52.0412 236.876 50.4841C238.462 48.927 239.174 47.2184 239.011 45.3584C238.928 44.4033 238.585 43.6734 237.984 43.1688C237.428 42.6095 236.698 42.3695 235.793 42.4487Z" fill="#E879BB"></path> </svg> 