<?xml version="1.0" encoding="UTF-8"?> <svg xmlns="http://www.w3.org/2000/svg" width="416" height="121" viewBox="0 0 416 121" fill="none"> <path d="M26.7881 97.5059C22.314 97.8973 18.1793 97.2459 14.3839 95.5518C10.6388 93.8532 7.54121 91.1609 5.0912 87.4748C2.63679 83.7384 1.17209 79.1557 0.697096 73.7265C0.0285869 66.0854 0.821678 59.2282 3.07637 53.1549C5.38134 47.0773 8.78312 42.246 13.2818 38.6612C17.8306 35.0719 23.0208 33.0222 28.8521 32.512C33.3262 32.1206 37.4358 32.7741 41.1809 34.4727C44.9763 36.1668 48.1012 38.8821 50.5556 42.6185C53.0056 46.3046 54.4681 50.8622 54.9431 56.2914C55.6116 63.9325 54.7934 70.7919 52.4884 76.8696C50.2337 82.9428 46.8319 87.7741 42.2831 91.3633C37.7845 94.9482 32.6195 96.9957 26.7881 97.5059ZM26.7637 88.542C30.6848 88.199 34.0228 86.6912 36.7776 84.0188C39.5827 81.3419 41.6027 77.7966 42.8375 73.3829C44.0679 68.9189 44.4456 63.9723 43.9706 58.5431C43.4473 52.5609 41.7947 48.1465 39.0129 45.3C36.2267 42.4031 32.8479 41.1284 28.8765 41.4758C25.0057 41.8145 21.6929 43.3201 18.938 45.9925C16.1788 48.6147 14.1588 52.16 12.8781 56.6284C11.5931 61.0465 11.1902 65.9953 11.6696 71.4748C12.193 77.457 13.8478 81.8965 16.634 84.7933C19.4158 87.6399 22.7923 88.8895 26.7637 88.542ZM70.27 93.7017C68.0079 93.8996 66.0577 93.0318 64.4195 91.0983C62.8272 89.11 61.8947 86.5576 61.6221 83.4408C61.2922 79.6705 61.2423 76.205 61.4723 73.0443C61.6979 69.8332 62.2349 66.4177 63.0833 62.7976C63.454 61.2455 64.0633 60.1031 64.911 59.3705C65.7587 58.6378 67.1628 58.1857 69.1233 58.0141C70.2293 57.9174 70.9987 58.0274 71.4317 58.3441C71.9149 58.6564 72.1873 59.1644 72.2489 59.8682C72.284 60.2704 72.1263 61.6519 71.7756 64.0127C71.4357 65.9167 71.1808 67.6359 71.0112 69.1704C70.4675 74.5368 70.2727 78.0997 70.4266 79.8591C70.519 80.9148 70.7106 81.6579 71.0016 82.0883C71.2881 82.4685 71.7079 82.6344 72.2608 82.586C73.0149 82.52 73.8789 81.6846 74.8529 80.0797C75.8772 78.4705 76.8836 76.0776 77.8721 72.9012C78.9108 69.7203 79.8377 65.8401 80.6528 61.2605C80.923 59.7172 81.4317 58.5836 82.1788 57.8597C82.9763 57.1314 84.2044 56.6947 85.8634 56.5496C87.0196 56.4484 87.8371 56.5289 88.3159 56.7909C88.7903 57.0027 89.0605 57.4856 89.1265 58.2396C89.2365 59.4964 88.9093 62.9949 88.1452 68.7351C87.3006 75.2929 86.9442 79.3258 87.0762 80.8339C87.1597 81.7891 87.4268 82.5255 87.8773 83.0433C88.3235 83.5108 88.8733 83.716 89.5268 83.6588C90.5322 83.5709 91.6608 82.8643 92.9125 81.539C94.2102 80.1591 95.8942 77.9856 97.9648 75.0184C98.5065 74.2618 99.1543 73.8506 99.9084 73.7846C100.562 73.7274 101.091 73.9851 101.496 74.5575C101.95 75.1256 102.224 75.9375 102.317 76.9931C102.492 79.004 102.151 80.6041 101.293 81.7936C99.3644 84.6471 97.2181 87.0384 94.8542 88.9674C92.5404 90.8921 89.8001 91.993 86.633 92.2701C84.22 92.4812 82.3541 91.7074 81.0351 89.9485C79.7665 88.1853 78.9848 85.6196 78.6901 82.2515C78.1346 85.7446 77.0836 88.496 75.5371 90.5055C73.9863 92.4648 72.2306 93.5302 70.27 93.7017ZM125.67 63.4766C126.776 63.3798 127.741 63.7006 128.565 64.439C129.436 65.1227 129.921 66.0426 130.023 67.1988C130.08 67.8524 129.991 68.5693 129.755 69.3498C129.113 71.2802 128.119 72.9375 126.771 74.3218C125.423 75.7061 123.869 76.4752 122.11 76.6292C120.702 76.7523 119.452 76.3552 118.358 75.4377C117.315 74.5159 116.719 73.2003 116.569 71.4912C116.486 70.536 116.446 69.5011 116.45 68.3863C116.48 67.5732 116.482 67.0158 116.455 66.7142C116.42 66.312 116.293 66.0192 116.074 65.8357C115.906 65.6478 115.696 65.5649 115.445 65.5869C114.741 65.6485 113.861 66.5866 112.804 68.4014C111.742 70.1658 110.729 72.4833 109.765 75.3537C108.8 78.2241 108.075 81.2256 107.589 84.3581C107.247 86.8194 106.76 88.483 106.126 89.3489C105.493 90.2148 104.372 90.7182 102.763 90.8589C100.853 91.026 99.4078 90.1394 98.4276 88.1989C97.4976 86.2541 96.8391 83.0698 96.452 78.646C95.8803 72.1108 96.2671 65.8211 97.6126 59.7767C97.9374 58.2793 98.574 57.1598 99.5222 56.4183C100.516 55.6222 101.943 55.1428 103.803 54.98C104.809 54.8921 105.523 54.9562 105.948 55.1723C106.372 55.3885 106.615 55.8485 106.676 56.5523C106.747 57.3566 106.528 59.1993 106.02 62.0804C105.693 64.1352 105.445 65.9299 105.275 67.4644C105.106 68.9989 105.017 70.8809 105.01 73.1104C106.29 68.642 107.842 64.9603 109.666 62.0654C111.49 59.1705 113.331 57.0591 115.19 55.7314C117.05 54.4036 118.784 53.6694 120.393 53.5287C121.85 53.4011 122.994 53.7317 123.823 54.5203C124.697 55.2542 125.205 56.4255 125.346 58.0342C125.429 58.9893 125.311 60.8233 124.991 63.536L125.67 63.4766ZM193.462 65.5997C194.116 65.5425 194.645 65.8001 195.05 66.3726C195.505 66.9407 195.778 67.7525 195.871 68.8082C196.047 70.819 195.705 72.4192 194.847 73.6087C192.918 76.4622 190.772 78.8534 188.408 80.7825C186.094 82.7072 183.354 83.8081 180.187 84.0852C177.523 84.3183 175.278 83.5523 173.452 81.7871C170.749 83.8978 167.841 85.1146 164.729 85.4376C164.924 95.197 164.149 103.42 162.404 110.108C160.664 116.845 157.556 120.409 153.082 120.801C150.368 121.038 148.271 120.234 146.792 118.388C145.314 116.542 144.423 113.884 144.119 110.416C143.688 105.489 144.316 99.634 146.002 92.8507C147.692 86.1176 150.555 78.5982 154.59 70.2923C153.948 62.9528 153.451 57.8548 153.1 54.9982C152.922 53.5447 153.399 52.3379 154.531 51.3778C155.662 50.4176 157.133 49.8584 158.943 49.7C159.999 49.6077 160.772 49.7679 161.264 50.1808C161.802 50.539 162.151 51.3442 162.312 52.5966C162.422 53.8534 162.528 54.7812 162.631 55.38C164.064 53.2285 165.522 51.6572 167.006 50.6663C168.485 49.6251 170.104 49.0275 171.864 48.8736C174.679 48.6273 177.065 49.5582 179.022 51.6665C181.03 53.7703 182.194 56.6571 182.515 60.3268C182.749 62.9912 182.548 65.6175 181.913 68.2058C181.278 70.794 180.297 73.1847 178.969 75.3777C180.051 75.587 180.944 75.6608 181.648 75.5993C183.307 75.4541 184.838 74.7123 186.24 73.3739C187.643 72.0355 189.402 69.8553 191.519 66.8335C192.061 66.0769 192.708 65.6657 193.462 65.5997ZM164.473 78.1657C166.247 77.6052 167.82 76.4798 169.192 74.7895C170.61 73.0445 171.67 70.9762 172.372 68.5846C173.071 66.1427 173.307 63.6399 173.083 61.0761C172.951 59.568 172.551 58.4633 171.881 57.762C171.208 57.0104 170.368 56.6786 169.363 56.7666C167.553 56.9249 165.534 59.0265 163.304 63.0714C163.447 65.2877 163.706 68.5323 164.08 72.8053C164.282 75.1177 164.413 76.9045 164.473 78.1657ZM153.039 113.358C154.396 113.24 155.268 110.175 155.654 104.164C156.044 98.2027 155.98 90.8127 155.462 81.9934C153.74 87.2095 152.451 92.1599 151.594 96.8444C150.738 101.529 150.446 105.43 150.718 108.547C150.859 110.155 151.168 111.369 151.645 112.189C152.071 113.012 152.536 113.402 153.039 113.358ZM196.357 82.6705C194.447 82.8376 193.002 81.9509 192.022 80.0105C191.092 78.0656 190.433 74.8813 190.046 70.4575C189.474 63.9224 189.861 57.6326 191.207 51.5883C191.532 50.0908 192.168 48.9714 193.116 48.2299C194.11 47.4338 195.538 46.9543 197.398 46.7916C198.403 46.7036 199.118 46.7677 199.542 46.9839C199.966 47.2001 200.209 47.66 200.27 48.3638C200.341 49.1682 200.122 51.0109 199.614 53.892C199.288 55.9468 199.039 57.7414 198.87 59.2759C198.7 60.8104 198.611 62.6924 198.604 64.9219C199.884 60.4535 201.437 56.7719 203.26 53.877C205.084 50.982 206.925 48.8707 208.785 47.543C210.694 46.2108 212.479 45.4722 214.138 45.327C217.405 45.0412 219.182 46.532 219.468 49.7996C219.525 50.4531 219.437 52.0564 219.205 54.6095C218.978 56.6555 218.887 57.9299 218.931 58.4326C219.085 60.192 219.791 61.0168 221.047 60.9068C222.455 60.7837 224.168 59.5194 226.186 57.114C226.783 56.4033 227.433 56.0172 228.136 55.9556C228.79 55.8984 229.319 56.1561 229.724 56.7285C230.174 57.2463 230.441 57.9828 230.525 58.9379C230.688 60.7979 230.312 62.2997 229.399 63.4434C228.119 65.0244 226.57 66.4263 224.753 67.6491C222.98 68.8172 221.039 69.4936 218.927 69.6784C216.263 69.9115 214.168 69.4109 212.641 68.1768C211.165 66.9382 210.326 65.1627 210.124 62.8503C210.058 62.0962 210.067 61.3356 210.152 60.5683C210.165 59.5541 210.156 58.8711 210.125 58.5192C210.055 57.7149 209.743 57.3369 209.19 57.3853C208.436 57.4512 207.505 58.3938 206.398 60.2129C205.337 61.9774 204.324 64.2949 203.359 67.1653C202.394 70.0357 201.669 73.0372 201.183 76.1696C200.837 78.5807 200.324 80.2465 199.645 81.1671C199.012 82.033 197.916 82.5341 196.357 82.6705ZM231.655 38.7796C229.543 38.9644 227.918 38.6253 226.779 37.7625C225.635 36.8495 224.986 35.5132 224.832 33.7538C224.678 31.9943 225.229 30.4771 226.486 29.2021C227.788 27.8725 229.469 27.1175 231.53 26.9372C233.39 26.7745 234.938 27.095 236.173 27.8987C237.409 28.7024 238.099 29.9337 238.244 31.5926C238.42 33.6034 237.907 35.2693 236.706 36.5901C235.5 37.8607 233.816 38.5905 231.655 38.7796ZM234.594 79.3252C231.326 79.6111 228.837 78.6638 227.127 76.4833C225.467 74.2984 224.47 71.2957 224.135 67.4751C223.937 65.2129 223.961 62.2982 224.206 58.7309C224.497 55.1089 224.961 51.7251 225.597 48.5795C225.909 46.9312 226.416 45.7725 227.117 45.1033C227.818 44.4341 228.998 44.0269 230.657 43.8817C233.221 43.6574 234.578 44.3999 234.727 46.1091C234.837 47.3658 234.615 50.3233 234.06 54.9815C233.337 60.6168 233.062 64.4147 233.233 66.3752C233.365 67.8833 233.667 69.022 234.14 69.7911C234.612 70.5603 235.326 70.903 236.281 70.8195C237.186 70.7403 238.262 70.013 239.51 68.6375C240.757 67.262 242.393 65.118 244.418 62.2054C244.959 61.4489 245.607 61.0376 246.361 60.9716C247.015 60.9145 247.544 61.1721 247.948 61.7446C248.403 62.3126 248.677 63.1245 248.769 64.1802C248.945 66.191 248.604 67.7911 247.746 68.9807C243.301 75.4988 238.917 78.947 234.594 79.3252ZM279.9 51.8828C280.046 51.8193 280.295 51.7722 280.647 51.7414C281.401 51.6755 282.001 51.8762 282.447 52.3438C282.893 52.8113 283.154 53.4723 283.229 54.3269C283.365 55.8853 283.171 57.1433 282.647 58.101C282.119 59.0083 281.269 59.7159 280.097 60.2236C277.851 61.18 275.421 61.7725 272.807 62.0012C270.595 62.1947 268.482 62.0756 266.469 61.6439C265.218 64.1342 263.822 66.713 262.283 69.3805C260.523 72.4218 258.96 74.5341 257.594 75.7173C256.229 76.9005 254.616 77.5735 252.756 77.7362C250.695 77.9165 248.991 77.2552 247.644 75.7521C246.347 74.2446 245.396 71.7697 244.791 68.3274C243.572 61.3423 242.731 55.2106 242.269 49.9322L242.038 47.293C241.944 45.6297 242.295 44.4339 243.092 43.7056C243.89 42.9773 245.143 42.5384 246.852 42.3889C248.159 42.2745 249.141 42.4926 249.797 43.0431C250.499 43.5389 250.909 44.4654 251.028 45.8227C251.534 51.6038 252.543 59.0884 254.056 68.2766C256.681 63.5387 258.631 59.7716 259.906 56.9753C259.024 55.5834 258.495 53.8821 258.319 51.8713C258.17 50.1621 258.402 48.4702 259.015 46.7955C259.628 45.1209 260.545 43.7237 261.764 42.604C262.983 41.4842 264.422 40.8518 266.081 40.7066C267.539 40.5791 268.766 41.0036 269.763 41.9801C270.756 42.9063 271.338 44.3497 271.51 46.3102C271.708 48.5724 271.331 51.2141 270.38 54.2354C272.281 53.9677 274.787 53.3686 277.897 52.438L279.9 51.8828ZM284.821 34.1281C282.71 34.3129 281.085 33.9738 279.945 33.1111C278.802 32.198 278.153 30.8618 277.999 29.1023C277.845 27.3428 278.396 25.8256 279.652 24.5506C280.954 23.221 282.636 22.466 284.697 22.2857C286.557 22.123 288.105 22.4435 289.34 23.2472C290.576 24.0509 291.266 25.2822 291.411 26.9411C291.587 28.9519 291.074 30.6178 289.873 31.9386C288.667 33.2092 286.983 33.939 284.821 34.1281ZM287.761 74.6737C284.493 74.9596 282.004 74.0123 280.294 71.8318C278.634 69.6469 277.636 66.6442 277.302 62.8236C277.104 60.5615 277.128 57.6467 277.373 54.0794C277.664 50.4574 278.128 47.0736 278.764 43.928C279.076 42.2797 279.582 41.121 280.284 40.4518C280.985 39.7826 282.165 39.3754 283.824 39.2303C286.388 39.006 287.745 39.7484 287.894 41.4576C288.004 42.7144 287.782 45.6718 287.227 50.33C286.504 55.9653 286.228 59.7632 286.4 61.7237C286.532 63.2319 286.834 64.3705 287.307 65.1396C287.779 65.9088 288.493 66.2516 289.448 66.168C290.353 66.0888 291.429 65.3615 292.676 63.986C293.924 62.6105 295.56 60.4665 297.584 57.5539C298.126 56.7974 298.774 56.3861 299.528 56.3201C300.182 56.263 300.711 56.5206 301.115 57.0931C301.57 57.6611 301.844 58.473 301.936 59.5287C302.112 61.5395 301.771 63.1397 300.913 64.3292C296.468 70.8473 292.084 74.2955 287.761 74.6737ZM324.117 54.1689C324.771 54.1117 325.3 54.3693 325.705 54.9418C326.16 55.5098 326.433 56.3217 326.526 57.3774C326.701 59.3882 326.36 60.9884 325.502 62.1779C323.573 65.0313 321.402 67.4248 318.988 69.3583C316.624 71.2874 313.833 72.3927 310.616 72.6742C306.192 73.0612 302.723 71.3385 300.21 67.5059C297.747 63.669 296.236 58.5584 295.677 52.1741C295.141 46.0411 295.308 38.9853 296.181 31.0068C297.103 23.0239 298.852 16.0831 301.425 10.1846C304.05 4.28159 307.498 1.14319 311.771 0.769359C314.184 0.55825 316.168 1.5244 317.723 3.66782C319.325 5.75657 320.308 8.88717 320.673 13.0596C321.196 19.0418 320.144 26.1243 317.517 34.307C314.889 42.4897 311.074 50.7004 306.071 58.939C306.603 60.9693 307.311 62.4017 308.194 63.2362C309.073 64.0204 310.167 64.3554 311.474 64.241C313.535 64.0607 315.294 63.3242 316.751 62.0317C318.204 60.6889 320.011 58.4792 322.174 55.4027C322.715 54.6461 323.363 54.2348 324.117 54.1689ZM310.765 8.37965C309.609 8.4808 308.485 10.6814 307.392 14.9814C306.299 19.2814 305.47 24.5714 304.905 30.8514C304.34 37.1314 304.256 43.1161 304.652 48.8054C307.707 42.6115 310.033 36.4814 311.629 30.415C313.222 24.2984 313.805 18.802 313.378 13.9258C313.044 10.1052 312.173 8.2565 310.765 8.37965ZM353.765 51.5751C354.418 51.5179 354.947 51.7755 355.352 52.348C355.807 52.916 356.081 53.7279 356.173 54.7836C356.349 56.7944 356.008 58.3946 355.149 59.5841C353.487 62.009 351.03 64.3261 347.779 66.5354C344.578 68.7404 341.042 70.0122 337.171 70.3508C331.893 70.8126 327.671 69.7384 324.504 67.1281C321.338 64.5177 319.537 60.7242 319.102 55.7474C318.798 52.2788 319.246 48.9977 320.444 45.9042C321.638 42.7604 323.44 40.1967 325.85 38.2129C328.31 36.2247 331.174 35.0877 334.441 34.8018C337.357 34.5467 339.771 35.222 341.685 36.8275C343.594 38.3827 344.678 40.6434 344.938 43.6093C345.241 47.078 344.246 50.179 341.952 52.9124C339.705 55.5912 335.679 57.919 329.874 59.8958C331.333 62.0983 333.822 63.0456 337.341 62.7377C339.603 62.5398 342.099 61.5363 344.828 59.7272C347.603 57.8635 349.934 55.5574 351.821 52.8089C352.363 52.0523 353.011 51.641 353.765 51.5751ZM333.806 42.3037C331.946 42.4665 330.457 43.6858 329.339 45.9618C328.271 48.2334 327.872 50.9024 328.14 53.9689L328.153 54.1197C331.058 53.1564 333.303 51.8962 334.889 50.3391C336.475 48.782 337.186 47.0735 337.024 45.2135C336.94 44.2583 336.598 43.5285 335.996 43.0239C335.441 42.4646 334.711 42.2246 333.806 42.3037ZM387.989 48.7328C388.643 48.6756 389.174 48.9584 389.583 49.5811C390.038 50.1492 390.307 50.9108 390.391 51.8659C390.492 53.0221 390.395 53.9424 390.1 54.6267C389.806 55.311 389.303 55.9375 388.593 56.5061C384.525 59.8001 381.547 62.2388 379.659 63.8223L375.117 67.4869C374.117 78.06 372.318 86.4489 369.721 92.6534C367.177 98.9039 363.518 102.238 358.742 102.656C356.179 102.88 354.022 102.258 352.273 100.791C350.528 99.3728 349.543 97.3821 349.319 94.8183C349.006 91.2491 350.078 87.2803 352.532 82.9118C354.991 78.5936 359.829 73.1048 367.048 66.4453L367.243 63.4649C366.507 64.897 365.468 66.0516 364.127 66.9288C362.831 67.7513 361.504 68.222 360.147 68.3407C357.03 68.6134 354.443 67.7 352.385 65.6006C350.327 63.5011 349.138 60.6166 348.817 56.9468C348.465 52.9252 349.063 49.0484 350.611 45.3165C352.154 41.5343 354.364 38.4282 357.242 35.9983C360.165 33.5137 363.361 32.1197 366.829 31.8163C367.935 31.7195 368.684 31.8819 369.076 32.3036C369.513 32.6706 369.906 33.396 370.254 34.48C371.191 34.1953 372.288 33.9981 373.545 33.8881C374.802 33.7781 375.699 33.9023 376.237 34.2604C376.821 34.564 377.161 35.2687 377.258 36.3746C377.311 36.9779 377.327 37.4577 377.308 37.8139C377.243 39.3899 376.96 43.3911 376.459 49.8175C376.363 51.0416 376.253 52.3936 376.13 53.8734C376.052 55.2986 375.957 56.8265 375.847 58.4571C379.454 55.1022 382.941 52.1125 386.307 49.4878C386.926 49.0284 387.486 48.7768 387.989 48.7328ZM362.195 60.4873C363.352 60.3861 364.396 59.5856 365.329 58.0856C366.261 56.5857 366.839 54.5089 367.063 51.8553L368.348 38.7498C366.291 38.9804 364.451 39.9519 362.828 41.6642C361.201 43.3262 359.969 45.4602 359.133 48.0661C358.297 50.6719 358.003 53.3824 358.249 56.1976C358.385 57.756 358.788 58.8858 359.457 59.5871C360.177 60.284 361.09 60.584 362.195 60.4873ZM358.932 95.269C360.189 95.159 361.464 93.5277 362.759 90.3752C364.104 87.2182 365.217 82.2833 366.098 75.5703C362.518 79.2268 359.99 82.462 358.514 85.2758C357.037 88.0897 356.387 90.502 356.563 92.5129C356.638 93.3675 356.85 94.058 357.2 94.5846C357.601 95.1068 358.178 95.3349 358.932 95.269ZM412.644 48.7033C413.298 48.6461 413.827 48.9037 414.231 49.4762C414.686 50.0442 414.96 50.8561 415.052 51.9118C415.211 53.7215 414.92 55.3173 414.179 56.6991C412.961 58.9839 411.248 60.8306 409.041 62.2394C406.885 63.6439 404.223 64.4846 401.056 64.7617C396.23 65.1839 392.359 64.0788 389.444 61.4465C386.525 58.7639 384.85 54.9594 384.419 50.0329C384.115 46.5643 384.563 43.2832 385.761 40.1897C386.955 37.0459 388.757 34.4821 391.167 32.4984C393.627 30.5102 396.491 29.3732 399.758 29.0873C402.674 28.8322 405.089 29.5074 407.002 31.113C408.911 32.6682 409.995 34.9288 410.255 37.8948C410.558 41.3635 409.563 44.4645 407.27 47.1979C405.022 49.8767 400.971 52.2067 395.116 54.1879C396.525 56.3948 398.662 57.3728 401.527 57.1222C403.588 56.9418 405.231 56.3169 406.454 55.2474C407.728 54.1736 409.145 52.4286 410.707 50.0125C411.244 49.2056 411.89 48.7692 412.644 48.7033ZM399.123 36.5892C397.263 36.7519 395.774 37.9713 394.656 40.2473C393.588 42.5189 393.189 45.1879 393.457 48.2544L393.47 48.4052C396.375 47.4419 398.62 46.1817 400.206 44.6246C401.792 43.0675 402.504 41.359 402.341 39.499C402.257 38.5438 401.915 37.814 401.314 37.3094C400.758 36.7501 400.028 36.51 399.123 36.5892Z" fill="#6CB9F0"></path> </svg> 