<?xml version="1.0" encoding="UTF-8"?>
<svg xmlns="http://www.w3.org/2000/svg" width="429" height="112" viewBox="0 0 429 112" fill="none"> <path d="M76.9007 74.6531C77.5542 74.596 78.0833 74.8536 78.488 75.4261C78.9429 75.9941 79.2166 76.806 79.309 77.8617C79.4805 79.8222 79.1393 81.4224 78.2853 82.6621C76.1274 85.7889 73.8872 88.2644 71.5647 90.0886C69.2378 91.8625 66.3902 92.8967 63.0221 93.1914C59.3021 93.5169 56.1662 92.7021 53.6144 90.7472C51.0582 88.742 48.5472 85.5172 46.0815 81.0726C44.2831 77.8867 42.8108 75.5334 41.6647 74.0127C40.5644 72.4374 39.5081 71.3647 38.4958 70.7948C37.4791 70.1745 36.2352 69.8528 34.7642 69.8295L34.4229 75.4821C33.9962 82.7631 32.3881 88.1213 29.5987 91.5566C26.8595 94.9875 22.8256 96.9361 17.497 97.4023C14.0283 97.7058 10.8641 97.1468 8.00437 95.7254C5.1905 94.2493 3.14138 92.2504 1.857 89.7287C1.42595 88.8546 1.16424 87.8897 1.07188 86.834C0.939934 85.3259 1.17748 83.9881 1.7845 82.8206C2.39153 81.6531 3.24802 81.0209 4.35397 80.9242C5.00748 80.867 5.57585 80.9946 6.05907 81.3069C6.53789 81.5689 7.01357 82.0845 7.4861 82.8536C9.29957 85.633 10.835 87.5502 12.0924 88.6052C13.4 89.6559 14.9336 90.1043 16.693 89.9503C18.7038 89.7744 20.3339 88.72 21.5831 86.7871C22.8782 84.7996 23.6603 81.8691 23.9293 77.9958L24.3582 70.7399L23.1517 70.8455C21.9955 70.9466 21.0621 70.6991 20.3514 70.1027C19.6407 69.5064 19.2348 68.6301 19.1336 67.4739C19.0192 66.1668 19.2558 65.1077 19.8434 64.2965C20.4768 63.4306 21.2962 62.9537 22.3016 62.8657L24.79 62.648C24.9264 60.154 25.0282 58.4228 25.0955 57.4544L25.9487 40.2837C24.6284 40.2472 23.3902 40.2796 22.234 40.3807C17.961 40.7546 14.7846 41.7923 12.7046 43.4939C10.6203 45.1453 9.69902 47.3534 9.94092 50.1183C10.0509 51.375 10.2667 52.3946 10.5884 53.1769C10.956 53.9046 11.4078 54.7262 11.9438 55.6417C12.1801 56.0263 12.3202 56.4699 12.3642 56.9726C12.4609 58.0786 12.0189 59.105 11.038 60.052C10.1029 60.9443 9.00702 61.4454 7.75026 61.5554C6.14161 61.6961 4.89868 61.0957 4.02148 59.7541C2.28027 57.2217 1.27552 54.4222 1.00724 51.3557C0.730159 48.1887 1.33187 45.2234 2.81236 42.4598C4.34312 39.6918 6.7998 37.3747 10.1824 35.5084C13.5606 33.5919 17.8386 32.4072 23.0164 31.9542C25.2786 31.7562 27.3507 31.7016 29.2327 31.7902C31.1649 31.8744 33.2929 32.1695 35.6167 32.6754C38.1459 33.2139 39.5007 34.5137 39.681 36.5748C39.9229 39.3397 38.8625 40.8255 36.4998 41.0322L35.3336 61.5736C41.1624 60.4558 45.7182 57.5244 49.0009 52.7796C52.3295 47.98 54.8912 41.652 56.6859 33.7954C57.0152 32.3482 57.6747 31.2014 58.6644 30.355C59.7044 29.5042 61.0538 29.0062 62.7128 28.8611C64.1203 28.7379 65.2297 28.9701 66.041 29.5577C66.8981 30.0906 67.3772 30.9351 67.4783 32.0913C67.5091 32.4432 67.4592 33.0301 67.3285 33.852C65.5406 42.3666 62.5224 49.2665 58.2739 54.5517C54.0254 59.8369 49.2066 63.5258 43.8176 65.6182C45.7675 65.9035 47.3852 66.4458 48.6709 67.2452C50.0068 68.0401 51.1614 69.0788 52.1348 70.3613C53.1037 71.5936 54.2445 73.3427 55.5572 75.6087C57.4058 78.7902 59.0704 81.0253 60.5508 82.3141C62.0269 83.5527 63.6698 84.0928 65.4795 83.9345C67.0882 83.7937 68.5752 83.1318 69.9407 81.9485C71.3018 80.715 72.9739 78.6945 74.9571 75.8869C75.4988 75.1304 76.1467 74.7191 76.9007 74.6531ZM80.7079 50.8414C78.5965 51.0261 76.9713 50.6871 75.832 49.8243C74.6884 48.9112 74.0396 47.575 73.8856 45.8155C73.7317 44.0561 74.2828 42.5388 75.539 41.2639C76.841 39.9342 78.5225 39.1793 80.5836 38.9989C82.4436 38.8362 83.9913 39.1567 85.2267 39.9604C86.4621 40.7641 87.1523 41.9954 87.2975 43.6544C87.4734 45.6652 86.9606 47.331 85.7592 48.6518C84.5533 49.9224 82.8695 50.6523 80.7079 50.8414ZM83.6473 91.3869C80.3797 91.6728 77.8907 90.7255 76.1803 88.545C74.5202 86.3601 73.523 83.3574 73.1887 79.5369C72.9908 77.2747 73.0144 74.3599 73.2595 70.7926C73.5505 67.1707 74.0143 63.7869 74.6508 60.6412C74.9625 58.993 75.469 57.8342 76.1703 57.165C76.8716 56.4958 78.0517 56.0886 79.7106 55.9435C82.2744 55.7192 83.6311 56.4616 83.7806 58.1708C83.8905 59.4276 83.6681 62.385 83.1132 67.0432C82.3905 72.6785 82.1149 76.4764 82.2864 78.437C82.4183 79.9451 82.7206 81.0837 83.1931 81.8529C83.6656 82.622 84.3795 82.9648 85.3346 82.8812C86.2395 82.8021 87.3156 82.0747 88.5629 80.6992C89.8103 79.3237 91.4463 77.1797 93.471 74.2672C94.0126 73.5106 94.6605 73.0993 95.4146 73.0334C96.0681 72.9762 96.5972 73.2338 97.0018 73.8063C97.4568 74.3744 97.7304 75.1862 97.8228 76.2419C97.9987 78.2527 97.6575 79.8529 96.7991 81.0424C92.3545 87.5605 87.9706 91.0087 83.6473 91.3869ZM98.2831 90.1065C96.3728 90.2736 94.9275 89.3869 93.9473 87.4465C93.0173 85.5017 92.3588 82.3173 91.9718 77.8935C91.4 71.3584 91.7869 65.0686 93.1323 59.0243C93.4572 57.5269 94.0937 56.4074 95.042 55.6659C96.0361 54.8698 97.4631 54.3903 99.3231 54.2276C100.329 54.1397 101.043 54.2038 101.467 54.4199C101.892 54.6361 102.134 55.0961 102.196 55.7999C102.266 56.6042 102.048 58.4469 101.54 61.328C101.213 63.3828 100.965 65.1775 100.795 66.712C100.626 68.2465 100.537 70.1284 100.529 72.3579C101.81 67.8895 103.362 64.2079 105.186 61.313C107.009 58.418 108.851 56.3067 110.71 54.979C112.62 53.6468 114.404 52.9082 116.063 52.7631C119.331 52.4772 121.107 53.968 121.393 57.2356C121.565 59.1961 121.322 62.7886 120.665 68.0129C120.092 72.47 119.867 75.4023 119.991 76.8099C120.167 78.8207 120.983 79.7624 122.441 79.6348C123.447 79.5469 124.575 78.8403 125.827 77.515C127.125 76.1351 128.809 73.9616 130.879 70.9944C131.421 70.2378 132.069 69.8266 132.823 69.7606C133.476 69.7034 134.005 69.961 134.41 70.5335C134.865 71.1016 135.139 71.9134 135.231 72.9691C135.407 74.9799 135.066 76.5801 134.207 77.7696C132.279 80.6231 130.133 83.0143 127.769 84.9434C125.455 86.8681 122.714 87.969 119.547 88.2461C116.984 88.4704 114.984 87.9108 113.55 86.5673C112.111 85.1735 111.268 83.0691 111.022 80.254C110.899 78.8464 111.031 76.3021 111.418 72.621C111.794 69.3968 111.93 67.1815 111.824 65.975C111.754 65.1707 111.442 64.7927 110.889 64.8411C110.236 64.8982 109.381 65.8342 108.324 67.649C107.312 69.409 106.3 71.7265 105.285 74.6013C104.32 77.4717 103.595 80.4732 103.109 83.6056C102.763 86.0167 102.25 87.6826 101.571 88.6031C100.937 89.469 99.8415 89.9701 98.2831 90.1065ZM171.664 66.3624C172.317 66.3053 172.846 66.5629 173.251 67.1354C173.706 67.7034 173.98 68.5153 174.072 69.571C174.248 71.5818 173.907 73.1819 173.048 74.3715C171.207 77.0653 169.134 79.4248 166.829 81.4501C164.52 83.4251 162.159 84.5181 159.746 84.7292C155.925 85.0635 152.814 83.0815 150.411 78.7834C148.533 81.6324 146.829 83.5797 145.3 84.6254C143.821 85.6666 142.025 86.2795 139.914 86.4642C136.848 86.7325 134.21 85.8235 132.001 83.7373C129.838 81.5964 128.596 78.6911 128.275 75.0213C127.923 70.9997 128.453 67.2049 129.863 63.637C131.268 60.0188 133.36 56.9992 136.137 54.578C138.959 52.1023 142.213 50.5006 145.898 49.7729C146 39.9369 147.082 31.4588 149.143 24.3387C151.251 17.1639 154.492 13.3852 158.865 13.0025C161.027 12.8134 162.897 13.6376 164.476 15.475C166.106 17.308 167.094 20.2101 167.441 24.1815C167.934 29.8118 167.128 36.5182 165.023 44.3006C162.917 52.0831 159.9 60.148 155.97 68.4953C156.426 71.3934 157.036 73.4422 157.799 74.6418C158.613 75.837 159.548 76.3884 160.604 76.296C161.961 76.1773 163.29 75.4531 164.592 74.1235C165.895 72.7938 167.604 70.6181 169.72 67.5962C170.262 66.8397 170.91 66.4284 171.664 66.3624ZM158.682 20.4649C157.727 20.5484 156.922 22.3412 156.265 25.8431C155.605 29.2948 155.163 33.7912 154.938 39.3322C154.764 44.8689 154.788 50.6415 155.01 56.65C159.567 43.8915 161.52 33.7922 160.869 26.3522C160.702 24.4419 160.396 22.9743 159.952 21.9494C159.558 20.9201 159.135 20.4253 158.682 20.4649ZM141.887 78.6174C142.842 78.5338 143.764 78.0732 144.653 77.2356C145.538 76.3477 146.617 74.7843 147.89 72.5454C147.15 69.8748 146.633 66.8554 146.338 63.4873C146.232 62.2808 146.111 60.3159 145.974 57.5925C143.284 58.689 141.134 60.7513 139.525 63.7794C137.962 66.7529 137.332 69.974 137.635 73.4426C137.956 77.1124 139.373 78.8373 141.887 78.6174ZM201.272 63.7721C201.925 63.7149 202.454 63.9726 202.859 64.545C203.314 65.1131 203.587 65.9249 203.68 66.9806C203.856 68.9914 203.515 70.5916 202.656 71.7811C200.994 74.206 198.537 76.5231 195.286 78.7325C192.085 80.9374 188.549 82.2092 184.678 82.5479C179.4 83.0097 175.178 81.9354 172.011 79.3251C168.845 76.7148 167.044 72.9212 166.609 67.9444C166.305 64.4758 166.753 61.1947 167.951 58.1012C169.145 54.9574 170.947 52.3937 173.357 50.4099C175.817 48.4218 178.681 47.2847 181.948 46.9989C184.864 46.7438 187.278 47.419 189.192 49.0245C191.101 50.5798 192.185 52.8404 192.445 55.8063C192.748 59.275 191.753 62.376 189.459 65.1095C187.212 67.7882 183.186 70.116 177.381 72.0928C178.84 74.2953 181.329 75.2426 184.848 74.9347C187.11 74.7368 189.606 73.7333 192.335 71.9243C195.11 70.0605 197.441 67.7544 199.328 65.0059C199.87 64.2493 200.518 63.8381 201.272 63.7721ZM181.313 54.5008C179.453 54.6635 177.964 55.8828 176.846 58.1588C175.778 60.4304 175.379 63.0994 175.647 66.1659L175.66 66.3167C178.564 65.3535 180.81 64.0933 182.396 62.5362C183.982 60.9791 184.693 59.2705 184.531 57.4105C184.447 56.4554 184.105 55.7255 183.503 55.2209C182.948 54.6616 182.218 54.4216 181.313 54.5008ZM204.101 80.8486C202.191 81.0157 200.746 80.1291 199.765 78.1886C198.835 76.2438 198.177 73.0595 197.79 68.6357C197.218 62.1005 197.605 55.8108 198.95 49.7664C199.275 48.269 199.912 47.1495 200.86 46.408C201.854 45.6119 203.281 45.1325 205.141 44.9697C206.147 44.8818 206.861 44.9459 207.286 45.162C207.71 45.3782 207.953 45.8382 208.014 46.542C208.085 47.3463 207.866 49.189 207.358 52.0701C207.031 54.1249 206.783 55.9196 206.613 57.4541C206.444 58.9886 206.355 60.8706 206.348 63.1C207.628 58.6317 209.18 54.95 211.004 52.0551C212.828 49.1602 214.669 47.0488 216.528 45.7211C218.438 44.3889 220.222 43.6503 221.881 43.5052C225.149 43.2193 226.926 44.7101 227.212 47.9777C227.269 48.6312 227.181 50.2345 226.948 52.7876C226.722 54.8336 226.631 56.108 226.675 56.6107C226.829 58.3702 227.534 59.1949 228.791 59.085C230.199 58.9618 231.912 57.6975 233.93 55.2921C234.526 54.5814 235.176 54.1953 235.88 54.1337C236.534 54.0765 237.063 54.3342 237.468 54.9066C237.918 55.4244 238.185 56.1609 238.269 57.116C238.431 58.976 238.056 60.4779 237.143 61.6215C235.863 63.2025 234.314 64.6044 232.496 65.8272C230.724 66.9953 228.783 67.6718 226.671 67.8565C224.007 68.0896 221.912 67.589 220.385 66.3549C218.909 65.1163 218.07 63.3408 217.868 61.0284C217.802 60.2744 217.811 59.5137 217.896 58.7465C217.909 57.7322 217.899 57.0492 217.869 56.6973C217.798 55.893 217.487 55.515 216.934 55.5634C216.18 55.6294 215.249 56.5719 214.142 58.3911C213.08 60.1555 212.067 62.473 211.103 65.3434C210.138 68.2138 209.413 71.2153 208.927 74.3477C208.581 76.7588 208.068 78.4247 207.389 79.3452C206.756 80.2111 205.66 80.7123 204.101 80.8486ZM270.18 57.8954C270.833 57.8382 271.364 58.121 271.773 58.7437C272.228 59.3118 272.498 60.0734 272.581 61.0285C272.682 62.1847 272.586 63.105 272.291 63.7893C271.996 64.4736 271.494 65.1001 270.784 65.6688C266.715 68.9627 263.738 71.4014 261.85 72.9849L257.308 76.6495C256.308 87.2226 254.509 95.6115 251.911 101.816C249.368 108.067 245.709 111.401 240.933 111.818C238.369 112.043 236.213 111.421 234.463 109.953C232.718 108.535 231.734 106.545 231.509 103.981C231.197 100.412 232.268 96.4429 234.723 92.0744C237.181 87.7562 242.02 82.2674 249.238 75.6079L249.433 72.6275C248.698 74.0596 247.659 75.2142 246.317 76.0914C245.022 76.9139 243.695 77.3846 242.338 77.5033C239.221 77.776 236.634 76.8626 234.576 74.7632C232.518 72.6638 231.328 69.7792 231.007 66.1094C230.655 62.0878 231.253 58.211 232.801 54.4791C234.344 50.6969 236.555 47.5908 239.432 45.1609C242.355 42.6764 245.551 41.2823 249.02 40.9789C250.126 40.8821 250.875 41.0446 251.266 41.4662C251.704 41.8332 252.096 42.5586 252.444 43.6426C253.382 43.358 254.479 43.1607 255.736 43.0507C256.993 42.9408 257.89 43.0649 258.428 43.4231C259.012 43.7266 259.352 44.4313 259.449 45.5372C259.501 46.1405 259.518 46.6203 259.498 46.9766C259.434 48.5525 259.151 52.5537 258.649 58.9802C258.554 60.2042 258.444 61.5562 258.32 63.036C258.242 64.4612 258.148 65.9891 258.037 67.6197C261.644 64.2649 265.131 61.2751 268.498 58.6504C269.116 58.191 269.677 57.9394 270.18 57.8954ZM244.386 69.6499C245.542 69.5487 246.587 68.7482 247.519 67.2482C248.452 65.7483 249.03 63.6715 249.254 61.0179L250.538 47.9124C248.482 48.143 246.642 49.1145 245.019 50.8268C243.391 52.4888 242.16 54.6228 241.324 57.2287C240.488 59.8345 240.193 62.5451 240.44 65.3602C240.576 66.9186 240.979 68.0484 241.648 68.7497C242.367 69.4466 243.28 69.7466 244.386 69.6499ZM241.122 104.432C242.379 104.322 243.655 102.69 244.949 99.5378C246.294 96.3808 247.407 91.4459 248.289 84.7329C244.708 88.3894 242.18 91.6246 240.704 94.4384C239.228 97.2523 238.578 99.6646 238.754 101.675C238.829 102.53 239.041 103.221 239.391 103.747C239.791 104.269 240.368 104.498 241.122 104.432ZM277.684 74.4109C274.567 74.6836 271.98 73.7702 269.922 71.6708C267.864 69.5714 266.675 66.6868 266.354 63.017C266.002 58.9954 266.6 55.1186 268.147 51.3867C269.691 47.6045 271.901 44.4984 274.779 42.0685C277.702 39.584 280.898 38.1899 284.366 37.8865C285.472 37.7897 286.221 37.9521 286.613 38.3738C287.05 38.7408 287.443 39.4662 287.791 40.5502C288.829 40.2568 289.926 40.0595 291.082 39.9583C293.545 39.7428 294.854 40.5148 295.008 42.2742C295.1 43.3299 294.943 45.8764 294.537 49.9138C293.886 55.796 293.66 59.8682 293.858 62.1304C293.924 62.8844 294.152 63.4723 294.544 63.8939C294.986 64.3112 295.508 64.4934 296.111 64.4406C297.067 64.3571 298.17 63.6527 299.422 62.3274C300.669 60.9519 302.328 58.7806 304.399 55.8134C304.94 55.0568 305.588 54.6456 306.342 54.5796C306.996 54.5224 307.525 54.7801 307.929 55.3525C308.384 55.9206 308.658 56.7325 308.75 57.7881C308.926 59.7989 308.585 61.3991 307.727 62.5886C305.89 65.3327 303.892 67.6857 301.734 69.6475C299.575 71.6092 297.415 72.6847 295.254 72.8738C293.595 73.0189 292.013 72.6001 290.509 71.6173C289.05 70.5798 287.883 69.1116 287.008 67.2126C284.763 71.664 281.655 74.0635 277.684 74.4109ZM279.732 66.5575C280.838 66.4607 281.837 65.7148 282.728 64.3198C283.619 62.9248 284.196 61.1267 284.459 58.9255L286.036 44.8068C283.929 45.0418 282.038 46.0177 280.365 47.7344C278.738 49.3964 277.506 51.5304 276.67 54.1363C275.834 56.7421 275.54 59.4526 275.786 62.2678C275.922 63.8262 276.325 64.956 276.994 65.6573C277.714 66.3542 278.626 66.6542 279.732 66.5575ZM332.09 44.2728C333.196 44.1761 334.161 44.4969 334.985 45.2352C335.855 45.9189 336.341 46.8389 336.442 47.9951C336.5 48.6486 336.41 49.3656 336.175 50.146C335.533 52.0764 334.538 53.7337 333.19 55.118C331.843 56.5023 330.289 57.2715 328.529 57.4254C327.122 57.5485 325.871 57.1514 324.778 56.2339C323.735 55.3121 323.139 53.9966 322.989 52.2874C322.905 51.3322 322.866 50.2973 322.869 49.1826C322.9 48.3694 322.901 47.8121 322.875 47.5104C322.84 47.1083 322.713 46.8155 322.494 46.632C322.326 46.4441 322.116 46.3611 321.865 46.3831C321.161 46.4447 320.28 47.3828 319.224 49.1976C318.162 50.9621 317.149 53.2795 316.185 56.1499C315.22 59.0204 314.495 62.0218 314.009 65.1543C313.667 67.6156 313.18 69.2793 312.546 70.1452C311.913 71.0111 310.792 71.5144 309.183 71.6551C307.273 71.8223 305.827 70.9356 304.847 68.9951C303.917 67.0503 303.259 63.866 302.872 59.4422C302.3 52.907 302.687 46.6173 304.032 40.5729C304.357 39.0755 304.994 37.956 305.942 37.2146C306.936 36.4184 308.363 35.939 310.223 35.7763C311.228 35.6883 311.943 35.7524 312.367 35.9686C312.792 36.1847 313.034 36.6447 313.096 37.3485C313.166 38.1528 312.948 39.9955 312.44 42.8767C312.113 44.9315 311.865 46.7261 311.695 48.2606C311.526 49.7951 311.437 51.6771 311.429 53.9066C312.71 49.4382 314.262 45.7565 316.086 42.8616C317.909 39.9667 319.751 37.8554 321.61 36.5276C323.47 35.1999 325.204 34.4656 326.812 34.3249C328.27 34.1973 329.413 34.5279 330.242 35.3165C331.117 36.0505 331.625 37.2218 331.765 38.8304C331.849 39.7856 331.731 41.6195 331.411 44.3322L332.09 44.2728ZM373.291 48.7224C373.944 48.6652 374.473 48.9228 374.878 49.4953C375.333 50.0634 375.606 50.8752 375.699 51.9309C375.875 53.9417 375.533 55.5419 374.675 56.7314C372.747 59.5848 370.575 61.9783 368.161 63.9118C365.747 65.8453 362.881 66.9572 359.563 67.2475C349.308 68.1447 343.549 61.3795 342.287 46.9519C342.093 44.74 341.973 42.4964 341.926 40.221L338.985 40.4783C337.477 40.6102 336.422 40.4239 335.821 39.9193C335.27 39.4103 334.941 38.5526 334.836 37.3461C334.589 34.5309 335.597 33.0244 337.86 32.8265L342.158 32.4505C342.529 26.846 343.394 21.6794 344.753 16.9509C346.112 12.2224 347.904 8.39303 350.13 5.46292C352.406 2.52842 354.977 0.935824 357.842 0.685133C359.954 0.500413 361.694 1.28528 363.063 3.03973C364.432 4.79418 365.24 7.07897 365.487 9.89411C366.168 17.686 363.494 24.7584 357.465 31.1112L365.91 30.3724C366.715 30.302 367.308 30.4274 367.691 30.7485C368.074 31.0696 368.307 31.7077 368.39 32.6628C368.694 36.1315 366.005 38.1143 360.325 38.6113L351.125 39.4161C351.245 41.9385 351.366 43.9034 351.489 45.311C351.946 50.5391 352.871 54.1561 354.262 56.1619C355.703 58.1633 357.756 59.0474 360.421 58.8143C362.582 58.6252 364.435 57.8046 365.98 56.3524C367.524 54.9002 369.314 52.7682 371.347 49.9562C371.889 49.1996 372.537 48.7883 373.291 48.7224ZM356.44 8.10219C355.686 8.16816 354.915 9.19807 354.127 11.1919C353.385 13.1311 352.734 15.8221 352.174 19.265C351.66 22.6532 351.304 26.4074 351.107 30.5277C353.849 27.7044 355.81 24.6455 356.991 21.3509C358.218 18.0017 358.717 15.02 358.488 12.406C358.228 9.44003 357.546 8.00543 356.44 8.10219ZM402.893 46.1325C403.547 46.0753 404.076 46.333 404.48 46.9054C404.935 47.4735 405.209 48.2853 405.301 49.341C405.477 51.3518 405.136 52.952 404.278 54.1415C402.616 56.5664 400.159 58.8835 396.908 61.0929C393.707 63.2978 390.171 64.5696 386.3 64.9083C381.022 65.3701 376.799 64.2958 373.633 61.6855C370.466 59.0752 368.666 55.2816 368.23 50.3049C367.927 46.8362 368.374 43.5551 369.572 40.4616C370.766 37.3179 372.568 34.7541 374.978 32.7703C377.438 30.7822 380.302 29.6451 383.57 29.3593C386.485 29.1042 388.9 29.7794 390.813 31.3849C392.722 32.9402 393.807 35.2008 394.066 38.1667C394.37 41.6354 393.374 44.7364 391.081 47.4699C388.833 50.1486 384.807 52.4764 379.003 54.4532C380.462 56.6557 382.951 57.603 386.47 57.2951C388.732 57.0972 391.227 56.0937 393.957 54.2847C396.731 52.4209 399.062 50.1148 400.95 47.3663C401.491 46.6097 402.139 46.1985 402.893 46.1325ZM382.934 36.8612C381.074 37.0239 379.585 38.2432 378.467 40.5192C377.4 42.7908 377 45.4598 377.268 48.5263L377.282 48.6771C380.186 47.7139 382.431 46.4537 384.017 44.8966C385.603 43.3395 386.315 41.6309 386.152 39.7709C386.069 38.8158 385.726 38.0859 385.125 37.5813C384.569 37.022 383.839 36.782 382.934 36.8612ZM405.723 63.209C403.812 63.3761 402.367 62.4895 401.387 60.549C400.457 58.6042 399.798 55.4199 399.411 50.9961C398.84 44.4609 399.227 38.1712 400.572 32.1268C400.897 30.6294 401.533 29.5099 402.482 28.7684C403.476 27.9723 404.903 27.4929 406.763 27.3301C407.768 27.2422 408.483 27.3063 408.907 27.5224C409.331 27.7386 409.574 28.1986 409.636 28.9024C409.706 29.7067 409.487 31.5494 408.98 34.4305C408.653 36.4853 408.405 38.28 408.235 39.8145C408.065 41.349 407.977 43.231 407.969 45.4604C409.25 40.9921 410.802 37.3104 412.626 34.4155C414.449 31.5206 416.291 29.4092 418.15 28.0815C420.06 26.7493 421.844 26.0107 423.503 25.8656C425.112 25.7248 426.355 26.0466 427.234 26.8308C428.159 27.5604 428.692 28.7295 428.833 30.3381C428.947 31.6451 428.886 34.1326 428.65 37.8004C428.416 40.9109 428.269 43.8618 428.209 46.653C428.145 49.394 428.26 52.4486 428.555 55.8167C428.722 57.727 428.441 59.1446 427.711 60.0695C427.027 60.9398 425.806 61.452 424.046 61.6059C422.387 61.751 421.144 61.4293 420.315 60.6407C419.486 59.852 418.997 58.6031 418.847 56.8939C418.671 54.8831 418.733 51.5345 419.032 46.848C419.283 42.7736 419.361 40.1834 419.264 39.0775C419.194 38.2732 418.882 37.8952 418.329 37.9436C417.675 38.0008 416.82 38.9367 415.763 40.7515C414.752 42.5115 413.739 44.829 412.724 47.7038C411.76 50.5742 411.035 53.5757 410.549 56.7082C410.203 59.1192 409.69 60.7851 409.01 61.7056C408.377 62.5715 407.281 63.0727 405.723 63.209Z" fill="#FA9B09"/> </svg>